%TF.GenerationSoftware,KiCad,Pcbnew,7.0.5*%
%TF.CreationDate,2024-11-14T06:30:25+05:30*%
%TF.ProjectId,pc_healthypi_move_program_adapter_v7,70635f68-6561-46c7-9468-7970695f6d6f,rev?*%
%TF.SameCoordinates,Original*%
%TF.FileFunction,Drillmap*%
%TF.FilePolarity,Positive*%
%FSLAX45Y45*%
G04 Gerber Fmt 4.5, Leading zero omitted, Abs format (unit mm)*
G04 Created by KiCad (PCBNEW 7.0.5) date 2024-11-14 06:30:25*
%MOMM*%
%LPD*%
G01*
G04 APERTURE LIST*
%ADD10C,0.050000*%
%ADD11C,0.200000*%
%ADD12C,0.035000*%
%ADD13C,0.050800*%
%ADD14C,0.058420*%
%ADD15C,0.071120*%
%ADD16C,0.076200*%
%ADD17C,0.101600*%
G04 APERTURE END LIST*
D10*
X11750110Y-10200360D02*
X11750110Y-10800360D01*
X17750110Y-10000360D02*
X11950110Y-10000360D01*
X17750110Y-11000360D02*
G75*
G03*
X17950110Y-10800360I0J200000D01*
G01*
X11950110Y-11000360D02*
X17750110Y-11000360D01*
X11950110Y-10000360D02*
G75*
G03*
X11750110Y-10200360I0J-200000D01*
G01*
X17950110Y-10200360D02*
G75*
G03*
X17750110Y-10000360I-200000J0D01*
G01*
X17950110Y-10800360D02*
X17950110Y-10200360D01*
X11750110Y-10800360D02*
G75*
G03*
X11950110Y-11000360I200000J0D01*
G01*
D11*
D12*
X14125610Y-10124860D02*
X14160610Y-10159860D01*
X14160610Y-10124860D02*
X14125610Y-10159860D01*
X14234610Y-10101860D02*
X14269610Y-10136860D01*
X14269610Y-10101860D02*
X14234610Y-10136860D01*
X14542610Y-10052860D02*
X14577610Y-10087860D01*
X14577610Y-10052860D02*
X14542610Y-10087860D01*
X14591610Y-10435860D02*
X14626610Y-10470860D01*
X14626610Y-10435860D02*
X14591610Y-10470860D01*
X14657570Y-10864860D02*
X14692570Y-10899860D01*
X14692570Y-10864860D02*
X14657570Y-10899860D01*
X14707610Y-10152860D02*
X14742610Y-10187860D01*
X14742610Y-10152860D02*
X14707610Y-10187860D01*
X14765610Y-10832860D02*
X14800610Y-10867860D01*
X14800610Y-10832860D02*
X14765610Y-10867860D01*
X14819610Y-10223860D02*
X14854610Y-10258860D01*
X14854610Y-10223860D02*
X14819610Y-10258860D01*
X15023610Y-10088860D02*
X15058610Y-10123860D01*
X15058610Y-10088860D02*
X15023610Y-10123860D01*
X15345610Y-10116860D02*
X15380610Y-10151860D01*
X15380610Y-10116860D02*
X15345610Y-10151860D01*
X15529610Y-10803280D02*
X15564610Y-10838280D01*
X15564610Y-10803280D02*
X15529610Y-10838280D01*
X15570610Y-10178860D02*
X15605610Y-10213860D01*
X15605610Y-10178860D02*
X15570610Y-10213860D01*
X15648610Y-10732860D02*
X15683610Y-10767860D01*
X15683610Y-10732860D02*
X15648610Y-10767860D01*
X15712610Y-10225860D02*
X15747610Y-10260860D01*
X15747610Y-10225860D02*
X15712610Y-10260860D01*
X15751610Y-10614860D02*
X15786610Y-10649860D01*
X15786610Y-10614860D02*
X15751610Y-10649860D01*
X15940110Y-10748360D02*
X15975110Y-10783360D01*
X15975110Y-10748360D02*
X15940110Y-10783360D01*
X16048610Y-10145860D02*
X16083610Y-10180860D01*
X16083610Y-10145860D02*
X16048610Y-10180860D01*
X16290610Y-10136860D02*
X16325610Y-10171860D01*
X16325610Y-10136860D02*
X16290610Y-10171860D01*
X16347610Y-10882860D02*
X16382610Y-10917860D01*
X16382610Y-10882860D02*
X16347610Y-10917860D01*
X16469610Y-10161860D02*
X16504610Y-10196860D01*
X16504610Y-10161860D02*
X16469610Y-10196860D01*
X16693610Y-10740860D02*
X16728610Y-10775860D01*
X16728610Y-10740860D02*
X16693610Y-10775860D01*
X16917610Y-10705860D02*
X16952610Y-10740860D01*
X16952610Y-10705860D02*
X16917610Y-10740860D01*
X17170610Y-10468860D02*
X17205610Y-10503860D01*
X17205610Y-10468860D02*
X17170610Y-10503860D01*
X17297610Y-10444860D02*
X17332610Y-10479860D01*
X17332610Y-10444860D02*
X17297610Y-10479860D01*
X17324610Y-10893860D02*
X17359610Y-10928860D01*
X17359610Y-10893860D02*
X17324610Y-10928860D01*
D13*
X14808950Y-10500360D02*
G75*
G03*
X14808950Y-10500360I-25400J0D01*
G01*
X14839430Y-10500360D02*
G75*
G03*
X14839430Y-10500360I-25400J0D01*
G01*
X15007070Y-10779760D02*
G75*
G03*
X15007070Y-10779760I-25400J0D01*
G01*
X15032470Y-10779760D02*
G75*
G03*
X15032470Y-10779760I-25400J0D01*
G01*
X15057870Y-10779760D02*
G75*
G03*
X15057870Y-10779760I-25400J0D01*
G01*
X15070570Y-10779760D02*
G75*
G03*
X15070570Y-10779760I-25400J0D01*
G01*
X15095970Y-10779760D02*
G75*
G03*
X15095970Y-10779760I-25400J0D01*
G01*
X15159470Y-10220960D02*
G75*
G03*
X15159470Y-10220960I-25400J0D01*
G01*
X15180110Y-10220360D02*
G75*
G03*
X15180110Y-10220360I-25400J0D01*
G01*
X15205510Y-10220360D02*
G75*
G03*
X15205510Y-10220360I-25400J0D01*
G01*
X15235510Y-10220360D02*
G75*
G03*
X15235510Y-10220360I-25400J0D01*
G01*
X15266150Y-10220960D02*
G75*
G03*
X15266150Y-10220960I-25400J0D01*
G01*
X15291550Y-10220960D02*
G75*
G03*
X15291550Y-10220960I-25400J0D01*
G01*
X15355050Y-10779760D02*
G75*
G03*
X15355050Y-10779760I-25400J0D01*
G01*
X15380450Y-10779760D02*
G75*
G03*
X15380450Y-10779760I-25400J0D01*
G01*
X15405850Y-10779760D02*
G75*
G03*
X15405850Y-10779760I-25400J0D01*
G01*
X15431250Y-10779760D02*
G75*
G03*
X15431250Y-10779760I-25400J0D01*
G01*
X15443950Y-10779760D02*
G75*
G03*
X15443950Y-10779760I-25400J0D01*
G01*
X15611590Y-10500360D02*
G75*
G03*
X15611590Y-10500360I-25400J0D01*
G01*
X15642070Y-10500360D02*
G75*
G03*
X15642070Y-10500360I-25400J0D01*
G01*
D14*
X15953870Y-10471150D02*
X15953870Y-10529570D01*
X15924660Y-10500360D02*
X15983080Y-10500360D01*
X15974190Y-10471150D02*
X15974190Y-10529570D01*
X15944980Y-10500360D02*
X16003400Y-10500360D01*
X15997050Y-10471150D02*
X15997050Y-10529570D01*
X15967840Y-10500360D02*
X16026260Y-10500360D01*
D15*
X16136495Y-10309605D02*
X16136495Y-10259315D01*
X16086205Y-10259315D01*
X16086205Y-10309605D01*
X16136495Y-10309605D01*
X16136495Y-10741405D02*
X16136495Y-10691115D01*
X16086205Y-10691115D01*
X16086205Y-10741405D01*
X16136495Y-10741405D01*
X16614015Y-10309605D02*
X16614015Y-10259315D01*
X16563725Y-10259315D01*
X16563725Y-10309605D01*
X16614015Y-10309605D01*
X16614015Y-10741405D02*
X16614015Y-10691115D01*
X16563725Y-10691115D01*
X16563725Y-10741405D01*
X16614015Y-10741405D01*
D16*
X14819110Y-10447020D02*
X14857210Y-10408920D01*
X14819110Y-10370820D01*
X14781010Y-10408920D01*
X14819110Y-10447020D01*
X15581110Y-10629900D02*
X15619210Y-10591800D01*
X15581110Y-10553700D01*
X15543010Y-10591800D01*
X15581110Y-10629900D01*
X16726030Y-10538460D02*
X16764130Y-10500360D01*
X16726030Y-10462260D01*
X16687930Y-10500360D01*
X16726030Y-10538460D01*
D17*
X11957310Y-10322560D02*
X12058910Y-10424160D01*
X12058910Y-10322560D02*
X11957310Y-10424160D01*
X12058910Y-10373360D02*
G75*
G03*
X12058910Y-10373360I-50800J0D01*
G01*
X11957310Y-10576560D02*
X12058910Y-10678160D01*
X12058910Y-10576560D02*
X11957310Y-10678160D01*
X12058910Y-10627360D02*
G75*
G03*
X12058910Y-10627360I-50800J0D01*
G01*
X12211310Y-10322560D02*
X12312910Y-10424160D01*
X12312910Y-10322560D02*
X12211310Y-10424160D01*
X12312910Y-10373360D02*
G75*
G03*
X12312910Y-10373360I-50800J0D01*
G01*
X12211310Y-10576560D02*
X12312910Y-10678160D01*
X12312910Y-10576560D02*
X12211310Y-10678160D01*
X12312910Y-10627360D02*
G75*
G03*
X12312910Y-10627360I-50800J0D01*
G01*
X12465310Y-10322560D02*
X12566910Y-10424160D01*
X12566910Y-10322560D02*
X12465310Y-10424160D01*
X12566910Y-10373360D02*
G75*
G03*
X12566910Y-10373360I-50800J0D01*
G01*
X12465310Y-10576560D02*
X12566910Y-10678160D01*
X12566910Y-10576560D02*
X12465310Y-10678160D01*
X12566910Y-10627360D02*
G75*
G03*
X12566910Y-10627360I-50800J0D01*
G01*
X12719310Y-10322560D02*
X12820910Y-10424160D01*
X12820910Y-10322560D02*
X12719310Y-10424160D01*
X12820910Y-10373360D02*
G75*
G03*
X12820910Y-10373360I-50800J0D01*
G01*
X12719310Y-10576560D02*
X12820910Y-10678160D01*
X12820910Y-10576560D02*
X12719310Y-10678160D01*
X12820910Y-10627360D02*
G75*
G03*
X12820910Y-10627360I-50800J0D01*
G01*
X12973310Y-10322560D02*
X13074910Y-10424160D01*
X13074910Y-10322560D02*
X12973310Y-10424160D01*
X13074910Y-10373360D02*
G75*
G03*
X13074910Y-10373360I-50800J0D01*
G01*
X12973310Y-10576560D02*
X13074910Y-10678160D01*
X13074910Y-10576560D02*
X12973310Y-10678160D01*
X13074910Y-10627360D02*
G75*
G03*
X13074910Y-10627360I-50800J0D01*
G01*
X13227310Y-10322560D02*
X13328910Y-10424160D01*
X13328910Y-10322560D02*
X13227310Y-10424160D01*
X13328910Y-10373360D02*
G75*
G03*
X13328910Y-10373360I-50800J0D01*
G01*
X13227310Y-10576560D02*
X13328910Y-10678160D01*
X13328910Y-10576560D02*
X13227310Y-10678160D01*
X13328910Y-10627360D02*
G75*
G03*
X13328910Y-10627360I-50800J0D01*
G01*
X13481310Y-10322560D02*
X13582910Y-10424160D01*
X13582910Y-10322560D02*
X13481310Y-10424160D01*
X13582910Y-10373360D02*
G75*
G03*
X13582910Y-10373360I-50800J0D01*
G01*
X13481310Y-10576560D02*
X13582910Y-10678160D01*
X13582910Y-10576560D02*
X13481310Y-10678160D01*
X13582910Y-10627360D02*
G75*
G03*
X13582910Y-10627360I-50800J0D01*
G01*
X13735310Y-10322560D02*
X13836910Y-10424160D01*
X13836910Y-10322560D02*
X13735310Y-10424160D01*
X13836910Y-10373360D02*
G75*
G03*
X13836910Y-10373360I-50800J0D01*
G01*
X13735310Y-10576560D02*
X13836910Y-10678160D01*
X13836910Y-10576560D02*
X13735310Y-10678160D01*
X13836910Y-10627360D02*
G75*
G03*
X13836910Y-10627360I-50800J0D01*
G01*
X13989310Y-10322560D02*
X14090910Y-10424160D01*
X14090910Y-10322560D02*
X13989310Y-10424160D01*
X14090910Y-10373360D02*
G75*
G03*
X14090910Y-10373360I-50800J0D01*
G01*
X13989310Y-10576560D02*
X14090910Y-10678160D01*
X14090910Y-10576560D02*
X13989310Y-10678160D01*
X14090910Y-10627360D02*
G75*
G03*
X14090910Y-10627360I-50800J0D01*
G01*
X14243310Y-10322560D02*
X14344910Y-10424160D01*
X14344910Y-10322560D02*
X14243310Y-10424160D01*
X14344910Y-10373360D02*
G75*
G03*
X14344910Y-10373360I-50800J0D01*
G01*
X14243310Y-10576560D02*
X14344910Y-10678160D01*
X14344910Y-10576560D02*
X14243310Y-10678160D01*
X14344910Y-10627360D02*
G75*
G03*
X14344910Y-10627360I-50800J0D01*
G01*
D11*
X12008387Y-11314344D02*
X12008387Y-11114344D01*
X12008387Y-11114344D02*
X12056006Y-11114344D01*
X12056006Y-11114344D02*
X12084577Y-11123868D01*
X12084577Y-11123868D02*
X12103625Y-11142915D01*
X12103625Y-11142915D02*
X12113149Y-11161963D01*
X12113149Y-11161963D02*
X12122672Y-11200058D01*
X12122672Y-11200058D02*
X12122672Y-11228629D01*
X12122672Y-11228629D02*
X12113149Y-11266725D01*
X12113149Y-11266725D02*
X12103625Y-11285772D01*
X12103625Y-11285772D02*
X12084577Y-11304820D01*
X12084577Y-11304820D02*
X12056006Y-11314344D01*
X12056006Y-11314344D02*
X12008387Y-11314344D01*
X12208387Y-11314344D02*
X12208387Y-11181010D01*
X12208387Y-11219106D02*
X12217911Y-11200058D01*
X12217911Y-11200058D02*
X12227434Y-11190534D01*
X12227434Y-11190534D02*
X12246482Y-11181010D01*
X12246482Y-11181010D02*
X12265530Y-11181010D01*
X12332196Y-11314344D02*
X12332196Y-11181010D01*
X12332196Y-11114344D02*
X12322672Y-11123868D01*
X12322672Y-11123868D02*
X12332196Y-11133391D01*
X12332196Y-11133391D02*
X12341720Y-11123868D01*
X12341720Y-11123868D02*
X12332196Y-11114344D01*
X12332196Y-11114344D02*
X12332196Y-11133391D01*
X12456006Y-11314344D02*
X12436958Y-11304820D01*
X12436958Y-11304820D02*
X12427434Y-11285772D01*
X12427434Y-11285772D02*
X12427434Y-11114344D01*
X12560768Y-11314344D02*
X12541720Y-11304820D01*
X12541720Y-11304820D02*
X12532196Y-11285772D01*
X12532196Y-11285772D02*
X12532196Y-11114344D01*
X12789339Y-11314344D02*
X12789339Y-11114344D01*
X12789339Y-11114344D02*
X12856006Y-11257201D01*
X12856006Y-11257201D02*
X12922672Y-11114344D01*
X12922672Y-11114344D02*
X12922672Y-11314344D01*
X13103625Y-11314344D02*
X13103625Y-11209582D01*
X13103625Y-11209582D02*
X13094101Y-11190534D01*
X13094101Y-11190534D02*
X13075053Y-11181010D01*
X13075053Y-11181010D02*
X13036958Y-11181010D01*
X13036958Y-11181010D02*
X13017911Y-11190534D01*
X13103625Y-11304820D02*
X13084577Y-11314344D01*
X13084577Y-11314344D02*
X13036958Y-11314344D01*
X13036958Y-11314344D02*
X13017911Y-11304820D01*
X13017911Y-11304820D02*
X13008387Y-11285772D01*
X13008387Y-11285772D02*
X13008387Y-11266725D01*
X13008387Y-11266725D02*
X13017911Y-11247677D01*
X13017911Y-11247677D02*
X13036958Y-11238153D01*
X13036958Y-11238153D02*
X13084577Y-11238153D01*
X13084577Y-11238153D02*
X13103625Y-11228629D01*
X13198863Y-11181010D02*
X13198863Y-11381010D01*
X13198863Y-11190534D02*
X13217911Y-11181010D01*
X13217911Y-11181010D02*
X13256006Y-11181010D01*
X13256006Y-11181010D02*
X13275053Y-11190534D01*
X13275053Y-11190534D02*
X13284577Y-11200058D01*
X13284577Y-11200058D02*
X13294101Y-11219106D01*
X13294101Y-11219106D02*
X13294101Y-11276248D01*
X13294101Y-11276248D02*
X13284577Y-11295296D01*
X13284577Y-11295296D02*
X13275053Y-11304820D01*
X13275053Y-11304820D02*
X13256006Y-11314344D01*
X13256006Y-11314344D02*
X13217911Y-11314344D01*
X13217911Y-11314344D02*
X13198863Y-11304820D01*
X13379815Y-11295296D02*
X13389339Y-11304820D01*
X13389339Y-11304820D02*
X13379815Y-11314344D01*
X13379815Y-11314344D02*
X13370292Y-11304820D01*
X13370292Y-11304820D02*
X13379815Y-11295296D01*
X13379815Y-11295296D02*
X13379815Y-11314344D01*
X13379815Y-11190534D02*
X13389339Y-11200058D01*
X13389339Y-11200058D02*
X13379815Y-11209582D01*
X13379815Y-11209582D02*
X13370292Y-11200058D01*
X13370292Y-11200058D02*
X13379815Y-11190534D01*
X13379815Y-11190534D02*
X13379815Y-11209582D01*
D12*
X11712610Y-11625360D02*
X11747610Y-11660360D01*
X11747610Y-11625360D02*
X11712610Y-11660360D01*
D11*
X12046482Y-11534344D02*
X12065530Y-11534344D01*
X12065530Y-11534344D02*
X12084577Y-11543868D01*
X12084577Y-11543868D02*
X12094101Y-11553391D01*
X12094101Y-11553391D02*
X12103625Y-11572439D01*
X12103625Y-11572439D02*
X12113149Y-11610534D01*
X12113149Y-11610534D02*
X12113149Y-11658153D01*
X12113149Y-11658153D02*
X12103625Y-11696248D01*
X12103625Y-11696248D02*
X12094101Y-11715296D01*
X12094101Y-11715296D02*
X12084577Y-11724820D01*
X12084577Y-11724820D02*
X12065530Y-11734344D01*
X12065530Y-11734344D02*
X12046482Y-11734344D01*
X12046482Y-11734344D02*
X12027434Y-11724820D01*
X12027434Y-11724820D02*
X12017911Y-11715296D01*
X12017911Y-11715296D02*
X12008387Y-11696248D01*
X12008387Y-11696248D02*
X11998863Y-11658153D01*
X11998863Y-11658153D02*
X11998863Y-11610534D01*
X11998863Y-11610534D02*
X12008387Y-11572439D01*
X12008387Y-11572439D02*
X12017911Y-11553391D01*
X12017911Y-11553391D02*
X12027434Y-11543868D01*
X12027434Y-11543868D02*
X12046482Y-11534344D01*
X12198863Y-11715296D02*
X12208387Y-11724820D01*
X12208387Y-11724820D02*
X12198863Y-11734344D01*
X12198863Y-11734344D02*
X12189339Y-11724820D01*
X12189339Y-11724820D02*
X12198863Y-11715296D01*
X12198863Y-11715296D02*
X12198863Y-11734344D01*
X12275053Y-11534344D02*
X12398863Y-11534344D01*
X12398863Y-11534344D02*
X12332196Y-11610534D01*
X12332196Y-11610534D02*
X12360768Y-11610534D01*
X12360768Y-11610534D02*
X12379815Y-11620058D01*
X12379815Y-11620058D02*
X12389339Y-11629582D01*
X12389339Y-11629582D02*
X12398863Y-11648629D01*
X12398863Y-11648629D02*
X12398863Y-11696248D01*
X12398863Y-11696248D02*
X12389339Y-11715296D01*
X12389339Y-11715296D02*
X12379815Y-11724820D01*
X12379815Y-11724820D02*
X12360768Y-11734344D01*
X12360768Y-11734344D02*
X12303625Y-11734344D01*
X12303625Y-11734344D02*
X12284577Y-11724820D01*
X12284577Y-11724820D02*
X12275053Y-11715296D01*
X12579815Y-11534344D02*
X12484577Y-11534344D01*
X12484577Y-11534344D02*
X12475053Y-11629582D01*
X12475053Y-11629582D02*
X12484577Y-11620058D01*
X12484577Y-11620058D02*
X12503625Y-11610534D01*
X12503625Y-11610534D02*
X12551244Y-11610534D01*
X12551244Y-11610534D02*
X12570292Y-11620058D01*
X12570292Y-11620058D02*
X12579815Y-11629582D01*
X12579815Y-11629582D02*
X12589339Y-11648629D01*
X12589339Y-11648629D02*
X12589339Y-11696248D01*
X12589339Y-11696248D02*
X12579815Y-11715296D01*
X12579815Y-11715296D02*
X12570292Y-11724820D01*
X12570292Y-11724820D02*
X12551244Y-11734344D01*
X12551244Y-11734344D02*
X12503625Y-11734344D01*
X12503625Y-11734344D02*
X12484577Y-11724820D01*
X12484577Y-11724820D02*
X12475053Y-11715296D01*
X12713149Y-11534344D02*
X12732196Y-11534344D01*
X12732196Y-11534344D02*
X12751244Y-11543868D01*
X12751244Y-11543868D02*
X12760768Y-11553391D01*
X12760768Y-11553391D02*
X12770292Y-11572439D01*
X12770292Y-11572439D02*
X12779815Y-11610534D01*
X12779815Y-11610534D02*
X12779815Y-11658153D01*
X12779815Y-11658153D02*
X12770292Y-11696248D01*
X12770292Y-11696248D02*
X12760768Y-11715296D01*
X12760768Y-11715296D02*
X12751244Y-11724820D01*
X12751244Y-11724820D02*
X12732196Y-11734344D01*
X12732196Y-11734344D02*
X12713149Y-11734344D01*
X12713149Y-11734344D02*
X12694101Y-11724820D01*
X12694101Y-11724820D02*
X12684577Y-11715296D01*
X12684577Y-11715296D02*
X12675053Y-11696248D01*
X12675053Y-11696248D02*
X12665530Y-11658153D01*
X12665530Y-11658153D02*
X12665530Y-11610534D01*
X12665530Y-11610534D02*
X12675053Y-11572439D01*
X12675053Y-11572439D02*
X12684577Y-11553391D01*
X12684577Y-11553391D02*
X12694101Y-11543868D01*
X12694101Y-11543868D02*
X12713149Y-11534344D01*
X12865530Y-11734344D02*
X12865530Y-11601010D01*
X12865530Y-11620058D02*
X12875053Y-11610534D01*
X12875053Y-11610534D02*
X12894101Y-11601010D01*
X12894101Y-11601010D02*
X12922673Y-11601010D01*
X12922673Y-11601010D02*
X12941720Y-11610534D01*
X12941720Y-11610534D02*
X12951244Y-11629582D01*
X12951244Y-11629582D02*
X12951244Y-11734344D01*
X12951244Y-11629582D02*
X12960768Y-11610534D01*
X12960768Y-11610534D02*
X12979815Y-11601010D01*
X12979815Y-11601010D02*
X13008387Y-11601010D01*
X13008387Y-11601010D02*
X13027434Y-11610534D01*
X13027434Y-11610534D02*
X13036958Y-11629582D01*
X13036958Y-11629582D02*
X13036958Y-11734344D01*
X13132196Y-11734344D02*
X13132196Y-11601010D01*
X13132196Y-11620058D02*
X13141720Y-11610534D01*
X13141720Y-11610534D02*
X13160768Y-11601010D01*
X13160768Y-11601010D02*
X13189339Y-11601010D01*
X13189339Y-11601010D02*
X13208387Y-11610534D01*
X13208387Y-11610534D02*
X13217911Y-11629582D01*
X13217911Y-11629582D02*
X13217911Y-11734344D01*
X13217911Y-11629582D02*
X13227434Y-11610534D01*
X13227434Y-11610534D02*
X13246482Y-11601010D01*
X13246482Y-11601010D02*
X13275053Y-11601010D01*
X13275053Y-11601010D02*
X13294101Y-11610534D01*
X13294101Y-11610534D02*
X13303625Y-11629582D01*
X13303625Y-11629582D02*
X13303625Y-11734344D01*
X13694101Y-11524820D02*
X13522673Y-11781963D01*
X13951244Y-11534344D02*
X13970292Y-11534344D01*
X13970292Y-11534344D02*
X13989339Y-11543868D01*
X13989339Y-11543868D02*
X13998863Y-11553391D01*
X13998863Y-11553391D02*
X14008387Y-11572439D01*
X14008387Y-11572439D02*
X14017911Y-11610534D01*
X14017911Y-11610534D02*
X14017911Y-11658153D01*
X14017911Y-11658153D02*
X14008387Y-11696248D01*
X14008387Y-11696248D02*
X13998863Y-11715296D01*
X13998863Y-11715296D02*
X13989339Y-11724820D01*
X13989339Y-11724820D02*
X13970292Y-11734344D01*
X13970292Y-11734344D02*
X13951244Y-11734344D01*
X13951244Y-11734344D02*
X13932196Y-11724820D01*
X13932196Y-11724820D02*
X13922673Y-11715296D01*
X13922673Y-11715296D02*
X13913149Y-11696248D01*
X13913149Y-11696248D02*
X13903625Y-11658153D01*
X13903625Y-11658153D02*
X13903625Y-11610534D01*
X13903625Y-11610534D02*
X13913149Y-11572439D01*
X13913149Y-11572439D02*
X13922673Y-11553391D01*
X13922673Y-11553391D02*
X13932196Y-11543868D01*
X13932196Y-11543868D02*
X13951244Y-11534344D01*
X14103625Y-11715296D02*
X14113149Y-11724820D01*
X14113149Y-11724820D02*
X14103625Y-11734344D01*
X14103625Y-11734344D02*
X14094101Y-11724820D01*
X14094101Y-11724820D02*
X14103625Y-11715296D01*
X14103625Y-11715296D02*
X14103625Y-11734344D01*
X14236958Y-11534344D02*
X14256006Y-11534344D01*
X14256006Y-11534344D02*
X14275054Y-11543868D01*
X14275054Y-11543868D02*
X14284577Y-11553391D01*
X14284577Y-11553391D02*
X14294101Y-11572439D01*
X14294101Y-11572439D02*
X14303625Y-11610534D01*
X14303625Y-11610534D02*
X14303625Y-11658153D01*
X14303625Y-11658153D02*
X14294101Y-11696248D01*
X14294101Y-11696248D02*
X14284577Y-11715296D01*
X14284577Y-11715296D02*
X14275054Y-11724820D01*
X14275054Y-11724820D02*
X14256006Y-11734344D01*
X14256006Y-11734344D02*
X14236958Y-11734344D01*
X14236958Y-11734344D02*
X14217911Y-11724820D01*
X14217911Y-11724820D02*
X14208387Y-11715296D01*
X14208387Y-11715296D02*
X14198863Y-11696248D01*
X14198863Y-11696248D02*
X14189339Y-11658153D01*
X14189339Y-11658153D02*
X14189339Y-11610534D01*
X14189339Y-11610534D02*
X14198863Y-11572439D01*
X14198863Y-11572439D02*
X14208387Y-11553391D01*
X14208387Y-11553391D02*
X14217911Y-11543868D01*
X14217911Y-11543868D02*
X14236958Y-11534344D01*
X14494101Y-11734344D02*
X14379816Y-11734344D01*
X14436958Y-11734344D02*
X14436958Y-11534344D01*
X14436958Y-11534344D02*
X14417911Y-11562915D01*
X14417911Y-11562915D02*
X14398863Y-11581963D01*
X14398863Y-11581963D02*
X14379816Y-11591487D01*
X14560768Y-11534344D02*
X14684577Y-11534344D01*
X14684577Y-11534344D02*
X14617911Y-11610534D01*
X14617911Y-11610534D02*
X14646482Y-11610534D01*
X14646482Y-11610534D02*
X14665530Y-11620058D01*
X14665530Y-11620058D02*
X14675054Y-11629582D01*
X14675054Y-11629582D02*
X14684577Y-11648629D01*
X14684577Y-11648629D02*
X14684577Y-11696248D01*
X14684577Y-11696248D02*
X14675054Y-11715296D01*
X14675054Y-11715296D02*
X14665530Y-11724820D01*
X14665530Y-11724820D02*
X14646482Y-11734344D01*
X14646482Y-11734344D02*
X14589339Y-11734344D01*
X14589339Y-11734344D02*
X14570292Y-11724820D01*
X14570292Y-11724820D02*
X14560768Y-11715296D01*
X14798863Y-11620058D02*
X14779816Y-11610534D01*
X14779816Y-11610534D02*
X14770292Y-11601010D01*
X14770292Y-11601010D02*
X14760768Y-11581963D01*
X14760768Y-11581963D02*
X14760768Y-11572439D01*
X14760768Y-11572439D02*
X14770292Y-11553391D01*
X14770292Y-11553391D02*
X14779816Y-11543868D01*
X14779816Y-11543868D02*
X14798863Y-11534344D01*
X14798863Y-11534344D02*
X14836958Y-11534344D01*
X14836958Y-11534344D02*
X14856006Y-11543868D01*
X14856006Y-11543868D02*
X14865530Y-11553391D01*
X14865530Y-11553391D02*
X14875054Y-11572439D01*
X14875054Y-11572439D02*
X14875054Y-11581963D01*
X14875054Y-11581963D02*
X14865530Y-11601010D01*
X14865530Y-11601010D02*
X14856006Y-11610534D01*
X14856006Y-11610534D02*
X14836958Y-11620058D01*
X14836958Y-11620058D02*
X14798863Y-11620058D01*
X14798863Y-11620058D02*
X14779816Y-11629582D01*
X14779816Y-11629582D02*
X14770292Y-11639106D01*
X14770292Y-11639106D02*
X14760768Y-11658153D01*
X14760768Y-11658153D02*
X14760768Y-11696248D01*
X14760768Y-11696248D02*
X14770292Y-11715296D01*
X14770292Y-11715296D02*
X14779816Y-11724820D01*
X14779816Y-11724820D02*
X14798863Y-11734344D01*
X14798863Y-11734344D02*
X14836958Y-11734344D01*
X14836958Y-11734344D02*
X14856006Y-11724820D01*
X14856006Y-11724820D02*
X14865530Y-11715296D01*
X14865530Y-11715296D02*
X14875054Y-11696248D01*
X14875054Y-11696248D02*
X14875054Y-11658153D01*
X14875054Y-11658153D02*
X14865530Y-11639106D01*
X14865530Y-11639106D02*
X14856006Y-11629582D01*
X14856006Y-11629582D02*
X14836958Y-11620058D01*
X14951244Y-11534344D02*
X14951244Y-11572439D01*
X15027435Y-11534344D02*
X15027435Y-11572439D01*
X15322673Y-11810534D02*
X15313149Y-11801010D01*
X15313149Y-11801010D02*
X15294101Y-11772439D01*
X15294101Y-11772439D02*
X15284578Y-11753391D01*
X15284578Y-11753391D02*
X15275054Y-11724820D01*
X15275054Y-11724820D02*
X15265530Y-11677201D01*
X15265530Y-11677201D02*
X15265530Y-11639106D01*
X15265530Y-11639106D02*
X15275054Y-11591487D01*
X15275054Y-11591487D02*
X15284578Y-11562915D01*
X15284578Y-11562915D02*
X15294101Y-11543868D01*
X15294101Y-11543868D02*
X15313149Y-11515296D01*
X15313149Y-11515296D02*
X15322673Y-11505772D01*
X15389339Y-11553391D02*
X15398863Y-11543868D01*
X15398863Y-11543868D02*
X15417911Y-11534344D01*
X15417911Y-11534344D02*
X15465530Y-11534344D01*
X15465530Y-11534344D02*
X15484578Y-11543868D01*
X15484578Y-11543868D02*
X15494101Y-11553391D01*
X15494101Y-11553391D02*
X15503625Y-11572439D01*
X15503625Y-11572439D02*
X15503625Y-11591487D01*
X15503625Y-11591487D02*
X15494101Y-11620058D01*
X15494101Y-11620058D02*
X15379816Y-11734344D01*
X15379816Y-11734344D02*
X15503625Y-11734344D01*
X15684578Y-11534344D02*
X15589339Y-11534344D01*
X15589339Y-11534344D02*
X15579816Y-11629582D01*
X15579816Y-11629582D02*
X15589339Y-11620058D01*
X15589339Y-11620058D02*
X15608387Y-11610534D01*
X15608387Y-11610534D02*
X15656006Y-11610534D01*
X15656006Y-11610534D02*
X15675054Y-11620058D01*
X15675054Y-11620058D02*
X15684578Y-11629582D01*
X15684578Y-11629582D02*
X15694101Y-11648629D01*
X15694101Y-11648629D02*
X15694101Y-11696248D01*
X15694101Y-11696248D02*
X15684578Y-11715296D01*
X15684578Y-11715296D02*
X15675054Y-11724820D01*
X15675054Y-11724820D02*
X15656006Y-11734344D01*
X15656006Y-11734344D02*
X15608387Y-11734344D01*
X15608387Y-11734344D02*
X15589339Y-11724820D01*
X15589339Y-11724820D02*
X15579816Y-11715296D01*
X15932197Y-11734344D02*
X15932197Y-11534344D01*
X16017911Y-11734344D02*
X16017911Y-11629582D01*
X16017911Y-11629582D02*
X16008387Y-11610534D01*
X16008387Y-11610534D02*
X15989340Y-11601010D01*
X15989340Y-11601010D02*
X15960768Y-11601010D01*
X15960768Y-11601010D02*
X15941720Y-11610534D01*
X15941720Y-11610534D02*
X15932197Y-11620058D01*
X16141720Y-11734344D02*
X16122673Y-11724820D01*
X16122673Y-11724820D02*
X16113149Y-11715296D01*
X16113149Y-11715296D02*
X16103625Y-11696248D01*
X16103625Y-11696248D02*
X16103625Y-11639106D01*
X16103625Y-11639106D02*
X16113149Y-11620058D01*
X16113149Y-11620058D02*
X16122673Y-11610534D01*
X16122673Y-11610534D02*
X16141720Y-11601010D01*
X16141720Y-11601010D02*
X16170292Y-11601010D01*
X16170292Y-11601010D02*
X16189340Y-11610534D01*
X16189340Y-11610534D02*
X16198863Y-11620058D01*
X16198863Y-11620058D02*
X16208387Y-11639106D01*
X16208387Y-11639106D02*
X16208387Y-11696248D01*
X16208387Y-11696248D02*
X16198863Y-11715296D01*
X16198863Y-11715296D02*
X16189340Y-11724820D01*
X16189340Y-11724820D02*
X16170292Y-11734344D01*
X16170292Y-11734344D02*
X16141720Y-11734344D01*
X16322673Y-11734344D02*
X16303625Y-11724820D01*
X16303625Y-11724820D02*
X16294101Y-11705772D01*
X16294101Y-11705772D02*
X16294101Y-11534344D01*
X16475054Y-11724820D02*
X16456006Y-11734344D01*
X16456006Y-11734344D02*
X16417911Y-11734344D01*
X16417911Y-11734344D02*
X16398863Y-11724820D01*
X16398863Y-11724820D02*
X16389340Y-11705772D01*
X16389340Y-11705772D02*
X16389340Y-11629582D01*
X16389340Y-11629582D02*
X16398863Y-11610534D01*
X16398863Y-11610534D02*
X16417911Y-11601010D01*
X16417911Y-11601010D02*
X16456006Y-11601010D01*
X16456006Y-11601010D02*
X16475054Y-11610534D01*
X16475054Y-11610534D02*
X16484578Y-11629582D01*
X16484578Y-11629582D02*
X16484578Y-11648629D01*
X16484578Y-11648629D02*
X16389340Y-11667677D01*
X16560768Y-11724820D02*
X16579816Y-11734344D01*
X16579816Y-11734344D02*
X16617911Y-11734344D01*
X16617911Y-11734344D02*
X16636959Y-11724820D01*
X16636959Y-11724820D02*
X16646482Y-11705772D01*
X16646482Y-11705772D02*
X16646482Y-11696248D01*
X16646482Y-11696248D02*
X16636959Y-11677201D01*
X16636959Y-11677201D02*
X16617911Y-11667677D01*
X16617911Y-11667677D02*
X16589340Y-11667677D01*
X16589340Y-11667677D02*
X16570292Y-11658153D01*
X16570292Y-11658153D02*
X16560768Y-11639106D01*
X16560768Y-11639106D02*
X16560768Y-11629582D01*
X16560768Y-11629582D02*
X16570292Y-11610534D01*
X16570292Y-11610534D02*
X16589340Y-11601010D01*
X16589340Y-11601010D02*
X16617911Y-11601010D01*
X16617911Y-11601010D02*
X16636959Y-11610534D01*
X16713149Y-11810534D02*
X16722673Y-11801010D01*
X16722673Y-11801010D02*
X16741721Y-11772439D01*
X16741721Y-11772439D02*
X16751244Y-11753391D01*
X16751244Y-11753391D02*
X16760768Y-11724820D01*
X16760768Y-11724820D02*
X16770292Y-11677201D01*
X16770292Y-11677201D02*
X16770292Y-11639106D01*
X16770292Y-11639106D02*
X16760768Y-11591487D01*
X16760768Y-11591487D02*
X16751244Y-11562915D01*
X16751244Y-11562915D02*
X16741721Y-11543868D01*
X16741721Y-11543868D02*
X16722673Y-11515296D01*
X16722673Y-11515296D02*
X16713149Y-11505772D01*
D13*
X11747610Y-11906860D02*
G75*
G03*
X11747610Y-11906860I-25400J0D01*
G01*
D11*
X12046482Y-11798344D02*
X12065530Y-11798344D01*
X12065530Y-11798344D02*
X12084577Y-11807868D01*
X12084577Y-11807868D02*
X12094101Y-11817391D01*
X12094101Y-11817391D02*
X12103625Y-11836439D01*
X12103625Y-11836439D02*
X12113149Y-11874534D01*
X12113149Y-11874534D02*
X12113149Y-11922153D01*
X12113149Y-11922153D02*
X12103625Y-11960248D01*
X12103625Y-11960248D02*
X12094101Y-11979296D01*
X12094101Y-11979296D02*
X12084577Y-11988820D01*
X12084577Y-11988820D02*
X12065530Y-11998344D01*
X12065530Y-11998344D02*
X12046482Y-11998344D01*
X12046482Y-11998344D02*
X12027434Y-11988820D01*
X12027434Y-11988820D02*
X12017911Y-11979296D01*
X12017911Y-11979296D02*
X12008387Y-11960248D01*
X12008387Y-11960248D02*
X11998863Y-11922153D01*
X11998863Y-11922153D02*
X11998863Y-11874534D01*
X11998863Y-11874534D02*
X12008387Y-11836439D01*
X12008387Y-11836439D02*
X12017911Y-11817391D01*
X12017911Y-11817391D02*
X12027434Y-11807868D01*
X12027434Y-11807868D02*
X12046482Y-11798344D01*
X12198863Y-11979296D02*
X12208387Y-11988820D01*
X12208387Y-11988820D02*
X12198863Y-11998344D01*
X12198863Y-11998344D02*
X12189339Y-11988820D01*
X12189339Y-11988820D02*
X12198863Y-11979296D01*
X12198863Y-11979296D02*
X12198863Y-11998344D01*
X12389339Y-11798344D02*
X12294101Y-11798344D01*
X12294101Y-11798344D02*
X12284577Y-11893582D01*
X12284577Y-11893582D02*
X12294101Y-11884058D01*
X12294101Y-11884058D02*
X12313149Y-11874534D01*
X12313149Y-11874534D02*
X12360768Y-11874534D01*
X12360768Y-11874534D02*
X12379815Y-11884058D01*
X12379815Y-11884058D02*
X12389339Y-11893582D01*
X12389339Y-11893582D02*
X12398863Y-11912629D01*
X12398863Y-11912629D02*
X12398863Y-11960248D01*
X12398863Y-11960248D02*
X12389339Y-11979296D01*
X12389339Y-11979296D02*
X12379815Y-11988820D01*
X12379815Y-11988820D02*
X12360768Y-11998344D01*
X12360768Y-11998344D02*
X12313149Y-11998344D01*
X12313149Y-11998344D02*
X12294101Y-11988820D01*
X12294101Y-11988820D02*
X12284577Y-11979296D01*
X12522672Y-11798344D02*
X12541720Y-11798344D01*
X12541720Y-11798344D02*
X12560768Y-11807868D01*
X12560768Y-11807868D02*
X12570292Y-11817391D01*
X12570292Y-11817391D02*
X12579815Y-11836439D01*
X12579815Y-11836439D02*
X12589339Y-11874534D01*
X12589339Y-11874534D02*
X12589339Y-11922153D01*
X12589339Y-11922153D02*
X12579815Y-11960248D01*
X12579815Y-11960248D02*
X12570292Y-11979296D01*
X12570292Y-11979296D02*
X12560768Y-11988820D01*
X12560768Y-11988820D02*
X12541720Y-11998344D01*
X12541720Y-11998344D02*
X12522672Y-11998344D01*
X12522672Y-11998344D02*
X12503625Y-11988820D01*
X12503625Y-11988820D02*
X12494101Y-11979296D01*
X12494101Y-11979296D02*
X12484577Y-11960248D01*
X12484577Y-11960248D02*
X12475053Y-11922153D01*
X12475053Y-11922153D02*
X12475053Y-11874534D01*
X12475053Y-11874534D02*
X12484577Y-11836439D01*
X12484577Y-11836439D02*
X12494101Y-11817391D01*
X12494101Y-11817391D02*
X12503625Y-11807868D01*
X12503625Y-11807868D02*
X12522672Y-11798344D01*
X12703625Y-11884058D02*
X12684577Y-11874534D01*
X12684577Y-11874534D02*
X12675053Y-11865010D01*
X12675053Y-11865010D02*
X12665530Y-11845963D01*
X12665530Y-11845963D02*
X12665530Y-11836439D01*
X12665530Y-11836439D02*
X12675053Y-11817391D01*
X12675053Y-11817391D02*
X12684577Y-11807868D01*
X12684577Y-11807868D02*
X12703625Y-11798344D01*
X12703625Y-11798344D02*
X12741720Y-11798344D01*
X12741720Y-11798344D02*
X12760768Y-11807868D01*
X12760768Y-11807868D02*
X12770292Y-11817391D01*
X12770292Y-11817391D02*
X12779815Y-11836439D01*
X12779815Y-11836439D02*
X12779815Y-11845963D01*
X12779815Y-11845963D02*
X12770292Y-11865010D01*
X12770292Y-11865010D02*
X12760768Y-11874534D01*
X12760768Y-11874534D02*
X12741720Y-11884058D01*
X12741720Y-11884058D02*
X12703625Y-11884058D01*
X12703625Y-11884058D02*
X12684577Y-11893582D01*
X12684577Y-11893582D02*
X12675053Y-11903106D01*
X12675053Y-11903106D02*
X12665530Y-11922153D01*
X12665530Y-11922153D02*
X12665530Y-11960248D01*
X12665530Y-11960248D02*
X12675053Y-11979296D01*
X12675053Y-11979296D02*
X12684577Y-11988820D01*
X12684577Y-11988820D02*
X12703625Y-11998344D01*
X12703625Y-11998344D02*
X12741720Y-11998344D01*
X12741720Y-11998344D02*
X12760768Y-11988820D01*
X12760768Y-11988820D02*
X12770292Y-11979296D01*
X12770292Y-11979296D02*
X12779815Y-11960248D01*
X12779815Y-11960248D02*
X12779815Y-11922153D01*
X12779815Y-11922153D02*
X12770292Y-11903106D01*
X12770292Y-11903106D02*
X12760768Y-11893582D01*
X12760768Y-11893582D02*
X12741720Y-11884058D01*
X12865530Y-11998344D02*
X12865530Y-11865010D01*
X12865530Y-11884058D02*
X12875053Y-11874534D01*
X12875053Y-11874534D02*
X12894101Y-11865010D01*
X12894101Y-11865010D02*
X12922673Y-11865010D01*
X12922673Y-11865010D02*
X12941720Y-11874534D01*
X12941720Y-11874534D02*
X12951244Y-11893582D01*
X12951244Y-11893582D02*
X12951244Y-11998344D01*
X12951244Y-11893582D02*
X12960768Y-11874534D01*
X12960768Y-11874534D02*
X12979815Y-11865010D01*
X12979815Y-11865010D02*
X13008387Y-11865010D01*
X13008387Y-11865010D02*
X13027434Y-11874534D01*
X13027434Y-11874534D02*
X13036958Y-11893582D01*
X13036958Y-11893582D02*
X13036958Y-11998344D01*
X13132196Y-11998344D02*
X13132196Y-11865010D01*
X13132196Y-11884058D02*
X13141720Y-11874534D01*
X13141720Y-11874534D02*
X13160768Y-11865010D01*
X13160768Y-11865010D02*
X13189339Y-11865010D01*
X13189339Y-11865010D02*
X13208387Y-11874534D01*
X13208387Y-11874534D02*
X13217911Y-11893582D01*
X13217911Y-11893582D02*
X13217911Y-11998344D01*
X13217911Y-11893582D02*
X13227434Y-11874534D01*
X13227434Y-11874534D02*
X13246482Y-11865010D01*
X13246482Y-11865010D02*
X13275053Y-11865010D01*
X13275053Y-11865010D02*
X13294101Y-11874534D01*
X13294101Y-11874534D02*
X13303625Y-11893582D01*
X13303625Y-11893582D02*
X13303625Y-11998344D01*
X13694101Y-11788820D02*
X13522673Y-12045963D01*
X13951244Y-11798344D02*
X13970292Y-11798344D01*
X13970292Y-11798344D02*
X13989339Y-11807868D01*
X13989339Y-11807868D02*
X13998863Y-11817391D01*
X13998863Y-11817391D02*
X14008387Y-11836439D01*
X14008387Y-11836439D02*
X14017911Y-11874534D01*
X14017911Y-11874534D02*
X14017911Y-11922153D01*
X14017911Y-11922153D02*
X14008387Y-11960248D01*
X14008387Y-11960248D02*
X13998863Y-11979296D01*
X13998863Y-11979296D02*
X13989339Y-11988820D01*
X13989339Y-11988820D02*
X13970292Y-11998344D01*
X13970292Y-11998344D02*
X13951244Y-11998344D01*
X13951244Y-11998344D02*
X13932196Y-11988820D01*
X13932196Y-11988820D02*
X13922673Y-11979296D01*
X13922673Y-11979296D02*
X13913149Y-11960248D01*
X13913149Y-11960248D02*
X13903625Y-11922153D01*
X13903625Y-11922153D02*
X13903625Y-11874534D01*
X13903625Y-11874534D02*
X13913149Y-11836439D01*
X13913149Y-11836439D02*
X13922673Y-11817391D01*
X13922673Y-11817391D02*
X13932196Y-11807868D01*
X13932196Y-11807868D02*
X13951244Y-11798344D01*
X14103625Y-11979296D02*
X14113149Y-11988820D01*
X14113149Y-11988820D02*
X14103625Y-11998344D01*
X14103625Y-11998344D02*
X14094101Y-11988820D01*
X14094101Y-11988820D02*
X14103625Y-11979296D01*
X14103625Y-11979296D02*
X14103625Y-11998344D01*
X14236958Y-11798344D02*
X14256006Y-11798344D01*
X14256006Y-11798344D02*
X14275054Y-11807868D01*
X14275054Y-11807868D02*
X14284577Y-11817391D01*
X14284577Y-11817391D02*
X14294101Y-11836439D01*
X14294101Y-11836439D02*
X14303625Y-11874534D01*
X14303625Y-11874534D02*
X14303625Y-11922153D01*
X14303625Y-11922153D02*
X14294101Y-11960248D01*
X14294101Y-11960248D02*
X14284577Y-11979296D01*
X14284577Y-11979296D02*
X14275054Y-11988820D01*
X14275054Y-11988820D02*
X14256006Y-11998344D01*
X14256006Y-11998344D02*
X14236958Y-11998344D01*
X14236958Y-11998344D02*
X14217911Y-11988820D01*
X14217911Y-11988820D02*
X14208387Y-11979296D01*
X14208387Y-11979296D02*
X14198863Y-11960248D01*
X14198863Y-11960248D02*
X14189339Y-11922153D01*
X14189339Y-11922153D02*
X14189339Y-11874534D01*
X14189339Y-11874534D02*
X14198863Y-11836439D01*
X14198863Y-11836439D02*
X14208387Y-11817391D01*
X14208387Y-11817391D02*
X14217911Y-11807868D01*
X14217911Y-11807868D02*
X14236958Y-11798344D01*
X14379816Y-11817391D02*
X14389339Y-11807868D01*
X14389339Y-11807868D02*
X14408387Y-11798344D01*
X14408387Y-11798344D02*
X14456006Y-11798344D01*
X14456006Y-11798344D02*
X14475054Y-11807868D01*
X14475054Y-11807868D02*
X14484577Y-11817391D01*
X14484577Y-11817391D02*
X14494101Y-11836439D01*
X14494101Y-11836439D02*
X14494101Y-11855487D01*
X14494101Y-11855487D02*
X14484577Y-11884058D01*
X14484577Y-11884058D02*
X14370292Y-11998344D01*
X14370292Y-11998344D02*
X14494101Y-11998344D01*
X14617911Y-11798344D02*
X14636958Y-11798344D01*
X14636958Y-11798344D02*
X14656006Y-11807868D01*
X14656006Y-11807868D02*
X14665530Y-11817391D01*
X14665530Y-11817391D02*
X14675054Y-11836439D01*
X14675054Y-11836439D02*
X14684577Y-11874534D01*
X14684577Y-11874534D02*
X14684577Y-11922153D01*
X14684577Y-11922153D02*
X14675054Y-11960248D01*
X14675054Y-11960248D02*
X14665530Y-11979296D01*
X14665530Y-11979296D02*
X14656006Y-11988820D01*
X14656006Y-11988820D02*
X14636958Y-11998344D01*
X14636958Y-11998344D02*
X14617911Y-11998344D01*
X14617911Y-11998344D02*
X14598863Y-11988820D01*
X14598863Y-11988820D02*
X14589339Y-11979296D01*
X14589339Y-11979296D02*
X14579816Y-11960248D01*
X14579816Y-11960248D02*
X14570292Y-11922153D01*
X14570292Y-11922153D02*
X14570292Y-11874534D01*
X14570292Y-11874534D02*
X14579816Y-11836439D01*
X14579816Y-11836439D02*
X14589339Y-11817391D01*
X14589339Y-11817391D02*
X14598863Y-11807868D01*
X14598863Y-11807868D02*
X14617911Y-11798344D01*
X14808387Y-11798344D02*
X14827435Y-11798344D01*
X14827435Y-11798344D02*
X14846482Y-11807868D01*
X14846482Y-11807868D02*
X14856006Y-11817391D01*
X14856006Y-11817391D02*
X14865530Y-11836439D01*
X14865530Y-11836439D02*
X14875054Y-11874534D01*
X14875054Y-11874534D02*
X14875054Y-11922153D01*
X14875054Y-11922153D02*
X14865530Y-11960248D01*
X14865530Y-11960248D02*
X14856006Y-11979296D01*
X14856006Y-11979296D02*
X14846482Y-11988820D01*
X14846482Y-11988820D02*
X14827435Y-11998344D01*
X14827435Y-11998344D02*
X14808387Y-11998344D01*
X14808387Y-11998344D02*
X14789339Y-11988820D01*
X14789339Y-11988820D02*
X14779816Y-11979296D01*
X14779816Y-11979296D02*
X14770292Y-11960248D01*
X14770292Y-11960248D02*
X14760768Y-11922153D01*
X14760768Y-11922153D02*
X14760768Y-11874534D01*
X14760768Y-11874534D02*
X14770292Y-11836439D01*
X14770292Y-11836439D02*
X14779816Y-11817391D01*
X14779816Y-11817391D02*
X14789339Y-11807868D01*
X14789339Y-11807868D02*
X14808387Y-11798344D01*
X14951244Y-11798344D02*
X14951244Y-11836439D01*
X15027435Y-11798344D02*
X15027435Y-11836439D01*
X15322673Y-12074534D02*
X15313149Y-12065010D01*
X15313149Y-12065010D02*
X15294101Y-12036439D01*
X15294101Y-12036439D02*
X15284578Y-12017391D01*
X15284578Y-12017391D02*
X15275054Y-11988820D01*
X15275054Y-11988820D02*
X15265530Y-11941201D01*
X15265530Y-11941201D02*
X15265530Y-11903106D01*
X15265530Y-11903106D02*
X15275054Y-11855487D01*
X15275054Y-11855487D02*
X15284578Y-11826915D01*
X15284578Y-11826915D02*
X15294101Y-11807868D01*
X15294101Y-11807868D02*
X15313149Y-11779296D01*
X15313149Y-11779296D02*
X15322673Y-11769772D01*
X15389339Y-11817391D02*
X15398863Y-11807868D01*
X15398863Y-11807868D02*
X15417911Y-11798344D01*
X15417911Y-11798344D02*
X15465530Y-11798344D01*
X15465530Y-11798344D02*
X15484578Y-11807868D01*
X15484578Y-11807868D02*
X15494101Y-11817391D01*
X15494101Y-11817391D02*
X15503625Y-11836439D01*
X15503625Y-11836439D02*
X15503625Y-11855487D01*
X15503625Y-11855487D02*
X15494101Y-11884058D01*
X15494101Y-11884058D02*
X15379816Y-11998344D01*
X15379816Y-11998344D02*
X15503625Y-11998344D01*
X15627435Y-11798344D02*
X15646482Y-11798344D01*
X15646482Y-11798344D02*
X15665530Y-11807868D01*
X15665530Y-11807868D02*
X15675054Y-11817391D01*
X15675054Y-11817391D02*
X15684578Y-11836439D01*
X15684578Y-11836439D02*
X15694101Y-11874534D01*
X15694101Y-11874534D02*
X15694101Y-11922153D01*
X15694101Y-11922153D02*
X15684578Y-11960248D01*
X15684578Y-11960248D02*
X15675054Y-11979296D01*
X15675054Y-11979296D02*
X15665530Y-11988820D01*
X15665530Y-11988820D02*
X15646482Y-11998344D01*
X15646482Y-11998344D02*
X15627435Y-11998344D01*
X15627435Y-11998344D02*
X15608387Y-11988820D01*
X15608387Y-11988820D02*
X15598863Y-11979296D01*
X15598863Y-11979296D02*
X15589339Y-11960248D01*
X15589339Y-11960248D02*
X15579816Y-11922153D01*
X15579816Y-11922153D02*
X15579816Y-11874534D01*
X15579816Y-11874534D02*
X15589339Y-11836439D01*
X15589339Y-11836439D02*
X15598863Y-11817391D01*
X15598863Y-11817391D02*
X15608387Y-11807868D01*
X15608387Y-11807868D02*
X15627435Y-11798344D01*
X15932197Y-11998344D02*
X15932197Y-11798344D01*
X16017911Y-11998344D02*
X16017911Y-11893582D01*
X16017911Y-11893582D02*
X16008387Y-11874534D01*
X16008387Y-11874534D02*
X15989340Y-11865010D01*
X15989340Y-11865010D02*
X15960768Y-11865010D01*
X15960768Y-11865010D02*
X15941720Y-11874534D01*
X15941720Y-11874534D02*
X15932197Y-11884058D01*
X16141720Y-11998344D02*
X16122673Y-11988820D01*
X16122673Y-11988820D02*
X16113149Y-11979296D01*
X16113149Y-11979296D02*
X16103625Y-11960248D01*
X16103625Y-11960248D02*
X16103625Y-11903106D01*
X16103625Y-11903106D02*
X16113149Y-11884058D01*
X16113149Y-11884058D02*
X16122673Y-11874534D01*
X16122673Y-11874534D02*
X16141720Y-11865010D01*
X16141720Y-11865010D02*
X16170292Y-11865010D01*
X16170292Y-11865010D02*
X16189340Y-11874534D01*
X16189340Y-11874534D02*
X16198863Y-11884058D01*
X16198863Y-11884058D02*
X16208387Y-11903106D01*
X16208387Y-11903106D02*
X16208387Y-11960248D01*
X16208387Y-11960248D02*
X16198863Y-11979296D01*
X16198863Y-11979296D02*
X16189340Y-11988820D01*
X16189340Y-11988820D02*
X16170292Y-11998344D01*
X16170292Y-11998344D02*
X16141720Y-11998344D01*
X16322673Y-11998344D02*
X16303625Y-11988820D01*
X16303625Y-11988820D02*
X16294101Y-11969772D01*
X16294101Y-11969772D02*
X16294101Y-11798344D01*
X16475054Y-11988820D02*
X16456006Y-11998344D01*
X16456006Y-11998344D02*
X16417911Y-11998344D01*
X16417911Y-11998344D02*
X16398863Y-11988820D01*
X16398863Y-11988820D02*
X16389340Y-11969772D01*
X16389340Y-11969772D02*
X16389340Y-11893582D01*
X16389340Y-11893582D02*
X16398863Y-11874534D01*
X16398863Y-11874534D02*
X16417911Y-11865010D01*
X16417911Y-11865010D02*
X16456006Y-11865010D01*
X16456006Y-11865010D02*
X16475054Y-11874534D01*
X16475054Y-11874534D02*
X16484578Y-11893582D01*
X16484578Y-11893582D02*
X16484578Y-11912629D01*
X16484578Y-11912629D02*
X16389340Y-11931677D01*
X16560768Y-11988820D02*
X16579816Y-11998344D01*
X16579816Y-11998344D02*
X16617911Y-11998344D01*
X16617911Y-11998344D02*
X16636959Y-11988820D01*
X16636959Y-11988820D02*
X16646482Y-11969772D01*
X16646482Y-11969772D02*
X16646482Y-11960248D01*
X16646482Y-11960248D02*
X16636959Y-11941201D01*
X16636959Y-11941201D02*
X16617911Y-11931677D01*
X16617911Y-11931677D02*
X16589340Y-11931677D01*
X16589340Y-11931677D02*
X16570292Y-11922153D01*
X16570292Y-11922153D02*
X16560768Y-11903106D01*
X16560768Y-11903106D02*
X16560768Y-11893582D01*
X16560768Y-11893582D02*
X16570292Y-11874534D01*
X16570292Y-11874534D02*
X16589340Y-11865010D01*
X16589340Y-11865010D02*
X16617911Y-11865010D01*
X16617911Y-11865010D02*
X16636959Y-11874534D01*
X16713149Y-12074534D02*
X16722673Y-12065010D01*
X16722673Y-12065010D02*
X16741721Y-12036439D01*
X16741721Y-12036439D02*
X16751244Y-12017391D01*
X16751244Y-12017391D02*
X16760768Y-11988820D01*
X16760768Y-11988820D02*
X16770292Y-11941201D01*
X16770292Y-11941201D02*
X16770292Y-11903106D01*
X16770292Y-11903106D02*
X16760768Y-11855487D01*
X16760768Y-11855487D02*
X16751244Y-11826915D01*
X16751244Y-11826915D02*
X16741721Y-11807868D01*
X16741721Y-11807868D02*
X16722673Y-11779296D01*
X16722673Y-11779296D02*
X16713149Y-11769772D01*
D14*
X11718400Y-12141650D02*
X11718400Y-12200070D01*
X11689190Y-12170860D02*
X11747610Y-12170860D01*
D11*
X12046482Y-12062344D02*
X12065530Y-12062344D01*
X12065530Y-12062344D02*
X12084577Y-12071868D01*
X12084577Y-12071868D02*
X12094101Y-12081391D01*
X12094101Y-12081391D02*
X12103625Y-12100439D01*
X12103625Y-12100439D02*
X12113149Y-12138534D01*
X12113149Y-12138534D02*
X12113149Y-12186153D01*
X12113149Y-12186153D02*
X12103625Y-12224248D01*
X12103625Y-12224248D02*
X12094101Y-12243296D01*
X12094101Y-12243296D02*
X12084577Y-12252820D01*
X12084577Y-12252820D02*
X12065530Y-12262344D01*
X12065530Y-12262344D02*
X12046482Y-12262344D01*
X12046482Y-12262344D02*
X12027434Y-12252820D01*
X12027434Y-12252820D02*
X12017911Y-12243296D01*
X12017911Y-12243296D02*
X12008387Y-12224248D01*
X12008387Y-12224248D02*
X11998863Y-12186153D01*
X11998863Y-12186153D02*
X11998863Y-12138534D01*
X11998863Y-12138534D02*
X12008387Y-12100439D01*
X12008387Y-12100439D02*
X12017911Y-12081391D01*
X12017911Y-12081391D02*
X12027434Y-12071868D01*
X12027434Y-12071868D02*
X12046482Y-12062344D01*
X12198863Y-12243296D02*
X12208387Y-12252820D01*
X12208387Y-12252820D02*
X12198863Y-12262344D01*
X12198863Y-12262344D02*
X12189339Y-12252820D01*
X12189339Y-12252820D02*
X12198863Y-12243296D01*
X12198863Y-12243296D02*
X12198863Y-12262344D01*
X12389339Y-12062344D02*
X12294101Y-12062344D01*
X12294101Y-12062344D02*
X12284577Y-12157582D01*
X12284577Y-12157582D02*
X12294101Y-12148058D01*
X12294101Y-12148058D02*
X12313149Y-12138534D01*
X12313149Y-12138534D02*
X12360768Y-12138534D01*
X12360768Y-12138534D02*
X12379815Y-12148058D01*
X12379815Y-12148058D02*
X12389339Y-12157582D01*
X12389339Y-12157582D02*
X12398863Y-12176629D01*
X12398863Y-12176629D02*
X12398863Y-12224248D01*
X12398863Y-12224248D02*
X12389339Y-12243296D01*
X12389339Y-12243296D02*
X12379815Y-12252820D01*
X12379815Y-12252820D02*
X12360768Y-12262344D01*
X12360768Y-12262344D02*
X12313149Y-12262344D01*
X12313149Y-12262344D02*
X12294101Y-12252820D01*
X12294101Y-12252820D02*
X12284577Y-12243296D01*
X12513149Y-12148058D02*
X12494101Y-12138534D01*
X12494101Y-12138534D02*
X12484577Y-12129010D01*
X12484577Y-12129010D02*
X12475053Y-12109963D01*
X12475053Y-12109963D02*
X12475053Y-12100439D01*
X12475053Y-12100439D02*
X12484577Y-12081391D01*
X12484577Y-12081391D02*
X12494101Y-12071868D01*
X12494101Y-12071868D02*
X12513149Y-12062344D01*
X12513149Y-12062344D02*
X12551244Y-12062344D01*
X12551244Y-12062344D02*
X12570292Y-12071868D01*
X12570292Y-12071868D02*
X12579815Y-12081391D01*
X12579815Y-12081391D02*
X12589339Y-12100439D01*
X12589339Y-12100439D02*
X12589339Y-12109963D01*
X12589339Y-12109963D02*
X12579815Y-12129010D01*
X12579815Y-12129010D02*
X12570292Y-12138534D01*
X12570292Y-12138534D02*
X12551244Y-12148058D01*
X12551244Y-12148058D02*
X12513149Y-12148058D01*
X12513149Y-12148058D02*
X12494101Y-12157582D01*
X12494101Y-12157582D02*
X12484577Y-12167106D01*
X12484577Y-12167106D02*
X12475053Y-12186153D01*
X12475053Y-12186153D02*
X12475053Y-12224248D01*
X12475053Y-12224248D02*
X12484577Y-12243296D01*
X12484577Y-12243296D02*
X12494101Y-12252820D01*
X12494101Y-12252820D02*
X12513149Y-12262344D01*
X12513149Y-12262344D02*
X12551244Y-12262344D01*
X12551244Y-12262344D02*
X12570292Y-12252820D01*
X12570292Y-12252820D02*
X12579815Y-12243296D01*
X12579815Y-12243296D02*
X12589339Y-12224248D01*
X12589339Y-12224248D02*
X12589339Y-12186153D01*
X12589339Y-12186153D02*
X12579815Y-12167106D01*
X12579815Y-12167106D02*
X12570292Y-12157582D01*
X12570292Y-12157582D02*
X12551244Y-12148058D01*
X12760768Y-12129010D02*
X12760768Y-12262344D01*
X12713149Y-12052820D02*
X12665530Y-12195677D01*
X12665530Y-12195677D02*
X12789339Y-12195677D01*
X12865530Y-12262344D02*
X12865530Y-12129010D01*
X12865530Y-12148058D02*
X12875053Y-12138534D01*
X12875053Y-12138534D02*
X12894101Y-12129010D01*
X12894101Y-12129010D02*
X12922673Y-12129010D01*
X12922673Y-12129010D02*
X12941720Y-12138534D01*
X12941720Y-12138534D02*
X12951244Y-12157582D01*
X12951244Y-12157582D02*
X12951244Y-12262344D01*
X12951244Y-12157582D02*
X12960768Y-12138534D01*
X12960768Y-12138534D02*
X12979815Y-12129010D01*
X12979815Y-12129010D02*
X13008387Y-12129010D01*
X13008387Y-12129010D02*
X13027434Y-12138534D01*
X13027434Y-12138534D02*
X13036958Y-12157582D01*
X13036958Y-12157582D02*
X13036958Y-12262344D01*
X13132196Y-12262344D02*
X13132196Y-12129010D01*
X13132196Y-12148058D02*
X13141720Y-12138534D01*
X13141720Y-12138534D02*
X13160768Y-12129010D01*
X13160768Y-12129010D02*
X13189339Y-12129010D01*
X13189339Y-12129010D02*
X13208387Y-12138534D01*
X13208387Y-12138534D02*
X13217911Y-12157582D01*
X13217911Y-12157582D02*
X13217911Y-12262344D01*
X13217911Y-12157582D02*
X13227434Y-12138534D01*
X13227434Y-12138534D02*
X13246482Y-12129010D01*
X13246482Y-12129010D02*
X13275053Y-12129010D01*
X13275053Y-12129010D02*
X13294101Y-12138534D01*
X13294101Y-12138534D02*
X13303625Y-12157582D01*
X13303625Y-12157582D02*
X13303625Y-12262344D01*
X13694101Y-12052820D02*
X13522673Y-12309963D01*
X13951244Y-12062344D02*
X13970292Y-12062344D01*
X13970292Y-12062344D02*
X13989339Y-12071868D01*
X13989339Y-12071868D02*
X13998863Y-12081391D01*
X13998863Y-12081391D02*
X14008387Y-12100439D01*
X14008387Y-12100439D02*
X14017911Y-12138534D01*
X14017911Y-12138534D02*
X14017911Y-12186153D01*
X14017911Y-12186153D02*
X14008387Y-12224248D01*
X14008387Y-12224248D02*
X13998863Y-12243296D01*
X13998863Y-12243296D02*
X13989339Y-12252820D01*
X13989339Y-12252820D02*
X13970292Y-12262344D01*
X13970292Y-12262344D02*
X13951244Y-12262344D01*
X13951244Y-12262344D02*
X13932196Y-12252820D01*
X13932196Y-12252820D02*
X13922673Y-12243296D01*
X13922673Y-12243296D02*
X13913149Y-12224248D01*
X13913149Y-12224248D02*
X13903625Y-12186153D01*
X13903625Y-12186153D02*
X13903625Y-12138534D01*
X13903625Y-12138534D02*
X13913149Y-12100439D01*
X13913149Y-12100439D02*
X13922673Y-12081391D01*
X13922673Y-12081391D02*
X13932196Y-12071868D01*
X13932196Y-12071868D02*
X13951244Y-12062344D01*
X14103625Y-12243296D02*
X14113149Y-12252820D01*
X14113149Y-12252820D02*
X14103625Y-12262344D01*
X14103625Y-12262344D02*
X14094101Y-12252820D01*
X14094101Y-12252820D02*
X14103625Y-12243296D01*
X14103625Y-12243296D02*
X14103625Y-12262344D01*
X14236958Y-12062344D02*
X14256006Y-12062344D01*
X14256006Y-12062344D02*
X14275054Y-12071868D01*
X14275054Y-12071868D02*
X14284577Y-12081391D01*
X14284577Y-12081391D02*
X14294101Y-12100439D01*
X14294101Y-12100439D02*
X14303625Y-12138534D01*
X14303625Y-12138534D02*
X14303625Y-12186153D01*
X14303625Y-12186153D02*
X14294101Y-12224248D01*
X14294101Y-12224248D02*
X14284577Y-12243296D01*
X14284577Y-12243296D02*
X14275054Y-12252820D01*
X14275054Y-12252820D02*
X14256006Y-12262344D01*
X14256006Y-12262344D02*
X14236958Y-12262344D01*
X14236958Y-12262344D02*
X14217911Y-12252820D01*
X14217911Y-12252820D02*
X14208387Y-12243296D01*
X14208387Y-12243296D02*
X14198863Y-12224248D01*
X14198863Y-12224248D02*
X14189339Y-12186153D01*
X14189339Y-12186153D02*
X14189339Y-12138534D01*
X14189339Y-12138534D02*
X14198863Y-12100439D01*
X14198863Y-12100439D02*
X14208387Y-12081391D01*
X14208387Y-12081391D02*
X14217911Y-12071868D01*
X14217911Y-12071868D02*
X14236958Y-12062344D01*
X14379816Y-12081391D02*
X14389339Y-12071868D01*
X14389339Y-12071868D02*
X14408387Y-12062344D01*
X14408387Y-12062344D02*
X14456006Y-12062344D01*
X14456006Y-12062344D02*
X14475054Y-12071868D01*
X14475054Y-12071868D02*
X14484577Y-12081391D01*
X14484577Y-12081391D02*
X14494101Y-12100439D01*
X14494101Y-12100439D02*
X14494101Y-12119487D01*
X14494101Y-12119487D02*
X14484577Y-12148058D01*
X14484577Y-12148058D02*
X14370292Y-12262344D01*
X14370292Y-12262344D02*
X14494101Y-12262344D01*
X14560768Y-12062344D02*
X14684577Y-12062344D01*
X14684577Y-12062344D02*
X14617911Y-12138534D01*
X14617911Y-12138534D02*
X14646482Y-12138534D01*
X14646482Y-12138534D02*
X14665530Y-12148058D01*
X14665530Y-12148058D02*
X14675054Y-12157582D01*
X14675054Y-12157582D02*
X14684577Y-12176629D01*
X14684577Y-12176629D02*
X14684577Y-12224248D01*
X14684577Y-12224248D02*
X14675054Y-12243296D01*
X14675054Y-12243296D02*
X14665530Y-12252820D01*
X14665530Y-12252820D02*
X14646482Y-12262344D01*
X14646482Y-12262344D02*
X14589339Y-12262344D01*
X14589339Y-12262344D02*
X14570292Y-12252820D01*
X14570292Y-12252820D02*
X14560768Y-12243296D01*
X14808387Y-12062344D02*
X14827435Y-12062344D01*
X14827435Y-12062344D02*
X14846482Y-12071868D01*
X14846482Y-12071868D02*
X14856006Y-12081391D01*
X14856006Y-12081391D02*
X14865530Y-12100439D01*
X14865530Y-12100439D02*
X14875054Y-12138534D01*
X14875054Y-12138534D02*
X14875054Y-12186153D01*
X14875054Y-12186153D02*
X14865530Y-12224248D01*
X14865530Y-12224248D02*
X14856006Y-12243296D01*
X14856006Y-12243296D02*
X14846482Y-12252820D01*
X14846482Y-12252820D02*
X14827435Y-12262344D01*
X14827435Y-12262344D02*
X14808387Y-12262344D01*
X14808387Y-12262344D02*
X14789339Y-12252820D01*
X14789339Y-12252820D02*
X14779816Y-12243296D01*
X14779816Y-12243296D02*
X14770292Y-12224248D01*
X14770292Y-12224248D02*
X14760768Y-12186153D01*
X14760768Y-12186153D02*
X14760768Y-12138534D01*
X14760768Y-12138534D02*
X14770292Y-12100439D01*
X14770292Y-12100439D02*
X14779816Y-12081391D01*
X14779816Y-12081391D02*
X14789339Y-12071868D01*
X14789339Y-12071868D02*
X14808387Y-12062344D01*
X14951244Y-12062344D02*
X14951244Y-12100439D01*
X15027435Y-12062344D02*
X15027435Y-12100439D01*
X15322673Y-12338534D02*
X15313149Y-12329010D01*
X15313149Y-12329010D02*
X15294101Y-12300439D01*
X15294101Y-12300439D02*
X15284578Y-12281391D01*
X15284578Y-12281391D02*
X15275054Y-12252820D01*
X15275054Y-12252820D02*
X15265530Y-12205201D01*
X15265530Y-12205201D02*
X15265530Y-12167106D01*
X15265530Y-12167106D02*
X15275054Y-12119487D01*
X15275054Y-12119487D02*
X15284578Y-12090915D01*
X15284578Y-12090915D02*
X15294101Y-12071868D01*
X15294101Y-12071868D02*
X15313149Y-12043296D01*
X15313149Y-12043296D02*
X15322673Y-12033772D01*
X15379816Y-12062344D02*
X15503625Y-12062344D01*
X15503625Y-12062344D02*
X15436958Y-12138534D01*
X15436958Y-12138534D02*
X15465530Y-12138534D01*
X15465530Y-12138534D02*
X15484578Y-12148058D01*
X15484578Y-12148058D02*
X15494101Y-12157582D01*
X15494101Y-12157582D02*
X15503625Y-12176629D01*
X15503625Y-12176629D02*
X15503625Y-12224248D01*
X15503625Y-12224248D02*
X15494101Y-12243296D01*
X15494101Y-12243296D02*
X15484578Y-12252820D01*
X15484578Y-12252820D02*
X15465530Y-12262344D01*
X15465530Y-12262344D02*
X15408387Y-12262344D01*
X15408387Y-12262344D02*
X15389339Y-12252820D01*
X15389339Y-12252820D02*
X15379816Y-12243296D01*
X15741720Y-12262344D02*
X15741720Y-12062344D01*
X15827435Y-12262344D02*
X15827435Y-12157582D01*
X15827435Y-12157582D02*
X15817911Y-12138534D01*
X15817911Y-12138534D02*
X15798863Y-12129010D01*
X15798863Y-12129010D02*
X15770292Y-12129010D01*
X15770292Y-12129010D02*
X15751244Y-12138534D01*
X15751244Y-12138534D02*
X15741720Y-12148058D01*
X15951244Y-12262344D02*
X15932197Y-12252820D01*
X15932197Y-12252820D02*
X15922673Y-12243296D01*
X15922673Y-12243296D02*
X15913149Y-12224248D01*
X15913149Y-12224248D02*
X15913149Y-12167106D01*
X15913149Y-12167106D02*
X15922673Y-12148058D01*
X15922673Y-12148058D02*
X15932197Y-12138534D01*
X15932197Y-12138534D02*
X15951244Y-12129010D01*
X15951244Y-12129010D02*
X15979816Y-12129010D01*
X15979816Y-12129010D02*
X15998863Y-12138534D01*
X15998863Y-12138534D02*
X16008387Y-12148058D01*
X16008387Y-12148058D02*
X16017911Y-12167106D01*
X16017911Y-12167106D02*
X16017911Y-12224248D01*
X16017911Y-12224248D02*
X16008387Y-12243296D01*
X16008387Y-12243296D02*
X15998863Y-12252820D01*
X15998863Y-12252820D02*
X15979816Y-12262344D01*
X15979816Y-12262344D02*
X15951244Y-12262344D01*
X16132197Y-12262344D02*
X16113149Y-12252820D01*
X16113149Y-12252820D02*
X16103625Y-12233772D01*
X16103625Y-12233772D02*
X16103625Y-12062344D01*
X16284578Y-12252820D02*
X16265530Y-12262344D01*
X16265530Y-12262344D02*
X16227435Y-12262344D01*
X16227435Y-12262344D02*
X16208387Y-12252820D01*
X16208387Y-12252820D02*
X16198863Y-12233772D01*
X16198863Y-12233772D02*
X16198863Y-12157582D01*
X16198863Y-12157582D02*
X16208387Y-12138534D01*
X16208387Y-12138534D02*
X16227435Y-12129010D01*
X16227435Y-12129010D02*
X16265530Y-12129010D01*
X16265530Y-12129010D02*
X16284578Y-12138534D01*
X16284578Y-12138534D02*
X16294101Y-12157582D01*
X16294101Y-12157582D02*
X16294101Y-12176629D01*
X16294101Y-12176629D02*
X16198863Y-12195677D01*
X16370292Y-12252820D02*
X16389340Y-12262344D01*
X16389340Y-12262344D02*
X16427435Y-12262344D01*
X16427435Y-12262344D02*
X16446482Y-12252820D01*
X16446482Y-12252820D02*
X16456006Y-12233772D01*
X16456006Y-12233772D02*
X16456006Y-12224248D01*
X16456006Y-12224248D02*
X16446482Y-12205201D01*
X16446482Y-12205201D02*
X16427435Y-12195677D01*
X16427435Y-12195677D02*
X16398863Y-12195677D01*
X16398863Y-12195677D02*
X16379816Y-12186153D01*
X16379816Y-12186153D02*
X16370292Y-12167106D01*
X16370292Y-12167106D02*
X16370292Y-12157582D01*
X16370292Y-12157582D02*
X16379816Y-12138534D01*
X16379816Y-12138534D02*
X16398863Y-12129010D01*
X16398863Y-12129010D02*
X16427435Y-12129010D01*
X16427435Y-12129010D02*
X16446482Y-12138534D01*
X16522673Y-12338534D02*
X16532197Y-12329010D01*
X16532197Y-12329010D02*
X16551244Y-12300439D01*
X16551244Y-12300439D02*
X16560768Y-12281391D01*
X16560768Y-12281391D02*
X16570292Y-12252820D01*
X16570292Y-12252820D02*
X16579816Y-12205201D01*
X16579816Y-12205201D02*
X16579816Y-12167106D01*
X16579816Y-12167106D02*
X16570292Y-12119487D01*
X16570292Y-12119487D02*
X16560768Y-12090915D01*
X16560768Y-12090915D02*
X16551244Y-12071868D01*
X16551244Y-12071868D02*
X16532197Y-12043296D01*
X16532197Y-12043296D02*
X16522673Y-12033772D01*
D15*
X11737195Y-12460005D02*
X11737195Y-12409715D01*
X11686905Y-12409715D01*
X11686905Y-12460005D01*
X11737195Y-12460005D01*
D11*
X12046482Y-12326344D02*
X12065530Y-12326344D01*
X12065530Y-12326344D02*
X12084577Y-12335868D01*
X12084577Y-12335868D02*
X12094101Y-12345391D01*
X12094101Y-12345391D02*
X12103625Y-12364439D01*
X12103625Y-12364439D02*
X12113149Y-12402534D01*
X12113149Y-12402534D02*
X12113149Y-12450153D01*
X12113149Y-12450153D02*
X12103625Y-12488248D01*
X12103625Y-12488248D02*
X12094101Y-12507296D01*
X12094101Y-12507296D02*
X12084577Y-12516820D01*
X12084577Y-12516820D02*
X12065530Y-12526344D01*
X12065530Y-12526344D02*
X12046482Y-12526344D01*
X12046482Y-12526344D02*
X12027434Y-12516820D01*
X12027434Y-12516820D02*
X12017911Y-12507296D01*
X12017911Y-12507296D02*
X12008387Y-12488248D01*
X12008387Y-12488248D02*
X11998863Y-12450153D01*
X11998863Y-12450153D02*
X11998863Y-12402534D01*
X11998863Y-12402534D02*
X12008387Y-12364439D01*
X12008387Y-12364439D02*
X12017911Y-12345391D01*
X12017911Y-12345391D02*
X12027434Y-12335868D01*
X12027434Y-12335868D02*
X12046482Y-12326344D01*
X12198863Y-12507296D02*
X12208387Y-12516820D01*
X12208387Y-12516820D02*
X12198863Y-12526344D01*
X12198863Y-12526344D02*
X12189339Y-12516820D01*
X12189339Y-12516820D02*
X12198863Y-12507296D01*
X12198863Y-12507296D02*
X12198863Y-12526344D01*
X12275053Y-12326344D02*
X12408387Y-12326344D01*
X12408387Y-12326344D02*
X12322672Y-12526344D01*
X12589339Y-12526344D02*
X12475053Y-12526344D01*
X12532196Y-12526344D02*
X12532196Y-12326344D01*
X12532196Y-12326344D02*
X12513149Y-12354915D01*
X12513149Y-12354915D02*
X12494101Y-12373963D01*
X12494101Y-12373963D02*
X12475053Y-12383487D01*
X12779815Y-12526344D02*
X12665530Y-12526344D01*
X12722672Y-12526344D02*
X12722672Y-12326344D01*
X12722672Y-12326344D02*
X12703625Y-12354915D01*
X12703625Y-12354915D02*
X12684577Y-12373963D01*
X12684577Y-12373963D02*
X12665530Y-12383487D01*
X12865530Y-12526344D02*
X12865530Y-12393010D01*
X12865530Y-12412058D02*
X12875053Y-12402534D01*
X12875053Y-12402534D02*
X12894101Y-12393010D01*
X12894101Y-12393010D02*
X12922673Y-12393010D01*
X12922673Y-12393010D02*
X12941720Y-12402534D01*
X12941720Y-12402534D02*
X12951244Y-12421582D01*
X12951244Y-12421582D02*
X12951244Y-12526344D01*
X12951244Y-12421582D02*
X12960768Y-12402534D01*
X12960768Y-12402534D02*
X12979815Y-12393010D01*
X12979815Y-12393010D02*
X13008387Y-12393010D01*
X13008387Y-12393010D02*
X13027434Y-12402534D01*
X13027434Y-12402534D02*
X13036958Y-12421582D01*
X13036958Y-12421582D02*
X13036958Y-12526344D01*
X13132196Y-12526344D02*
X13132196Y-12393010D01*
X13132196Y-12412058D02*
X13141720Y-12402534D01*
X13141720Y-12402534D02*
X13160768Y-12393010D01*
X13160768Y-12393010D02*
X13189339Y-12393010D01*
X13189339Y-12393010D02*
X13208387Y-12402534D01*
X13208387Y-12402534D02*
X13217911Y-12421582D01*
X13217911Y-12421582D02*
X13217911Y-12526344D01*
X13217911Y-12421582D02*
X13227434Y-12402534D01*
X13227434Y-12402534D02*
X13246482Y-12393010D01*
X13246482Y-12393010D02*
X13275053Y-12393010D01*
X13275053Y-12393010D02*
X13294101Y-12402534D01*
X13294101Y-12402534D02*
X13303625Y-12421582D01*
X13303625Y-12421582D02*
X13303625Y-12526344D01*
X13694101Y-12316820D02*
X13522673Y-12573963D01*
X13951244Y-12326344D02*
X13970292Y-12326344D01*
X13970292Y-12326344D02*
X13989339Y-12335868D01*
X13989339Y-12335868D02*
X13998863Y-12345391D01*
X13998863Y-12345391D02*
X14008387Y-12364439D01*
X14008387Y-12364439D02*
X14017911Y-12402534D01*
X14017911Y-12402534D02*
X14017911Y-12450153D01*
X14017911Y-12450153D02*
X14008387Y-12488248D01*
X14008387Y-12488248D02*
X13998863Y-12507296D01*
X13998863Y-12507296D02*
X13989339Y-12516820D01*
X13989339Y-12516820D02*
X13970292Y-12526344D01*
X13970292Y-12526344D02*
X13951244Y-12526344D01*
X13951244Y-12526344D02*
X13932196Y-12516820D01*
X13932196Y-12516820D02*
X13922673Y-12507296D01*
X13922673Y-12507296D02*
X13913149Y-12488248D01*
X13913149Y-12488248D02*
X13903625Y-12450153D01*
X13903625Y-12450153D02*
X13903625Y-12402534D01*
X13903625Y-12402534D02*
X13913149Y-12364439D01*
X13913149Y-12364439D02*
X13922673Y-12345391D01*
X13922673Y-12345391D02*
X13932196Y-12335868D01*
X13932196Y-12335868D02*
X13951244Y-12326344D01*
X14103625Y-12507296D02*
X14113149Y-12516820D01*
X14113149Y-12516820D02*
X14103625Y-12526344D01*
X14103625Y-12526344D02*
X14094101Y-12516820D01*
X14094101Y-12516820D02*
X14103625Y-12507296D01*
X14103625Y-12507296D02*
X14103625Y-12526344D01*
X14236958Y-12326344D02*
X14256006Y-12326344D01*
X14256006Y-12326344D02*
X14275054Y-12335868D01*
X14275054Y-12335868D02*
X14284577Y-12345391D01*
X14284577Y-12345391D02*
X14294101Y-12364439D01*
X14294101Y-12364439D02*
X14303625Y-12402534D01*
X14303625Y-12402534D02*
X14303625Y-12450153D01*
X14303625Y-12450153D02*
X14294101Y-12488248D01*
X14294101Y-12488248D02*
X14284577Y-12507296D01*
X14284577Y-12507296D02*
X14275054Y-12516820D01*
X14275054Y-12516820D02*
X14256006Y-12526344D01*
X14256006Y-12526344D02*
X14236958Y-12526344D01*
X14236958Y-12526344D02*
X14217911Y-12516820D01*
X14217911Y-12516820D02*
X14208387Y-12507296D01*
X14208387Y-12507296D02*
X14198863Y-12488248D01*
X14198863Y-12488248D02*
X14189339Y-12450153D01*
X14189339Y-12450153D02*
X14189339Y-12402534D01*
X14189339Y-12402534D02*
X14198863Y-12364439D01*
X14198863Y-12364439D02*
X14208387Y-12345391D01*
X14208387Y-12345391D02*
X14217911Y-12335868D01*
X14217911Y-12335868D02*
X14236958Y-12326344D01*
X14379816Y-12345391D02*
X14389339Y-12335868D01*
X14389339Y-12335868D02*
X14408387Y-12326344D01*
X14408387Y-12326344D02*
X14456006Y-12326344D01*
X14456006Y-12326344D02*
X14475054Y-12335868D01*
X14475054Y-12335868D02*
X14484577Y-12345391D01*
X14484577Y-12345391D02*
X14494101Y-12364439D01*
X14494101Y-12364439D02*
X14494101Y-12383487D01*
X14494101Y-12383487D02*
X14484577Y-12412058D01*
X14484577Y-12412058D02*
X14370292Y-12526344D01*
X14370292Y-12526344D02*
X14494101Y-12526344D01*
X14608387Y-12412058D02*
X14589339Y-12402534D01*
X14589339Y-12402534D02*
X14579816Y-12393010D01*
X14579816Y-12393010D02*
X14570292Y-12373963D01*
X14570292Y-12373963D02*
X14570292Y-12364439D01*
X14570292Y-12364439D02*
X14579816Y-12345391D01*
X14579816Y-12345391D02*
X14589339Y-12335868D01*
X14589339Y-12335868D02*
X14608387Y-12326344D01*
X14608387Y-12326344D02*
X14646482Y-12326344D01*
X14646482Y-12326344D02*
X14665530Y-12335868D01*
X14665530Y-12335868D02*
X14675054Y-12345391D01*
X14675054Y-12345391D02*
X14684577Y-12364439D01*
X14684577Y-12364439D02*
X14684577Y-12373963D01*
X14684577Y-12373963D02*
X14675054Y-12393010D01*
X14675054Y-12393010D02*
X14665530Y-12402534D01*
X14665530Y-12402534D02*
X14646482Y-12412058D01*
X14646482Y-12412058D02*
X14608387Y-12412058D01*
X14608387Y-12412058D02*
X14589339Y-12421582D01*
X14589339Y-12421582D02*
X14579816Y-12431106D01*
X14579816Y-12431106D02*
X14570292Y-12450153D01*
X14570292Y-12450153D02*
X14570292Y-12488248D01*
X14570292Y-12488248D02*
X14579816Y-12507296D01*
X14579816Y-12507296D02*
X14589339Y-12516820D01*
X14589339Y-12516820D02*
X14608387Y-12526344D01*
X14608387Y-12526344D02*
X14646482Y-12526344D01*
X14646482Y-12526344D02*
X14665530Y-12516820D01*
X14665530Y-12516820D02*
X14675054Y-12507296D01*
X14675054Y-12507296D02*
X14684577Y-12488248D01*
X14684577Y-12488248D02*
X14684577Y-12450153D01*
X14684577Y-12450153D02*
X14675054Y-12431106D01*
X14675054Y-12431106D02*
X14665530Y-12421582D01*
X14665530Y-12421582D02*
X14646482Y-12412058D01*
X14808387Y-12326344D02*
X14827435Y-12326344D01*
X14827435Y-12326344D02*
X14846482Y-12335868D01*
X14846482Y-12335868D02*
X14856006Y-12345391D01*
X14856006Y-12345391D02*
X14865530Y-12364439D01*
X14865530Y-12364439D02*
X14875054Y-12402534D01*
X14875054Y-12402534D02*
X14875054Y-12450153D01*
X14875054Y-12450153D02*
X14865530Y-12488248D01*
X14865530Y-12488248D02*
X14856006Y-12507296D01*
X14856006Y-12507296D02*
X14846482Y-12516820D01*
X14846482Y-12516820D02*
X14827435Y-12526344D01*
X14827435Y-12526344D02*
X14808387Y-12526344D01*
X14808387Y-12526344D02*
X14789339Y-12516820D01*
X14789339Y-12516820D02*
X14779816Y-12507296D01*
X14779816Y-12507296D02*
X14770292Y-12488248D01*
X14770292Y-12488248D02*
X14760768Y-12450153D01*
X14760768Y-12450153D02*
X14760768Y-12402534D01*
X14760768Y-12402534D02*
X14770292Y-12364439D01*
X14770292Y-12364439D02*
X14779816Y-12345391D01*
X14779816Y-12345391D02*
X14789339Y-12335868D01*
X14789339Y-12335868D02*
X14808387Y-12326344D01*
X14951244Y-12326344D02*
X14951244Y-12364439D01*
X15027435Y-12326344D02*
X15027435Y-12364439D01*
X15322673Y-12602534D02*
X15313149Y-12593010D01*
X15313149Y-12593010D02*
X15294101Y-12564439D01*
X15294101Y-12564439D02*
X15284578Y-12545391D01*
X15284578Y-12545391D02*
X15275054Y-12516820D01*
X15275054Y-12516820D02*
X15265530Y-12469201D01*
X15265530Y-12469201D02*
X15265530Y-12431106D01*
X15265530Y-12431106D02*
X15275054Y-12383487D01*
X15275054Y-12383487D02*
X15284578Y-12354915D01*
X15284578Y-12354915D02*
X15294101Y-12335868D01*
X15294101Y-12335868D02*
X15313149Y-12307296D01*
X15313149Y-12307296D02*
X15322673Y-12297772D01*
X15484578Y-12393010D02*
X15484578Y-12526344D01*
X15436958Y-12316820D02*
X15389339Y-12459677D01*
X15389339Y-12459677D02*
X15513149Y-12459677D01*
X15741720Y-12526344D02*
X15741720Y-12326344D01*
X15827435Y-12526344D02*
X15827435Y-12421582D01*
X15827435Y-12421582D02*
X15817911Y-12402534D01*
X15817911Y-12402534D02*
X15798863Y-12393010D01*
X15798863Y-12393010D02*
X15770292Y-12393010D01*
X15770292Y-12393010D02*
X15751244Y-12402534D01*
X15751244Y-12402534D02*
X15741720Y-12412058D01*
X15951244Y-12526344D02*
X15932197Y-12516820D01*
X15932197Y-12516820D02*
X15922673Y-12507296D01*
X15922673Y-12507296D02*
X15913149Y-12488248D01*
X15913149Y-12488248D02*
X15913149Y-12431106D01*
X15913149Y-12431106D02*
X15922673Y-12412058D01*
X15922673Y-12412058D02*
X15932197Y-12402534D01*
X15932197Y-12402534D02*
X15951244Y-12393010D01*
X15951244Y-12393010D02*
X15979816Y-12393010D01*
X15979816Y-12393010D02*
X15998863Y-12402534D01*
X15998863Y-12402534D02*
X16008387Y-12412058D01*
X16008387Y-12412058D02*
X16017911Y-12431106D01*
X16017911Y-12431106D02*
X16017911Y-12488248D01*
X16017911Y-12488248D02*
X16008387Y-12507296D01*
X16008387Y-12507296D02*
X15998863Y-12516820D01*
X15998863Y-12516820D02*
X15979816Y-12526344D01*
X15979816Y-12526344D02*
X15951244Y-12526344D01*
X16132197Y-12526344D02*
X16113149Y-12516820D01*
X16113149Y-12516820D02*
X16103625Y-12497772D01*
X16103625Y-12497772D02*
X16103625Y-12326344D01*
X16284578Y-12516820D02*
X16265530Y-12526344D01*
X16265530Y-12526344D02*
X16227435Y-12526344D01*
X16227435Y-12526344D02*
X16208387Y-12516820D01*
X16208387Y-12516820D02*
X16198863Y-12497772D01*
X16198863Y-12497772D02*
X16198863Y-12421582D01*
X16198863Y-12421582D02*
X16208387Y-12402534D01*
X16208387Y-12402534D02*
X16227435Y-12393010D01*
X16227435Y-12393010D02*
X16265530Y-12393010D01*
X16265530Y-12393010D02*
X16284578Y-12402534D01*
X16284578Y-12402534D02*
X16294101Y-12421582D01*
X16294101Y-12421582D02*
X16294101Y-12440629D01*
X16294101Y-12440629D02*
X16198863Y-12459677D01*
X16370292Y-12516820D02*
X16389340Y-12526344D01*
X16389340Y-12526344D02*
X16427435Y-12526344D01*
X16427435Y-12526344D02*
X16446482Y-12516820D01*
X16446482Y-12516820D02*
X16456006Y-12497772D01*
X16456006Y-12497772D02*
X16456006Y-12488248D01*
X16456006Y-12488248D02*
X16446482Y-12469201D01*
X16446482Y-12469201D02*
X16427435Y-12459677D01*
X16427435Y-12459677D02*
X16398863Y-12459677D01*
X16398863Y-12459677D02*
X16379816Y-12450153D01*
X16379816Y-12450153D02*
X16370292Y-12431106D01*
X16370292Y-12431106D02*
X16370292Y-12421582D01*
X16370292Y-12421582D02*
X16379816Y-12402534D01*
X16379816Y-12402534D02*
X16398863Y-12393010D01*
X16398863Y-12393010D02*
X16427435Y-12393010D01*
X16427435Y-12393010D02*
X16446482Y-12402534D01*
X16522673Y-12602534D02*
X16532197Y-12593010D01*
X16532197Y-12593010D02*
X16551244Y-12564439D01*
X16551244Y-12564439D02*
X16560768Y-12545391D01*
X16560768Y-12545391D02*
X16570292Y-12516820D01*
X16570292Y-12516820D02*
X16579816Y-12469201D01*
X16579816Y-12469201D02*
X16579816Y-12431106D01*
X16579816Y-12431106D02*
X16570292Y-12383487D01*
X16570292Y-12383487D02*
X16560768Y-12354915D01*
X16560768Y-12354915D02*
X16551244Y-12335868D01*
X16551244Y-12335868D02*
X16532197Y-12307296D01*
X16532197Y-12307296D02*
X16522673Y-12297772D01*
D16*
X11709510Y-12736960D02*
X11747610Y-12698860D01*
X11709510Y-12660760D01*
X11671410Y-12698860D01*
X11709510Y-12736960D01*
D11*
X12046482Y-12590344D02*
X12065530Y-12590344D01*
X12065530Y-12590344D02*
X12084577Y-12599868D01*
X12084577Y-12599868D02*
X12094101Y-12609391D01*
X12094101Y-12609391D02*
X12103625Y-12628439D01*
X12103625Y-12628439D02*
X12113149Y-12666534D01*
X12113149Y-12666534D02*
X12113149Y-12714153D01*
X12113149Y-12714153D02*
X12103625Y-12752248D01*
X12103625Y-12752248D02*
X12094101Y-12771296D01*
X12094101Y-12771296D02*
X12084577Y-12780820D01*
X12084577Y-12780820D02*
X12065530Y-12790344D01*
X12065530Y-12790344D02*
X12046482Y-12790344D01*
X12046482Y-12790344D02*
X12027434Y-12780820D01*
X12027434Y-12780820D02*
X12017911Y-12771296D01*
X12017911Y-12771296D02*
X12008387Y-12752248D01*
X12008387Y-12752248D02*
X11998863Y-12714153D01*
X11998863Y-12714153D02*
X11998863Y-12666534D01*
X11998863Y-12666534D02*
X12008387Y-12628439D01*
X12008387Y-12628439D02*
X12017911Y-12609391D01*
X12017911Y-12609391D02*
X12027434Y-12599868D01*
X12027434Y-12599868D02*
X12046482Y-12590344D01*
X12198863Y-12771296D02*
X12208387Y-12780820D01*
X12208387Y-12780820D02*
X12198863Y-12790344D01*
X12198863Y-12790344D02*
X12189339Y-12780820D01*
X12189339Y-12780820D02*
X12198863Y-12771296D01*
X12198863Y-12771296D02*
X12198863Y-12790344D01*
X12275053Y-12590344D02*
X12408387Y-12590344D01*
X12408387Y-12590344D02*
X12322672Y-12790344D01*
X12570292Y-12590344D02*
X12532196Y-12590344D01*
X12532196Y-12590344D02*
X12513149Y-12599868D01*
X12513149Y-12599868D02*
X12503625Y-12609391D01*
X12503625Y-12609391D02*
X12484577Y-12637963D01*
X12484577Y-12637963D02*
X12475053Y-12676058D01*
X12475053Y-12676058D02*
X12475053Y-12752248D01*
X12475053Y-12752248D02*
X12484577Y-12771296D01*
X12484577Y-12771296D02*
X12494101Y-12780820D01*
X12494101Y-12780820D02*
X12513149Y-12790344D01*
X12513149Y-12790344D02*
X12551244Y-12790344D01*
X12551244Y-12790344D02*
X12570292Y-12780820D01*
X12570292Y-12780820D02*
X12579815Y-12771296D01*
X12579815Y-12771296D02*
X12589339Y-12752248D01*
X12589339Y-12752248D02*
X12589339Y-12704629D01*
X12589339Y-12704629D02*
X12579815Y-12685582D01*
X12579815Y-12685582D02*
X12570292Y-12676058D01*
X12570292Y-12676058D02*
X12551244Y-12666534D01*
X12551244Y-12666534D02*
X12513149Y-12666534D01*
X12513149Y-12666534D02*
X12494101Y-12676058D01*
X12494101Y-12676058D02*
X12484577Y-12685582D01*
X12484577Y-12685582D02*
X12475053Y-12704629D01*
X12665530Y-12609391D02*
X12675053Y-12599868D01*
X12675053Y-12599868D02*
X12694101Y-12590344D01*
X12694101Y-12590344D02*
X12741720Y-12590344D01*
X12741720Y-12590344D02*
X12760768Y-12599868D01*
X12760768Y-12599868D02*
X12770292Y-12609391D01*
X12770292Y-12609391D02*
X12779815Y-12628439D01*
X12779815Y-12628439D02*
X12779815Y-12647487D01*
X12779815Y-12647487D02*
X12770292Y-12676058D01*
X12770292Y-12676058D02*
X12656006Y-12790344D01*
X12656006Y-12790344D02*
X12779815Y-12790344D01*
X12865530Y-12790344D02*
X12865530Y-12657010D01*
X12865530Y-12676058D02*
X12875053Y-12666534D01*
X12875053Y-12666534D02*
X12894101Y-12657010D01*
X12894101Y-12657010D02*
X12922673Y-12657010D01*
X12922673Y-12657010D02*
X12941720Y-12666534D01*
X12941720Y-12666534D02*
X12951244Y-12685582D01*
X12951244Y-12685582D02*
X12951244Y-12790344D01*
X12951244Y-12685582D02*
X12960768Y-12666534D01*
X12960768Y-12666534D02*
X12979815Y-12657010D01*
X12979815Y-12657010D02*
X13008387Y-12657010D01*
X13008387Y-12657010D02*
X13027434Y-12666534D01*
X13027434Y-12666534D02*
X13036958Y-12685582D01*
X13036958Y-12685582D02*
X13036958Y-12790344D01*
X13132196Y-12790344D02*
X13132196Y-12657010D01*
X13132196Y-12676058D02*
X13141720Y-12666534D01*
X13141720Y-12666534D02*
X13160768Y-12657010D01*
X13160768Y-12657010D02*
X13189339Y-12657010D01*
X13189339Y-12657010D02*
X13208387Y-12666534D01*
X13208387Y-12666534D02*
X13217911Y-12685582D01*
X13217911Y-12685582D02*
X13217911Y-12790344D01*
X13217911Y-12685582D02*
X13227434Y-12666534D01*
X13227434Y-12666534D02*
X13246482Y-12657010D01*
X13246482Y-12657010D02*
X13275053Y-12657010D01*
X13275053Y-12657010D02*
X13294101Y-12666534D01*
X13294101Y-12666534D02*
X13303625Y-12685582D01*
X13303625Y-12685582D02*
X13303625Y-12790344D01*
X13694101Y-12580820D02*
X13522673Y-12837963D01*
X13951244Y-12590344D02*
X13970292Y-12590344D01*
X13970292Y-12590344D02*
X13989339Y-12599868D01*
X13989339Y-12599868D02*
X13998863Y-12609391D01*
X13998863Y-12609391D02*
X14008387Y-12628439D01*
X14008387Y-12628439D02*
X14017911Y-12666534D01*
X14017911Y-12666534D02*
X14017911Y-12714153D01*
X14017911Y-12714153D02*
X14008387Y-12752248D01*
X14008387Y-12752248D02*
X13998863Y-12771296D01*
X13998863Y-12771296D02*
X13989339Y-12780820D01*
X13989339Y-12780820D02*
X13970292Y-12790344D01*
X13970292Y-12790344D02*
X13951244Y-12790344D01*
X13951244Y-12790344D02*
X13932196Y-12780820D01*
X13932196Y-12780820D02*
X13922673Y-12771296D01*
X13922673Y-12771296D02*
X13913149Y-12752248D01*
X13913149Y-12752248D02*
X13903625Y-12714153D01*
X13903625Y-12714153D02*
X13903625Y-12666534D01*
X13903625Y-12666534D02*
X13913149Y-12628439D01*
X13913149Y-12628439D02*
X13922673Y-12609391D01*
X13922673Y-12609391D02*
X13932196Y-12599868D01*
X13932196Y-12599868D02*
X13951244Y-12590344D01*
X14103625Y-12771296D02*
X14113149Y-12780820D01*
X14113149Y-12780820D02*
X14103625Y-12790344D01*
X14103625Y-12790344D02*
X14094101Y-12780820D01*
X14094101Y-12780820D02*
X14103625Y-12771296D01*
X14103625Y-12771296D02*
X14103625Y-12790344D01*
X14236958Y-12590344D02*
X14256006Y-12590344D01*
X14256006Y-12590344D02*
X14275054Y-12599868D01*
X14275054Y-12599868D02*
X14284577Y-12609391D01*
X14284577Y-12609391D02*
X14294101Y-12628439D01*
X14294101Y-12628439D02*
X14303625Y-12666534D01*
X14303625Y-12666534D02*
X14303625Y-12714153D01*
X14303625Y-12714153D02*
X14294101Y-12752248D01*
X14294101Y-12752248D02*
X14284577Y-12771296D01*
X14284577Y-12771296D02*
X14275054Y-12780820D01*
X14275054Y-12780820D02*
X14256006Y-12790344D01*
X14256006Y-12790344D02*
X14236958Y-12790344D01*
X14236958Y-12790344D02*
X14217911Y-12780820D01*
X14217911Y-12780820D02*
X14208387Y-12771296D01*
X14208387Y-12771296D02*
X14198863Y-12752248D01*
X14198863Y-12752248D02*
X14189339Y-12714153D01*
X14189339Y-12714153D02*
X14189339Y-12666534D01*
X14189339Y-12666534D02*
X14198863Y-12628439D01*
X14198863Y-12628439D02*
X14208387Y-12609391D01*
X14208387Y-12609391D02*
X14217911Y-12599868D01*
X14217911Y-12599868D02*
X14236958Y-12590344D01*
X14370292Y-12590344D02*
X14494101Y-12590344D01*
X14494101Y-12590344D02*
X14427435Y-12666534D01*
X14427435Y-12666534D02*
X14456006Y-12666534D01*
X14456006Y-12666534D02*
X14475054Y-12676058D01*
X14475054Y-12676058D02*
X14484577Y-12685582D01*
X14484577Y-12685582D02*
X14494101Y-12704629D01*
X14494101Y-12704629D02*
X14494101Y-12752248D01*
X14494101Y-12752248D02*
X14484577Y-12771296D01*
X14484577Y-12771296D02*
X14475054Y-12780820D01*
X14475054Y-12780820D02*
X14456006Y-12790344D01*
X14456006Y-12790344D02*
X14398863Y-12790344D01*
X14398863Y-12790344D02*
X14379816Y-12780820D01*
X14379816Y-12780820D02*
X14370292Y-12771296D01*
X14617911Y-12590344D02*
X14636958Y-12590344D01*
X14636958Y-12590344D02*
X14656006Y-12599868D01*
X14656006Y-12599868D02*
X14665530Y-12609391D01*
X14665530Y-12609391D02*
X14675054Y-12628439D01*
X14675054Y-12628439D02*
X14684577Y-12666534D01*
X14684577Y-12666534D02*
X14684577Y-12714153D01*
X14684577Y-12714153D02*
X14675054Y-12752248D01*
X14675054Y-12752248D02*
X14665530Y-12771296D01*
X14665530Y-12771296D02*
X14656006Y-12780820D01*
X14656006Y-12780820D02*
X14636958Y-12790344D01*
X14636958Y-12790344D02*
X14617911Y-12790344D01*
X14617911Y-12790344D02*
X14598863Y-12780820D01*
X14598863Y-12780820D02*
X14589339Y-12771296D01*
X14589339Y-12771296D02*
X14579816Y-12752248D01*
X14579816Y-12752248D02*
X14570292Y-12714153D01*
X14570292Y-12714153D02*
X14570292Y-12666534D01*
X14570292Y-12666534D02*
X14579816Y-12628439D01*
X14579816Y-12628439D02*
X14589339Y-12609391D01*
X14589339Y-12609391D02*
X14598863Y-12599868D01*
X14598863Y-12599868D02*
X14617911Y-12590344D01*
X14808387Y-12590344D02*
X14827435Y-12590344D01*
X14827435Y-12590344D02*
X14846482Y-12599868D01*
X14846482Y-12599868D02*
X14856006Y-12609391D01*
X14856006Y-12609391D02*
X14865530Y-12628439D01*
X14865530Y-12628439D02*
X14875054Y-12666534D01*
X14875054Y-12666534D02*
X14875054Y-12714153D01*
X14875054Y-12714153D02*
X14865530Y-12752248D01*
X14865530Y-12752248D02*
X14856006Y-12771296D01*
X14856006Y-12771296D02*
X14846482Y-12780820D01*
X14846482Y-12780820D02*
X14827435Y-12790344D01*
X14827435Y-12790344D02*
X14808387Y-12790344D01*
X14808387Y-12790344D02*
X14789339Y-12780820D01*
X14789339Y-12780820D02*
X14779816Y-12771296D01*
X14779816Y-12771296D02*
X14770292Y-12752248D01*
X14770292Y-12752248D02*
X14760768Y-12714153D01*
X14760768Y-12714153D02*
X14760768Y-12666534D01*
X14760768Y-12666534D02*
X14770292Y-12628439D01*
X14770292Y-12628439D02*
X14779816Y-12609391D01*
X14779816Y-12609391D02*
X14789339Y-12599868D01*
X14789339Y-12599868D02*
X14808387Y-12590344D01*
X14951244Y-12590344D02*
X14951244Y-12628439D01*
X15027435Y-12590344D02*
X15027435Y-12628439D01*
X15322673Y-12866534D02*
X15313149Y-12857010D01*
X15313149Y-12857010D02*
X15294101Y-12828439D01*
X15294101Y-12828439D02*
X15284578Y-12809391D01*
X15284578Y-12809391D02*
X15275054Y-12780820D01*
X15275054Y-12780820D02*
X15265530Y-12733201D01*
X15265530Y-12733201D02*
X15265530Y-12695106D01*
X15265530Y-12695106D02*
X15275054Y-12647487D01*
X15275054Y-12647487D02*
X15284578Y-12618915D01*
X15284578Y-12618915D02*
X15294101Y-12599868D01*
X15294101Y-12599868D02*
X15313149Y-12571296D01*
X15313149Y-12571296D02*
X15322673Y-12561772D01*
X15379816Y-12590344D02*
X15503625Y-12590344D01*
X15503625Y-12590344D02*
X15436958Y-12666534D01*
X15436958Y-12666534D02*
X15465530Y-12666534D01*
X15465530Y-12666534D02*
X15484578Y-12676058D01*
X15484578Y-12676058D02*
X15494101Y-12685582D01*
X15494101Y-12685582D02*
X15503625Y-12704629D01*
X15503625Y-12704629D02*
X15503625Y-12752248D01*
X15503625Y-12752248D02*
X15494101Y-12771296D01*
X15494101Y-12771296D02*
X15484578Y-12780820D01*
X15484578Y-12780820D02*
X15465530Y-12790344D01*
X15465530Y-12790344D02*
X15408387Y-12790344D01*
X15408387Y-12790344D02*
X15389339Y-12780820D01*
X15389339Y-12780820D02*
X15379816Y-12771296D01*
X15741720Y-12790344D02*
X15741720Y-12590344D01*
X15827435Y-12790344D02*
X15827435Y-12685582D01*
X15827435Y-12685582D02*
X15817911Y-12666534D01*
X15817911Y-12666534D02*
X15798863Y-12657010D01*
X15798863Y-12657010D02*
X15770292Y-12657010D01*
X15770292Y-12657010D02*
X15751244Y-12666534D01*
X15751244Y-12666534D02*
X15741720Y-12676058D01*
X15951244Y-12790344D02*
X15932197Y-12780820D01*
X15932197Y-12780820D02*
X15922673Y-12771296D01*
X15922673Y-12771296D02*
X15913149Y-12752248D01*
X15913149Y-12752248D02*
X15913149Y-12695106D01*
X15913149Y-12695106D02*
X15922673Y-12676058D01*
X15922673Y-12676058D02*
X15932197Y-12666534D01*
X15932197Y-12666534D02*
X15951244Y-12657010D01*
X15951244Y-12657010D02*
X15979816Y-12657010D01*
X15979816Y-12657010D02*
X15998863Y-12666534D01*
X15998863Y-12666534D02*
X16008387Y-12676058D01*
X16008387Y-12676058D02*
X16017911Y-12695106D01*
X16017911Y-12695106D02*
X16017911Y-12752248D01*
X16017911Y-12752248D02*
X16008387Y-12771296D01*
X16008387Y-12771296D02*
X15998863Y-12780820D01*
X15998863Y-12780820D02*
X15979816Y-12790344D01*
X15979816Y-12790344D02*
X15951244Y-12790344D01*
X16132197Y-12790344D02*
X16113149Y-12780820D01*
X16113149Y-12780820D02*
X16103625Y-12761772D01*
X16103625Y-12761772D02*
X16103625Y-12590344D01*
X16284578Y-12780820D02*
X16265530Y-12790344D01*
X16265530Y-12790344D02*
X16227435Y-12790344D01*
X16227435Y-12790344D02*
X16208387Y-12780820D01*
X16208387Y-12780820D02*
X16198863Y-12761772D01*
X16198863Y-12761772D02*
X16198863Y-12685582D01*
X16198863Y-12685582D02*
X16208387Y-12666534D01*
X16208387Y-12666534D02*
X16227435Y-12657010D01*
X16227435Y-12657010D02*
X16265530Y-12657010D01*
X16265530Y-12657010D02*
X16284578Y-12666534D01*
X16284578Y-12666534D02*
X16294101Y-12685582D01*
X16294101Y-12685582D02*
X16294101Y-12704629D01*
X16294101Y-12704629D02*
X16198863Y-12723677D01*
X16370292Y-12780820D02*
X16389340Y-12790344D01*
X16389340Y-12790344D02*
X16427435Y-12790344D01*
X16427435Y-12790344D02*
X16446482Y-12780820D01*
X16446482Y-12780820D02*
X16456006Y-12761772D01*
X16456006Y-12761772D02*
X16456006Y-12752248D01*
X16456006Y-12752248D02*
X16446482Y-12733201D01*
X16446482Y-12733201D02*
X16427435Y-12723677D01*
X16427435Y-12723677D02*
X16398863Y-12723677D01*
X16398863Y-12723677D02*
X16379816Y-12714153D01*
X16379816Y-12714153D02*
X16370292Y-12695106D01*
X16370292Y-12695106D02*
X16370292Y-12685582D01*
X16370292Y-12685582D02*
X16379816Y-12666534D01*
X16379816Y-12666534D02*
X16398863Y-12657010D01*
X16398863Y-12657010D02*
X16427435Y-12657010D01*
X16427435Y-12657010D02*
X16446482Y-12666534D01*
X16522673Y-12866534D02*
X16532197Y-12857010D01*
X16532197Y-12857010D02*
X16551244Y-12828439D01*
X16551244Y-12828439D02*
X16560768Y-12809391D01*
X16560768Y-12809391D02*
X16570292Y-12780820D01*
X16570292Y-12780820D02*
X16579816Y-12733201D01*
X16579816Y-12733201D02*
X16579816Y-12695106D01*
X16579816Y-12695106D02*
X16570292Y-12647487D01*
X16570292Y-12647487D02*
X16560768Y-12618915D01*
X16560768Y-12618915D02*
X16551244Y-12599868D01*
X16551244Y-12599868D02*
X16532197Y-12571296D01*
X16532197Y-12571296D02*
X16522673Y-12561772D01*
D17*
X11646010Y-12912060D02*
X11747610Y-13013660D01*
X11747610Y-12912060D02*
X11646010Y-13013660D01*
X11747610Y-12962860D02*
G75*
G03*
X11747610Y-12962860I-50800J0D01*
G01*
D11*
X12113149Y-13054344D02*
X11998863Y-13054344D01*
X12056006Y-13054344D02*
X12056006Y-12854344D01*
X12056006Y-12854344D02*
X12036958Y-12882915D01*
X12036958Y-12882915D02*
X12017911Y-12901963D01*
X12017911Y-12901963D02*
X11998863Y-12911487D01*
X12198863Y-13035296D02*
X12208387Y-13044820D01*
X12208387Y-13044820D02*
X12198863Y-13054344D01*
X12198863Y-13054344D02*
X12189339Y-13044820D01*
X12189339Y-13044820D02*
X12198863Y-13035296D01*
X12198863Y-13035296D02*
X12198863Y-13054344D01*
X12332196Y-12854344D02*
X12351244Y-12854344D01*
X12351244Y-12854344D02*
X12370292Y-12863868D01*
X12370292Y-12863868D02*
X12379815Y-12873391D01*
X12379815Y-12873391D02*
X12389339Y-12892439D01*
X12389339Y-12892439D02*
X12398863Y-12930534D01*
X12398863Y-12930534D02*
X12398863Y-12978153D01*
X12398863Y-12978153D02*
X12389339Y-13016248D01*
X12389339Y-13016248D02*
X12379815Y-13035296D01*
X12379815Y-13035296D02*
X12370292Y-13044820D01*
X12370292Y-13044820D02*
X12351244Y-13054344D01*
X12351244Y-13054344D02*
X12332196Y-13054344D01*
X12332196Y-13054344D02*
X12313149Y-13044820D01*
X12313149Y-13044820D02*
X12303625Y-13035296D01*
X12303625Y-13035296D02*
X12294101Y-13016248D01*
X12294101Y-13016248D02*
X12284577Y-12978153D01*
X12284577Y-12978153D02*
X12284577Y-12930534D01*
X12284577Y-12930534D02*
X12294101Y-12892439D01*
X12294101Y-12892439D02*
X12303625Y-12873391D01*
X12303625Y-12873391D02*
X12313149Y-12863868D01*
X12313149Y-12863868D02*
X12332196Y-12854344D01*
X12589339Y-13054344D02*
X12475053Y-13054344D01*
X12532196Y-13054344D02*
X12532196Y-12854344D01*
X12532196Y-12854344D02*
X12513149Y-12882915D01*
X12513149Y-12882915D02*
X12494101Y-12901963D01*
X12494101Y-12901963D02*
X12475053Y-12911487D01*
X12760768Y-12854344D02*
X12722672Y-12854344D01*
X12722672Y-12854344D02*
X12703625Y-12863868D01*
X12703625Y-12863868D02*
X12694101Y-12873391D01*
X12694101Y-12873391D02*
X12675053Y-12901963D01*
X12675053Y-12901963D02*
X12665530Y-12940058D01*
X12665530Y-12940058D02*
X12665530Y-13016248D01*
X12665530Y-13016248D02*
X12675053Y-13035296D01*
X12675053Y-13035296D02*
X12684577Y-13044820D01*
X12684577Y-13044820D02*
X12703625Y-13054344D01*
X12703625Y-13054344D02*
X12741720Y-13054344D01*
X12741720Y-13054344D02*
X12760768Y-13044820D01*
X12760768Y-13044820D02*
X12770292Y-13035296D01*
X12770292Y-13035296D02*
X12779815Y-13016248D01*
X12779815Y-13016248D02*
X12779815Y-12968629D01*
X12779815Y-12968629D02*
X12770292Y-12949582D01*
X12770292Y-12949582D02*
X12760768Y-12940058D01*
X12760768Y-12940058D02*
X12741720Y-12930534D01*
X12741720Y-12930534D02*
X12703625Y-12930534D01*
X12703625Y-12930534D02*
X12684577Y-12940058D01*
X12684577Y-12940058D02*
X12675053Y-12949582D01*
X12675053Y-12949582D02*
X12665530Y-12968629D01*
X12865530Y-13054344D02*
X12865530Y-12921010D01*
X12865530Y-12940058D02*
X12875053Y-12930534D01*
X12875053Y-12930534D02*
X12894101Y-12921010D01*
X12894101Y-12921010D02*
X12922673Y-12921010D01*
X12922673Y-12921010D02*
X12941720Y-12930534D01*
X12941720Y-12930534D02*
X12951244Y-12949582D01*
X12951244Y-12949582D02*
X12951244Y-13054344D01*
X12951244Y-12949582D02*
X12960768Y-12930534D01*
X12960768Y-12930534D02*
X12979815Y-12921010D01*
X12979815Y-12921010D02*
X13008387Y-12921010D01*
X13008387Y-12921010D02*
X13027434Y-12930534D01*
X13027434Y-12930534D02*
X13036958Y-12949582D01*
X13036958Y-12949582D02*
X13036958Y-13054344D01*
X13132196Y-13054344D02*
X13132196Y-12921010D01*
X13132196Y-12940058D02*
X13141720Y-12930534D01*
X13141720Y-12930534D02*
X13160768Y-12921010D01*
X13160768Y-12921010D02*
X13189339Y-12921010D01*
X13189339Y-12921010D02*
X13208387Y-12930534D01*
X13208387Y-12930534D02*
X13217911Y-12949582D01*
X13217911Y-12949582D02*
X13217911Y-13054344D01*
X13217911Y-12949582D02*
X13227434Y-12930534D01*
X13227434Y-12930534D02*
X13246482Y-12921010D01*
X13246482Y-12921010D02*
X13275053Y-12921010D01*
X13275053Y-12921010D02*
X13294101Y-12930534D01*
X13294101Y-12930534D02*
X13303625Y-12949582D01*
X13303625Y-12949582D02*
X13303625Y-13054344D01*
X13694101Y-12844820D02*
X13522673Y-13101963D01*
X13951244Y-12854344D02*
X13970292Y-12854344D01*
X13970292Y-12854344D02*
X13989339Y-12863868D01*
X13989339Y-12863868D02*
X13998863Y-12873391D01*
X13998863Y-12873391D02*
X14008387Y-12892439D01*
X14008387Y-12892439D02*
X14017911Y-12930534D01*
X14017911Y-12930534D02*
X14017911Y-12978153D01*
X14017911Y-12978153D02*
X14008387Y-13016248D01*
X14008387Y-13016248D02*
X13998863Y-13035296D01*
X13998863Y-13035296D02*
X13989339Y-13044820D01*
X13989339Y-13044820D02*
X13970292Y-13054344D01*
X13970292Y-13054344D02*
X13951244Y-13054344D01*
X13951244Y-13054344D02*
X13932196Y-13044820D01*
X13932196Y-13044820D02*
X13922673Y-13035296D01*
X13922673Y-13035296D02*
X13913149Y-13016248D01*
X13913149Y-13016248D02*
X13903625Y-12978153D01*
X13903625Y-12978153D02*
X13903625Y-12930534D01*
X13903625Y-12930534D02*
X13913149Y-12892439D01*
X13913149Y-12892439D02*
X13922673Y-12873391D01*
X13922673Y-12873391D02*
X13932196Y-12863868D01*
X13932196Y-12863868D02*
X13951244Y-12854344D01*
X14103625Y-13035296D02*
X14113149Y-13044820D01*
X14113149Y-13044820D02*
X14103625Y-13054344D01*
X14103625Y-13054344D02*
X14094101Y-13044820D01*
X14094101Y-13044820D02*
X14103625Y-13035296D01*
X14103625Y-13035296D02*
X14103625Y-13054344D01*
X14236958Y-12854344D02*
X14256006Y-12854344D01*
X14256006Y-12854344D02*
X14275054Y-12863868D01*
X14275054Y-12863868D02*
X14284577Y-12873391D01*
X14284577Y-12873391D02*
X14294101Y-12892439D01*
X14294101Y-12892439D02*
X14303625Y-12930534D01*
X14303625Y-12930534D02*
X14303625Y-12978153D01*
X14303625Y-12978153D02*
X14294101Y-13016248D01*
X14294101Y-13016248D02*
X14284577Y-13035296D01*
X14284577Y-13035296D02*
X14275054Y-13044820D01*
X14275054Y-13044820D02*
X14256006Y-13054344D01*
X14256006Y-13054344D02*
X14236958Y-13054344D01*
X14236958Y-13054344D02*
X14217911Y-13044820D01*
X14217911Y-13044820D02*
X14208387Y-13035296D01*
X14208387Y-13035296D02*
X14198863Y-13016248D01*
X14198863Y-13016248D02*
X14189339Y-12978153D01*
X14189339Y-12978153D02*
X14189339Y-12930534D01*
X14189339Y-12930534D02*
X14198863Y-12892439D01*
X14198863Y-12892439D02*
X14208387Y-12873391D01*
X14208387Y-12873391D02*
X14217911Y-12863868D01*
X14217911Y-12863868D02*
X14236958Y-12854344D01*
X14475054Y-12921010D02*
X14475054Y-13054344D01*
X14427435Y-12844820D02*
X14379816Y-12987677D01*
X14379816Y-12987677D02*
X14503625Y-12987677D01*
X14617911Y-12854344D02*
X14636958Y-12854344D01*
X14636958Y-12854344D02*
X14656006Y-12863868D01*
X14656006Y-12863868D02*
X14665530Y-12873391D01*
X14665530Y-12873391D02*
X14675054Y-12892439D01*
X14675054Y-12892439D02*
X14684577Y-12930534D01*
X14684577Y-12930534D02*
X14684577Y-12978153D01*
X14684577Y-12978153D02*
X14675054Y-13016248D01*
X14675054Y-13016248D02*
X14665530Y-13035296D01*
X14665530Y-13035296D02*
X14656006Y-13044820D01*
X14656006Y-13044820D02*
X14636958Y-13054344D01*
X14636958Y-13054344D02*
X14617911Y-13054344D01*
X14617911Y-13054344D02*
X14598863Y-13044820D01*
X14598863Y-13044820D02*
X14589339Y-13035296D01*
X14589339Y-13035296D02*
X14579816Y-13016248D01*
X14579816Y-13016248D02*
X14570292Y-12978153D01*
X14570292Y-12978153D02*
X14570292Y-12930534D01*
X14570292Y-12930534D02*
X14579816Y-12892439D01*
X14579816Y-12892439D02*
X14589339Y-12873391D01*
X14589339Y-12873391D02*
X14598863Y-12863868D01*
X14598863Y-12863868D02*
X14617911Y-12854344D01*
X14808387Y-12854344D02*
X14827435Y-12854344D01*
X14827435Y-12854344D02*
X14846482Y-12863868D01*
X14846482Y-12863868D02*
X14856006Y-12873391D01*
X14856006Y-12873391D02*
X14865530Y-12892439D01*
X14865530Y-12892439D02*
X14875054Y-12930534D01*
X14875054Y-12930534D02*
X14875054Y-12978153D01*
X14875054Y-12978153D02*
X14865530Y-13016248D01*
X14865530Y-13016248D02*
X14856006Y-13035296D01*
X14856006Y-13035296D02*
X14846482Y-13044820D01*
X14846482Y-13044820D02*
X14827435Y-13054344D01*
X14827435Y-13054344D02*
X14808387Y-13054344D01*
X14808387Y-13054344D02*
X14789339Y-13044820D01*
X14789339Y-13044820D02*
X14779816Y-13035296D01*
X14779816Y-13035296D02*
X14770292Y-13016248D01*
X14770292Y-13016248D02*
X14760768Y-12978153D01*
X14760768Y-12978153D02*
X14760768Y-12930534D01*
X14760768Y-12930534D02*
X14770292Y-12892439D01*
X14770292Y-12892439D02*
X14779816Y-12873391D01*
X14779816Y-12873391D02*
X14789339Y-12863868D01*
X14789339Y-12863868D02*
X14808387Y-12854344D01*
X14951244Y-12854344D02*
X14951244Y-12892439D01*
X15027435Y-12854344D02*
X15027435Y-12892439D01*
X15322673Y-13130534D02*
X15313149Y-13121010D01*
X15313149Y-13121010D02*
X15294101Y-13092439D01*
X15294101Y-13092439D02*
X15284578Y-13073391D01*
X15284578Y-13073391D02*
X15275054Y-13044820D01*
X15275054Y-13044820D02*
X15265530Y-12997201D01*
X15265530Y-12997201D02*
X15265530Y-12959106D01*
X15265530Y-12959106D02*
X15275054Y-12911487D01*
X15275054Y-12911487D02*
X15284578Y-12882915D01*
X15284578Y-12882915D02*
X15294101Y-12863868D01*
X15294101Y-12863868D02*
X15313149Y-12835296D01*
X15313149Y-12835296D02*
X15322673Y-12825772D01*
X15389339Y-12873391D02*
X15398863Y-12863868D01*
X15398863Y-12863868D02*
X15417911Y-12854344D01*
X15417911Y-12854344D02*
X15465530Y-12854344D01*
X15465530Y-12854344D02*
X15484578Y-12863868D01*
X15484578Y-12863868D02*
X15494101Y-12873391D01*
X15494101Y-12873391D02*
X15503625Y-12892439D01*
X15503625Y-12892439D02*
X15503625Y-12911487D01*
X15503625Y-12911487D02*
X15494101Y-12940058D01*
X15494101Y-12940058D02*
X15379816Y-13054344D01*
X15379816Y-13054344D02*
X15503625Y-13054344D01*
X15627435Y-12854344D02*
X15646482Y-12854344D01*
X15646482Y-12854344D02*
X15665530Y-12863868D01*
X15665530Y-12863868D02*
X15675054Y-12873391D01*
X15675054Y-12873391D02*
X15684578Y-12892439D01*
X15684578Y-12892439D02*
X15694101Y-12930534D01*
X15694101Y-12930534D02*
X15694101Y-12978153D01*
X15694101Y-12978153D02*
X15684578Y-13016248D01*
X15684578Y-13016248D02*
X15675054Y-13035296D01*
X15675054Y-13035296D02*
X15665530Y-13044820D01*
X15665530Y-13044820D02*
X15646482Y-13054344D01*
X15646482Y-13054344D02*
X15627435Y-13054344D01*
X15627435Y-13054344D02*
X15608387Y-13044820D01*
X15608387Y-13044820D02*
X15598863Y-13035296D01*
X15598863Y-13035296D02*
X15589339Y-13016248D01*
X15589339Y-13016248D02*
X15579816Y-12978153D01*
X15579816Y-12978153D02*
X15579816Y-12930534D01*
X15579816Y-12930534D02*
X15589339Y-12892439D01*
X15589339Y-12892439D02*
X15598863Y-12873391D01*
X15598863Y-12873391D02*
X15608387Y-12863868D01*
X15608387Y-12863868D02*
X15627435Y-12854344D01*
X15932197Y-13054344D02*
X15932197Y-12854344D01*
X16017911Y-13054344D02*
X16017911Y-12949582D01*
X16017911Y-12949582D02*
X16008387Y-12930534D01*
X16008387Y-12930534D02*
X15989340Y-12921010D01*
X15989340Y-12921010D02*
X15960768Y-12921010D01*
X15960768Y-12921010D02*
X15941720Y-12930534D01*
X15941720Y-12930534D02*
X15932197Y-12940058D01*
X16141720Y-13054344D02*
X16122673Y-13044820D01*
X16122673Y-13044820D02*
X16113149Y-13035296D01*
X16113149Y-13035296D02*
X16103625Y-13016248D01*
X16103625Y-13016248D02*
X16103625Y-12959106D01*
X16103625Y-12959106D02*
X16113149Y-12940058D01*
X16113149Y-12940058D02*
X16122673Y-12930534D01*
X16122673Y-12930534D02*
X16141720Y-12921010D01*
X16141720Y-12921010D02*
X16170292Y-12921010D01*
X16170292Y-12921010D02*
X16189340Y-12930534D01*
X16189340Y-12930534D02*
X16198863Y-12940058D01*
X16198863Y-12940058D02*
X16208387Y-12959106D01*
X16208387Y-12959106D02*
X16208387Y-13016248D01*
X16208387Y-13016248D02*
X16198863Y-13035296D01*
X16198863Y-13035296D02*
X16189340Y-13044820D01*
X16189340Y-13044820D02*
X16170292Y-13054344D01*
X16170292Y-13054344D02*
X16141720Y-13054344D01*
X16322673Y-13054344D02*
X16303625Y-13044820D01*
X16303625Y-13044820D02*
X16294101Y-13025772D01*
X16294101Y-13025772D02*
X16294101Y-12854344D01*
X16475054Y-13044820D02*
X16456006Y-13054344D01*
X16456006Y-13054344D02*
X16417911Y-13054344D01*
X16417911Y-13054344D02*
X16398863Y-13044820D01*
X16398863Y-13044820D02*
X16389340Y-13025772D01*
X16389340Y-13025772D02*
X16389340Y-12949582D01*
X16389340Y-12949582D02*
X16398863Y-12930534D01*
X16398863Y-12930534D02*
X16417911Y-12921010D01*
X16417911Y-12921010D02*
X16456006Y-12921010D01*
X16456006Y-12921010D02*
X16475054Y-12930534D01*
X16475054Y-12930534D02*
X16484578Y-12949582D01*
X16484578Y-12949582D02*
X16484578Y-12968629D01*
X16484578Y-12968629D02*
X16389340Y-12987677D01*
X16560768Y-13044820D02*
X16579816Y-13054344D01*
X16579816Y-13054344D02*
X16617911Y-13054344D01*
X16617911Y-13054344D02*
X16636959Y-13044820D01*
X16636959Y-13044820D02*
X16646482Y-13025772D01*
X16646482Y-13025772D02*
X16646482Y-13016248D01*
X16646482Y-13016248D02*
X16636959Y-12997201D01*
X16636959Y-12997201D02*
X16617911Y-12987677D01*
X16617911Y-12987677D02*
X16589340Y-12987677D01*
X16589340Y-12987677D02*
X16570292Y-12978153D01*
X16570292Y-12978153D02*
X16560768Y-12959106D01*
X16560768Y-12959106D02*
X16560768Y-12949582D01*
X16560768Y-12949582D02*
X16570292Y-12930534D01*
X16570292Y-12930534D02*
X16589340Y-12921010D01*
X16589340Y-12921010D02*
X16617911Y-12921010D01*
X16617911Y-12921010D02*
X16636959Y-12930534D01*
X16713149Y-13130534D02*
X16722673Y-13121010D01*
X16722673Y-13121010D02*
X16741721Y-13092439D01*
X16741721Y-13092439D02*
X16751244Y-13073391D01*
X16751244Y-13073391D02*
X16760768Y-13044820D01*
X16760768Y-13044820D02*
X16770292Y-12997201D01*
X16770292Y-12997201D02*
X16770292Y-12959106D01*
X16770292Y-12959106D02*
X16760768Y-12911487D01*
X16760768Y-12911487D02*
X16751244Y-12882915D01*
X16751244Y-12882915D02*
X16741721Y-12863868D01*
X16741721Y-12863868D02*
X16722673Y-12835296D01*
X16722673Y-12835296D02*
X16713149Y-12825772D01*
M02*
