%TF.GenerationSoftware,KiCad,Pcbnew,7.0.5*%
%TF.CreationDate,2024-11-14T06:30:08+05:30*%
%TF.ProjectId,pc_healthypi_move_program_adapter_v7,70635f68-6561-46c7-9468-7970695f6d6f,rev?*%
%TF.SameCoordinates,Original*%
%TF.FileFunction,Copper,L4,Bot*%
%TF.FilePolarity,Positive*%
%FSLAX46Y46*%
G04 Gerber Fmt 4.6, Leading zero omitted, Abs format (unit mm)*
G04 Created by KiCad (PCBNEW 7.0.5) date 2024-11-14 06:30:08*
%MOMM*%
%LPD*%
G01*
G04 APERTURE LIST*
G04 Aperture macros list*
%AMRoundRect*
0 Rectangle with rounded corners*
0 $1 Rounding radius*
0 $2 $3 $4 $5 $6 $7 $8 $9 X,Y pos of 4 corners*
0 Add a 4 corners polygon primitive as box body*
4,1,4,$2,$3,$4,$5,$6,$7,$8,$9,$2,$3,0*
0 Add four circle primitives for the rounded corners*
1,1,$1+$1,$2,$3*
1,1,$1+$1,$4,$5*
1,1,$1+$1,$6,$7*
1,1,$1+$1,$8,$9*
0 Add four rect primitives between the rounded corners*
20,1,$1+$1,$2,$3,$4,$5,0*
20,1,$1+$1,$4,$5,$6,$7,0*
20,1,$1+$1,$6,$7,$8,$9,0*
20,1,$1+$1,$8,$9,$2,$3,0*%
%AMOutline5P*
0 Free polygon, 5 corners , with rotation*
0 The origin of the aperture is its center*
0 number of corners: always 5*
0 $1 to $10 corner X, Y*
0 $11 Rotation angle, in degrees counterclockwise*
0 create outline with 5 corners*
4,1,5,$1,$2,$3,$4,$5,$6,$7,$8,$9,$10,$1,$2,$11*%
%AMOutline6P*
0 Free polygon, 6 corners , with rotation*
0 The origin of the aperture is its center*
0 number of corners: always 6*
0 $1 to $12 corner X, Y*
0 $13 Rotation angle, in degrees counterclockwise*
0 create outline with 6 corners*
4,1,6,$1,$2,$3,$4,$5,$6,$7,$8,$9,$10,$11,$12,$1,$2,$13*%
%AMOutline7P*
0 Free polygon, 7 corners , with rotation*
0 The origin of the aperture is its center*
0 number of corners: always 7*
0 $1 to $14 corner X, Y*
0 $15 Rotation angle, in degrees counterclockwise*
0 create outline with 7 corners*
4,1,7,$1,$2,$3,$4,$5,$6,$7,$8,$9,$10,$11,$12,$13,$14,$1,$2,$15*%
%AMOutline8P*
0 Free polygon, 8 corners , with rotation*
0 The origin of the aperture is its center*
0 number of corners: always 8*
0 $1 to $16 corner X, Y*
0 $17 Rotation angle, in degrees counterclockwise*
0 create outline with 8 corners*
4,1,8,$1,$2,$3,$4,$5,$6,$7,$8,$9,$10,$11,$12,$13,$14,$15,$16,$1,$2,$17*%
G04 Aperture macros list end*
%TA.AperFunction,ComponentPad*%
%ADD10Outline8P,-0.812800X0.336673X-0.336673X0.812800X0.336673X0.812800X0.812800X0.336673X0.812800X-0.336673X0.336673X-0.812800X-0.336673X-0.812800X-0.812800X-0.336673X0.000000*%
%TD*%
%TA.AperFunction,ComponentPad*%
%ADD11C,1.092200*%
%TD*%
%TA.AperFunction,ComponentPad*%
%ADD12C,0.762000*%
%TD*%
%TA.AperFunction,ComponentPad*%
%ADD13C,0.584200*%
%TD*%
%TA.AperFunction,SMDPad,CuDef*%
%ADD14RoundRect,0.508000X-0.444500X0.000000X0.444500X0.000000X0.444500X0.000000X-0.444500X0.000000X0*%
%TD*%
%TA.AperFunction,SMDPad,CuDef*%
%ADD15RoundRect,0.508000X-0.647700X0.000000X0.647700X0.000000X0.647700X0.000000X-0.647700X0.000000X0*%
%TD*%
%TA.AperFunction,SMDPad,CuDef*%
%ADD16RoundRect,0.508000X-0.152400X0.000000X0.152400X0.000000X0.152400X0.000000X-0.152400X0.000000X0*%
%TD*%
%TA.AperFunction,SMDPad,CuDef*%
%ADD17R,0.279400X1.041400*%
%TD*%
%TA.AperFunction,ComponentPad*%
%ADD18C,0.508000*%
%TD*%
%TA.AperFunction,ViaPad*%
%ADD19C,0.858000*%
%TD*%
%TA.AperFunction,Conductor*%
%ADD20C,0.152400*%
%TD*%
%TA.AperFunction,Conductor*%
%ADD21C,0.254000*%
%TD*%
G04 APERTURE END LIST*
D10*
%TO.P,SV3,1,1*%
%TO.N,GND*%
X120081100Y-106273600D03*
%TO.P,SV3,2,2*%
%TO.N,+3V3*%
X120081100Y-103733600D03*
%TO.P,SV3,3,3*%
%TO.N,GND*%
X122621100Y-106273600D03*
%TO.P,SV3,4,4*%
%TO.N,unconnected-(SV3-Pad4)*%
X122621100Y-103733600D03*
%TO.P,SV3,5,5*%
%TO.N,GND*%
X125161100Y-106273600D03*
%TO.P,SV3,6,6*%
%TO.N,unconnected-(SV3-Pad6)*%
X125161100Y-103733600D03*
%TO.P,SV3,7,7*%
%TO.N,GND*%
X127701100Y-106273600D03*
%TO.P,SV3,8,8*%
%TO.N,unconnected-(SV3-Pad8)*%
X127701100Y-103733600D03*
%TO.P,SV3,9,9*%
%TO.N,GND*%
X130241100Y-106273600D03*
%TO.P,SV3,10,10*%
%TO.N,/SWDIO1*%
X130241100Y-103733600D03*
%TO.P,SV3,11,11*%
%TO.N,GND*%
X132781100Y-106273600D03*
%TO.P,SV3,12,12*%
%TO.N,/SWCLK1*%
X132781100Y-103733600D03*
%TO.P,SV3,13,13*%
%TO.N,GND*%
X135321100Y-106273600D03*
%TO.P,SV3,14,14*%
%TO.N,unconnected-(SV3-Pad14)*%
X135321100Y-103733600D03*
%TO.P,SV3,15,15*%
%TO.N,GND*%
X137861100Y-106273600D03*
%TO.P,SV3,16,16*%
%TO.N,unconnected-(SV3-Pad16)*%
X137861100Y-103733600D03*
%TO.P,SV3,17,17*%
%TO.N,GND*%
X140401100Y-106273600D03*
%TO.P,SV3,18,18*%
%TO.N,/UART_TX*%
X140401100Y-103733600D03*
%TO.P,SV3,19,19*%
%TO.N,GND*%
X142941100Y-106273600D03*
%TO.P,SV3,20,20*%
%TO.N,Net-(D2-PadA)*%
X142941100Y-103733600D03*
%TD*%
D11*
%TO.P,U2,25,GND_6*%
%TO.N,GND*%
X165888700Y-107162600D03*
%TO.P,U2,26,GND_7*%
X161113500Y-107162600D03*
%TO.P,U2,27,GND_8*%
X165888700Y-102844600D03*
%TO.P,U2,28,GND*%
X161113500Y-102844600D03*
D12*
%TO.P,U2,29*%
%TO.N,N/C*%
X167260300Y-105003600D03*
D13*
%TO.P,U2,30*%
X159538700Y-105003600D03*
%TO.P,U2,31*%
X159970500Y-105003600D03*
%TO.P,U2,32*%
X159741900Y-105003600D03*
%TD*%
D14*
%TO.P,J3,25*%
%TO.N,N/C*%
X150251097Y-107803600D03*
%TO.P,J3,26*%
X153751103Y-107803600D03*
D15*
%TO.P,J3,27*%
X152001100Y-102203600D03*
D16*
%TO.P,J3,28*%
X147991100Y-105003600D03*
%TO.P,J3,29*%
X156011100Y-105003600D03*
D12*
%TO.P,J3,30*%
X148191100Y-104089200D03*
%TO.P,J3,31*%
X155811100Y-105918000D03*
D17*
%TO.P,J3,A1,GND_2*%
%TO.N,GND*%
X154751100Y-105978600D03*
%TO.P,J3,A2,SSTXP1*%
%TO.N,/SWDIO1*%
X154251100Y-105978600D03*
%TO.P,J3,A3,SSTXN1*%
%TO.N,/SWCLK1*%
X153751100Y-105978600D03*
%TO.P,J3,A4,VBUS_2*%
%TO.N,V_USB*%
X153251100Y-105978600D03*
%TO.P,J3,A5,CC1*%
%TO.N,/CC1*%
X152751100Y-105978600D03*
%TO.P,J3,A6,DP1*%
%TO.N,/USB_D+*%
X152251100Y-105978600D03*
%TO.P,J3,A7,DN1*%
%TO.N,/USB_D-*%
X151751100Y-105978600D03*
%TO.P,J3,A8,SBU1*%
%TO.N,unconnected-(J3-SBU1-PadA8)*%
X151251100Y-105978600D03*
%TO.P,J3,A9,VBUS_3*%
%TO.N,unconnected-(J3-VBUS_3-PadA9)*%
X150751100Y-105978600D03*
%TO.P,J3,A10,SSRXN2*%
%TO.N,unconnected-(J3-SSRXN2-PadA10)*%
X150251100Y-105978600D03*
%TO.P,J3,A11,SSRXP2*%
%TO.N,/UART_TX*%
X149751100Y-105978600D03*
%TO.P,J3,A12,GND_3*%
%TO.N,GND*%
X149251100Y-105978600D03*
%TO.P,J3,B1,GND_4*%
X149251100Y-104028600D03*
%TO.P,J3,B2,SSTXP2*%
%TO.N,/SWDIO1*%
X149751100Y-104028600D03*
%TO.P,J3,B3,SSTXN2*%
%TO.N,/SWCLK1*%
X150251100Y-104028600D03*
%TO.P,J3,B4,VBUS_4*%
%TO.N,unconnected-(J3-VBUS_4-PadB4)*%
X150751100Y-104028600D03*
%TO.P,J3,B5,CC2*%
%TO.N,/CC2*%
X151251100Y-104028600D03*
%TO.P,J3,B6,DP2*%
%TO.N,/USB_D+*%
X151751100Y-104028600D03*
%TO.P,J3,B7,DN2*%
%TO.N,/USB_D-*%
X152251100Y-104028600D03*
%TO.P,J3,B8,SBU2*%
%TO.N,unconnected-(J3-SBU2-PadB8)*%
X152751100Y-104028600D03*
%TO.P,J3,B9,VBUS*%
%TO.N,V_USB*%
X153251100Y-104028600D03*
%TO.P,J3,B10,SSRXN1*%
%TO.N,unconnected-(J3-SSRXN1-PadB10)*%
X153751100Y-104028600D03*
%TO.P,J3,B11,SSRXP1*%
%TO.N,/UART_TX*%
X154251100Y-104028600D03*
%TO.P,J3,B12,GND*%
%TO.N,GND*%
X154751100Y-104028600D03*
D18*
%TO.P,J3,S_1_H1*%
%TO.N,N/C*%
X150705700Y-107797600D03*
%TO.P,J3,S_1_H2*%
X149816700Y-107797600D03*
%TO.P,J3,S_2_H1*%
X154185500Y-107797600D03*
%TO.P,J3,S_2_H2*%
X153296500Y-107797600D03*
%TO.P,J3,S_3_H1*%
X150070700Y-107797600D03*
X150324700Y-107797600D03*
X150451700Y-107797600D03*
X151547100Y-102203600D03*
X151801100Y-102203600D03*
X152101100Y-102203600D03*
X152407500Y-102209600D03*
X152661500Y-102209600D03*
X153550500Y-107797600D03*
X153804500Y-107797600D03*
X154058500Y-107797600D03*
%TO.P,J3,S_3_H2*%
X151340700Y-102209600D03*
%TO.P,J3,S_4_H1*%
X148140300Y-105003600D03*
%TO.P,J3,S_4_H2*%
X147835500Y-105003600D03*
%TO.P,J3,S_5_H1*%
X156166700Y-105003600D03*
%TO.P,J3,S_5_H2*%
X155861900Y-105003600D03*
%TD*%
D19*
%TO.N,GND*%
X146091100Y-104533600D03*
X145601100Y-100703600D03*
X157301100Y-102433600D03*
X173421100Y-109113600D03*
X153631100Y-101343600D03*
X141431100Y-101423600D03*
%TO.N,+3V3*%
X157691100Y-106323600D03*
X169351100Y-107233600D03*
%TO.N,V_USB*%
X167111100Y-107583600D03*
X160661100Y-101633600D03*
%TO.N,/SWCLK1*%
X147251100Y-101703600D03*
X173151100Y-104623600D03*
X155471100Y-108207800D03*
%TO.N,/SWDIO1*%
X171881100Y-104863600D03*
X156661100Y-107503600D03*
X148371100Y-102413600D03*
%TO.N,/CC2*%
X150411100Y-101063600D03*
%TO.N,/USB_D+*%
X163081100Y-101543600D03*
X146750700Y-108823600D03*
%TO.N,/USB_D-*%
X159576100Y-107658600D03*
X147831100Y-108503600D03*
X164871100Y-101793600D03*
%TO.N,/UART_TX*%
X142521100Y-101193600D03*
X155881100Y-101963600D03*
%TO.N,/CC1*%
X163651100Y-109003600D03*
%TD*%
D20*
%TO.N,GND*%
X154751100Y-105978600D02*
X154751100Y-106473600D01*
X154751100Y-106473600D02*
X155201100Y-106923600D01*
%TO.N,+3V3*%
X165206300Y-108678800D02*
X168085900Y-108678800D01*
X161941100Y-108373600D02*
X162721100Y-107593600D01*
X159071100Y-108373600D02*
X161941100Y-108373600D01*
X157691100Y-106323600D02*
X157691100Y-106993600D01*
X157691100Y-106993600D02*
X159071100Y-108373600D01*
X168085900Y-108678800D02*
X169351100Y-107413600D01*
X169351100Y-107413600D02*
X169351100Y-107233600D01*
X164121100Y-107593600D02*
X165206300Y-108678800D01*
X162721100Y-107593600D02*
X164121100Y-107593600D01*
%TO.N,V_USB*%
X166641100Y-108053600D02*
X165461100Y-108053600D01*
X153251100Y-104028600D02*
X153251100Y-103343600D01*
X160301100Y-101273600D02*
X155321100Y-101273600D01*
X160661100Y-101633600D02*
X160301100Y-101273600D01*
X153251100Y-105978600D02*
X153251100Y-104028600D01*
X161651100Y-101633600D02*
X160661100Y-101633600D01*
X153251100Y-103343600D02*
X155321100Y-101273600D01*
X162441100Y-102423600D02*
X161651100Y-101633600D01*
X167111100Y-107583600D02*
X166641100Y-108053600D01*
X162441100Y-105033600D02*
X162441100Y-102423600D01*
X165461100Y-108053600D02*
X162441100Y-105033600D01*
%TO.N,/SWCLK1*%
X153631100Y-106863600D02*
X153101100Y-106863600D01*
X173181100Y-104653600D02*
X173151100Y-104623600D01*
X150251100Y-104028600D02*
X150231100Y-104008600D01*
X170221300Y-109293400D02*
X173181100Y-106333600D01*
X162371100Y-109003600D02*
X163118700Y-108256000D01*
X147281100Y-101673600D02*
X147251100Y-101703600D01*
X150231100Y-103223600D02*
X150231100Y-104008600D01*
X173181100Y-106333600D02*
X173181100Y-104653600D01*
X157365300Y-108167800D02*
X155511100Y-108167800D01*
X154985300Y-108693600D02*
X155471100Y-108207800D01*
X163903500Y-108256000D02*
X164940900Y-109293400D01*
X152501100Y-107463600D02*
X152501100Y-108523600D01*
X153751100Y-106743600D02*
X153631100Y-106863600D01*
X148681100Y-101673600D02*
X147281100Y-101673600D01*
X164940900Y-109293400D02*
X170221300Y-109293400D01*
X152501100Y-108523600D02*
X152671100Y-108693600D01*
X158201100Y-109003600D02*
X162371100Y-109003600D01*
X153101100Y-106863600D02*
X152501100Y-107463600D01*
X163118700Y-108256000D02*
X163903500Y-108256000D01*
X152671100Y-108693600D02*
X154985300Y-108693600D01*
X153751100Y-105978600D02*
X153751100Y-106328044D01*
X150231100Y-103223600D02*
X148681100Y-101673600D01*
X153751100Y-105978600D02*
X153751100Y-106743600D01*
X155471100Y-108207800D02*
X155511100Y-108167800D01*
X157365300Y-108167800D02*
X158201100Y-109003600D01*
%TO.N,/SWDIO1*%
X169771100Y-108983600D02*
X171881100Y-106873600D01*
D21*
X145971100Y-102413600D02*
X148371100Y-102413600D01*
D20*
X171881100Y-106873600D02*
X171881100Y-104863600D01*
D21*
X130241100Y-103733600D02*
X133571100Y-100403600D01*
D20*
X162158500Y-108696200D02*
X162931100Y-107923600D01*
X148941100Y-102413600D02*
X148371100Y-102413600D01*
X162931100Y-107923600D02*
X164011100Y-107923600D01*
X156661100Y-107503600D02*
X155081100Y-107503600D01*
X149751100Y-103223600D02*
X148941100Y-102413600D01*
X158403700Y-108696200D02*
X162158500Y-108696200D01*
X157211100Y-107503600D02*
X158403700Y-108696200D01*
X165071100Y-108983600D02*
X169771100Y-108983600D01*
D21*
X143961100Y-100403600D02*
X145971100Y-102413600D01*
D20*
X164011100Y-107923600D02*
X165071100Y-108983600D01*
D21*
X133571100Y-100403600D02*
X143961100Y-100403600D01*
D20*
X149751100Y-104028600D02*
X149751100Y-103223600D01*
X154251100Y-105978600D02*
X154251100Y-106673600D01*
X154251100Y-106673600D02*
X155081100Y-107503600D01*
X156661100Y-107503600D02*
X157211100Y-107503600D01*
%TO.N,/CC2*%
X150461100Y-102468600D02*
X150461093Y-101013607D01*
X150411100Y-101063600D02*
X150461093Y-101013607D01*
X151251100Y-104028600D02*
X151251100Y-103258600D01*
X151251100Y-103258600D02*
X150461100Y-102468600D01*
%TO.N,/USB_D+*%
X147161100Y-109193600D02*
X146791100Y-108823600D01*
X152251100Y-105978600D02*
X152251100Y-106793600D01*
X151873100Y-108781600D02*
X151461100Y-109193600D01*
X163081100Y-101543600D02*
X162501100Y-100963600D01*
X151461100Y-109193600D02*
X147161100Y-109193600D01*
X152097700Y-102997000D02*
X153087700Y-102997000D01*
X151751100Y-103343600D02*
X152097700Y-102997000D01*
X146791100Y-108823600D02*
X146750700Y-108823600D01*
X152251100Y-106793600D02*
X151873100Y-107171600D01*
X151873100Y-107171600D02*
X151873100Y-108781600D01*
X162501100Y-100963600D02*
X155121100Y-100963600D01*
X155121100Y-100963600D02*
X153087700Y-102997000D01*
X151751100Y-104028600D02*
X151751100Y-103343600D01*
%TO.N,/USB_D-*%
X167771100Y-108163600D02*
X167571100Y-108363600D01*
X151211100Y-108803600D02*
X148131100Y-108803600D01*
X148131100Y-108803600D02*
X147831100Y-108503600D01*
X151751100Y-106603600D02*
X151531100Y-106823600D01*
X164871100Y-101793600D02*
X164871100Y-104393600D01*
X159986100Y-108068600D02*
X159576100Y-107658600D01*
X151531100Y-106823600D02*
X151531100Y-108483600D01*
X162316100Y-107268600D02*
X161516100Y-108068600D01*
X167771100Y-107293600D02*
X167771100Y-108163600D01*
X151751100Y-105978600D02*
X151751100Y-105143600D01*
X161516100Y-108068600D02*
X159986100Y-108068600D01*
X151531100Y-108483600D02*
X151211100Y-108803600D01*
X165331100Y-108363600D02*
X164236100Y-107268600D01*
X151751100Y-105143600D02*
X152251100Y-104643600D01*
X152251100Y-104643600D02*
X152251100Y-104028600D01*
X164236100Y-107268600D02*
X162316100Y-107268600D01*
X151751100Y-105978600D02*
X151751100Y-106603600D01*
X164871100Y-104393600D02*
X167771100Y-107293600D01*
X167571100Y-108363600D02*
X165331100Y-108363600D01*
%TO.N,/UART_TX*%
X155331100Y-101963600D02*
X155881100Y-101963600D01*
D21*
X149451100Y-106923600D02*
X149751100Y-106623600D01*
X149751100Y-106623600D02*
X149751100Y-105978600D01*
D20*
X142091100Y-100763600D02*
X141071100Y-100763600D01*
X141071100Y-100763600D02*
X140401100Y-101433600D01*
X154251100Y-104028600D02*
X154251100Y-103043600D01*
D21*
X144731100Y-105133600D02*
X146521100Y-106923600D01*
X140401100Y-103733600D02*
X141801100Y-105133600D01*
X146521100Y-106923600D02*
X149451100Y-106923600D01*
D20*
X154251100Y-103043600D02*
X155331100Y-101963600D01*
X140401100Y-103733600D02*
X140401100Y-101433600D01*
X142091100Y-100763600D02*
X142521100Y-101193600D01*
D21*
X141801100Y-105133600D02*
X144731100Y-105133600D01*
D20*
%TO.N,/CC1*%
X152177900Y-108631457D02*
X152544843Y-108998400D01*
X156231100Y-108473600D02*
X157211100Y-108473600D01*
X152751100Y-105978600D02*
X152751100Y-106772288D01*
X152544843Y-108998400D02*
X152585900Y-108998400D01*
X158045821Y-109308322D02*
X163169134Y-109312838D01*
X152585900Y-108998400D02*
X152601100Y-109013600D01*
X152751100Y-105978600D02*
X152701100Y-106028600D01*
X157211100Y-108473600D02*
X158045821Y-109308322D01*
X152601100Y-109013600D02*
X155691100Y-109013600D01*
X152177900Y-107345488D02*
X152177900Y-108631457D01*
X155691100Y-109013600D02*
X156231100Y-108473600D01*
X152751100Y-106772288D02*
X152177900Y-107345488D01*
X163651100Y-109003600D02*
X163169134Y-109312838D01*
%TD*%
%TA.AperFunction,Conductor*%
%TO.N,GND*%
G36*
X160075341Y-101513566D02*
G01*
X160086207Y-101539800D01*
X160085890Y-101544642D01*
X160077316Y-101609769D01*
X160074179Y-101633600D01*
X160094178Y-101785506D01*
X160152417Y-101926108D01*
X160152814Y-101927065D01*
X160233323Y-102031986D01*
X160246084Y-102048616D01*
X160246088Y-102048619D01*
X160246089Y-102048620D01*
X160367634Y-102141885D01*
X160367636Y-102141885D01*
X160367639Y-102141888D01*
X160509194Y-102200522D01*
X160625332Y-102215812D01*
X160649921Y-102230009D01*
X160652960Y-102240940D01*
X160944010Y-102531990D01*
X160892066Y-102560101D01*
X160811687Y-102647416D01*
X160799951Y-102674171D01*
X160515392Y-102389612D01*
X160434856Y-102517785D01*
X160379151Y-102676980D01*
X160379149Y-102676990D01*
X160360264Y-102844600D01*
X160379149Y-103012209D01*
X160379151Y-103012219D01*
X160434856Y-103171414D01*
X160515391Y-103299586D01*
X160800028Y-103014949D01*
X160848259Y-103088772D01*
X160940585Y-103160632D01*
X160658511Y-103442707D01*
X160786685Y-103523243D01*
X160945880Y-103578948D01*
X160945890Y-103578950D01*
X161113500Y-103597835D01*
X161281109Y-103578950D01*
X161281119Y-103578948D01*
X161440318Y-103523241D01*
X161568487Y-103442707D01*
X161282989Y-103157209D01*
X161334934Y-103129099D01*
X161415313Y-103041784D01*
X161427048Y-103015028D01*
X161711607Y-103299587D01*
X161792141Y-103171418D01*
X161847848Y-103012219D01*
X161847850Y-103012209D01*
X161866735Y-102844599D01*
X161847850Y-102676990D01*
X161847848Y-102676980D01*
X161792143Y-102517785D01*
X161711606Y-102389611D01*
X161426969Y-102674247D01*
X161378741Y-102600428D01*
X161286411Y-102528566D01*
X161568487Y-102246491D01*
X161440314Y-102165956D01*
X161281119Y-102110251D01*
X161281109Y-102110249D01*
X161114155Y-102091438D01*
X161089303Y-102077702D01*
X161081442Y-102050417D01*
X161088875Y-102031987D01*
X161155235Y-101945506D01*
X161169386Y-101927064D01*
X161169386Y-101927063D01*
X161169388Y-101927061D01*
X161186560Y-101885602D01*
X161206638Y-101865524D01*
X161220836Y-101862700D01*
X161540836Y-101862700D01*
X161567070Y-101873566D01*
X162201134Y-102507630D01*
X162212000Y-102533864D01*
X162212000Y-105027127D01*
X162211975Y-105028076D01*
X162209766Y-105070239D01*
X162219708Y-105096139D01*
X162221361Y-105101721D01*
X162227129Y-105128863D01*
X162229327Y-105131888D01*
X162235156Y-105139911D01*
X162239776Y-105148420D01*
X162244667Y-105161163D01*
X162264291Y-105180787D01*
X162268071Y-105185214D01*
X162284378Y-105207658D01*
X162296198Y-105214482D01*
X162303882Y-105220378D01*
X164059669Y-106976166D01*
X164070535Y-107002400D01*
X164059669Y-107028634D01*
X164033435Y-107039500D01*
X162322580Y-107039500D01*
X162321631Y-107039475D01*
X162286016Y-107037609D01*
X162279463Y-107037266D01*
X162279462Y-107037266D01*
X162279461Y-107037266D01*
X162253557Y-107047209D01*
X162247978Y-107048861D01*
X162220834Y-107054631D01*
X162209788Y-107062656D01*
X162201280Y-107067275D01*
X162188539Y-107072166D01*
X162188533Y-107072169D01*
X162168915Y-107091787D01*
X162164492Y-107095565D01*
X162142043Y-107111876D01*
X162142041Y-107111879D01*
X162135216Y-107123699D01*
X162129322Y-107131380D01*
X161912328Y-107348373D01*
X161886094Y-107359239D01*
X161859860Y-107348373D01*
X161848994Y-107322139D01*
X161849227Y-107317985D01*
X161866735Y-107162599D01*
X161847850Y-106994990D01*
X161847848Y-106994980D01*
X161792143Y-106835785D01*
X161711606Y-106707611D01*
X161426969Y-106992247D01*
X161378741Y-106918428D01*
X161286411Y-106846566D01*
X161568487Y-106564491D01*
X161440314Y-106483956D01*
X161281119Y-106428251D01*
X161281109Y-106428249D01*
X161113500Y-106409364D01*
X160945890Y-106428249D01*
X160945880Y-106428251D01*
X160786685Y-106483956D01*
X160658512Y-106564492D01*
X160944010Y-106849990D01*
X160892066Y-106878101D01*
X160811687Y-106965416D01*
X160799951Y-106992171D01*
X160515391Y-106707611D01*
X160434856Y-106835785D01*
X160379151Y-106994980D01*
X160379149Y-106994990D01*
X160360264Y-107162600D01*
X160379149Y-107330209D01*
X160379151Y-107330219D01*
X160434856Y-107489414D01*
X160515391Y-107617586D01*
X160800028Y-107332949D01*
X160848259Y-107406772D01*
X160940585Y-107478631D01*
X160658511Y-107760707D01*
X160674871Y-107770986D01*
X160691303Y-107794144D01*
X160686547Y-107822138D01*
X160663389Y-107838570D01*
X160655133Y-107839500D01*
X160181509Y-107839500D01*
X160155275Y-107828634D01*
X160144409Y-107802400D01*
X160144725Y-107797568D01*
X160163021Y-107658600D01*
X160143022Y-107506694D01*
X160084388Y-107365140D01*
X160084385Y-107365137D01*
X160084385Y-107365135D01*
X159991120Y-107243589D01*
X159991119Y-107243588D01*
X159991116Y-107243584D01*
X159991111Y-107243580D01*
X159991110Y-107243579D01*
X159869565Y-107150314D01*
X159869561Y-107150312D01*
X159728006Y-107091678D01*
X159576100Y-107071679D01*
X159424194Y-107091678D01*
X159424193Y-107091678D01*
X159282635Y-107150314D01*
X159161089Y-107243579D01*
X159161079Y-107243589D01*
X159067814Y-107365135D01*
X159010467Y-107503583D01*
X159009178Y-107506694D01*
X158989179Y-107658600D01*
X159007863Y-107800521D01*
X159009178Y-107810505D01*
X159009179Y-107810509D01*
X159063084Y-107940647D01*
X159063084Y-107969042D01*
X159043005Y-107989120D01*
X159014610Y-107989120D01*
X159002574Y-107981078D01*
X158539696Y-107518200D01*
X157931066Y-106909569D01*
X157920200Y-106883335D01*
X157931066Y-106857101D01*
X157943097Y-106849062D01*
X157984561Y-106831888D01*
X157997947Y-106821617D01*
X158040802Y-106788733D01*
X158106116Y-106738616D01*
X158199388Y-106617061D01*
X158258022Y-106475506D01*
X158278021Y-106323600D01*
X158258022Y-106171694D01*
X158199388Y-106030140D01*
X158199385Y-106030137D01*
X158199385Y-106030135D01*
X158106120Y-105908589D01*
X158106119Y-105908588D01*
X158106116Y-105908584D01*
X158106111Y-105908580D01*
X158106110Y-105908579D01*
X157984565Y-105815314D01*
X157984561Y-105815312D01*
X157843006Y-105756678D01*
X157691100Y-105736679D01*
X157539194Y-105756678D01*
X157539193Y-105756678D01*
X157397635Y-105815314D01*
X157276089Y-105908579D01*
X157276079Y-105908589D01*
X157182814Y-106030135D01*
X157141250Y-106130480D01*
X157124178Y-106171694D01*
X157104179Y-106323600D01*
X157124178Y-106475506D01*
X157179694Y-106609534D01*
X157182814Y-106617065D01*
X157276079Y-106738610D01*
X157276084Y-106738616D01*
X157276088Y-106738619D01*
X157276089Y-106738620D01*
X157397635Y-106831886D01*
X157397638Y-106831887D01*
X157397639Y-106831888D01*
X157439097Y-106849060D01*
X157459176Y-106869138D01*
X157462000Y-106883336D01*
X157462000Y-106987127D01*
X157461975Y-106988076D01*
X157459766Y-107030239D01*
X157463580Y-107040174D01*
X157469708Y-107056139D01*
X157471361Y-107061721D01*
X157477129Y-107088863D01*
X157479254Y-107091787D01*
X157485156Y-107099911D01*
X157489774Y-107108417D01*
X157491290Y-107112365D01*
X157494667Y-107121163D01*
X157514291Y-107140787D01*
X157518071Y-107145214D01*
X157533445Y-107166374D01*
X157534378Y-107167658D01*
X157544883Y-107173723D01*
X157546198Y-107174482D01*
X157553882Y-107180378D01*
X158777269Y-108403766D01*
X158788135Y-108430000D01*
X158777269Y-108456234D01*
X158751035Y-108467100D01*
X158513964Y-108467100D01*
X158487730Y-108456234D01*
X157377673Y-107346175D01*
X157377004Y-107345471D01*
X157348772Y-107314115D01*
X157348768Y-107314113D01*
X157323419Y-107302826D01*
X157318309Y-107300052D01*
X157295036Y-107284939D01*
X157295035Y-107284938D01*
X157295036Y-107284938D01*
X157281554Y-107282803D01*
X157272272Y-107280053D01*
X157259797Y-107274500D01*
X157259796Y-107274500D01*
X157232047Y-107274500D01*
X157226243Y-107274043D01*
X157223391Y-107273591D01*
X157214243Y-107272142D01*
X157190033Y-107257305D01*
X157185772Y-107249696D01*
X157183253Y-107243615D01*
X157169388Y-107210140D01*
X157169387Y-107210139D01*
X157169386Y-107210136D01*
X157076120Y-107088589D01*
X157076119Y-107088588D01*
X157076116Y-107088584D01*
X157076111Y-107088580D01*
X157076110Y-107088579D01*
X156954565Y-106995314D01*
X156954561Y-106995312D01*
X156813006Y-106936678D01*
X156661100Y-106916679D01*
X156509194Y-106936678D01*
X156509193Y-106936678D01*
X156367635Y-106995314D01*
X156246089Y-107088579D01*
X156246079Y-107088589D01*
X156152814Y-107210135D01*
X156152811Y-107210140D01*
X156152812Y-107210140D01*
X156135638Y-107251599D01*
X156115561Y-107271676D01*
X156101364Y-107274500D01*
X155191364Y-107274500D01*
X155165130Y-107263634D01*
X154666530Y-106765033D01*
X154655664Y-106738799D01*
X154666530Y-106712565D01*
X154692764Y-106701699D01*
X154910730Y-106701699D01*
X154910737Y-106701698D01*
X154969772Y-106689955D01*
X155036720Y-106645223D01*
X155036723Y-106645220D01*
X155081454Y-106578273D01*
X155081456Y-106578270D01*
X155093199Y-106519238D01*
X155093199Y-106463817D01*
X154634216Y-106004834D01*
X154623350Y-105978600D01*
X154623350Y-105978599D01*
X154894218Y-105978599D01*
X155093199Y-106177579D01*
X155093199Y-105878032D01*
X155175837Y-105878032D01*
X155185856Y-106037276D01*
X155185857Y-106037278D01*
X155235159Y-106189016D01*
X155235161Y-106189020D01*
X155320649Y-106323726D01*
X155320652Y-106323730D01*
X155320653Y-106323731D01*
X155320654Y-106323732D01*
X155436964Y-106432955D01*
X155576782Y-106509820D01*
X155731323Y-106549500D01*
X155731326Y-106549500D01*
X155850837Y-106549500D01*
X155850836Y-106549499D01*
X155897845Y-106543560D01*
X155969391Y-106534523D01*
X155969392Y-106534522D01*
X155969396Y-106534522D01*
X156117745Y-106475786D01*
X156246827Y-106382002D01*
X156348531Y-106259064D01*
X156416466Y-106114695D01*
X156446363Y-105957967D01*
X156436344Y-105798728D01*
X156436343Y-105798725D01*
X156436343Y-105798723D01*
X156436342Y-105798721D01*
X156392508Y-105663811D01*
X156394736Y-105635504D01*
X156416328Y-105617063D01*
X156416755Y-105616927D01*
X156428786Y-105613177D01*
X156436734Y-105610701D01*
X156574083Y-105527671D01*
X156687571Y-105414183D01*
X156770601Y-105276834D01*
X156818349Y-105123606D01*
X156824400Y-105057017D01*
X156824400Y-105040973D01*
X158992275Y-105040973D01*
X159022621Y-105187010D01*
X159022622Y-105187011D01*
X159022623Y-105187014D01*
X159058110Y-105255500D01*
X159091244Y-105319447D01*
X159140219Y-105371886D01*
X159193053Y-105428458D01*
X159320495Y-105505958D01*
X159320497Y-105505958D01*
X159320498Y-105505959D01*
X159320503Y-105505960D01*
X159464121Y-105546200D01*
X159464124Y-105546200D01*
X159575815Y-105546200D01*
X159599892Y-105542889D01*
X159629565Y-105538811D01*
X159644627Y-105539840D01*
X159667321Y-105546200D01*
X159667322Y-105546200D01*
X159779016Y-105546200D01*
X159849806Y-105536469D01*
X159864868Y-105537499D01*
X159895913Y-105546198D01*
X159895921Y-105546200D01*
X159895924Y-105546200D01*
X160007616Y-105546200D01*
X160118263Y-105530992D01*
X160118264Y-105530991D01*
X160118268Y-105530991D01*
X160125912Y-105527671D01*
X160146898Y-105518555D01*
X160255077Y-105471566D01*
X160370780Y-105377435D01*
X160456796Y-105255578D01*
X160506745Y-105115033D01*
X160510714Y-105057015D01*
X160516924Y-104966228D01*
X160516924Y-104966224D01*
X160486578Y-104820189D01*
X160486577Y-104820188D01*
X160486577Y-104820186D01*
X160417955Y-104687752D01*
X160316147Y-104578742D01*
X160188705Y-104501242D01*
X160188703Y-104501241D01*
X160188701Y-104501240D01*
X160188697Y-104501239D01*
X160045085Y-104461001D01*
X160045080Y-104461000D01*
X160045079Y-104461000D01*
X159933387Y-104461000D01*
X159933384Y-104461000D01*
X159862592Y-104470730D01*
X159847530Y-104469700D01*
X159816483Y-104461000D01*
X159816479Y-104461000D01*
X159704787Y-104461000D01*
X159704784Y-104461000D01*
X159651032Y-104468388D01*
X159635970Y-104467358D01*
X159632537Y-104466396D01*
X159613282Y-104461000D01*
X159613279Y-104461000D01*
X159501587Y-104461000D01*
X159501584Y-104461000D01*
X159390936Y-104476207D01*
X159390926Y-104476210D01*
X159254122Y-104535634D01*
X159138421Y-104629763D01*
X159052404Y-104751622D01*
X159002455Y-104892164D01*
X159002454Y-104892168D01*
X158992275Y-105040971D01*
X158992275Y-105040973D01*
X156824400Y-105040973D01*
X156824399Y-104950184D01*
X156818349Y-104883594D01*
X156770601Y-104730366D01*
X156687571Y-104593017D01*
X156574083Y-104479529D01*
X156574082Y-104479528D01*
X156492588Y-104430264D01*
X156436734Y-104396499D01*
X156436730Y-104396497D01*
X156436729Y-104396497D01*
X156283507Y-104348751D01*
X156283509Y-104348751D01*
X156243552Y-104345120D01*
X156216917Y-104342700D01*
X156216915Y-104342700D01*
X155805284Y-104342700D01*
X155738692Y-104348751D01*
X155585470Y-104396497D01*
X155585467Y-104396498D01*
X155585466Y-104396499D01*
X155560190Y-104411779D01*
X155448117Y-104479528D01*
X155334628Y-104593017D01*
X155270379Y-104699300D01*
X155253311Y-104727535D01*
X155251601Y-104730363D01*
X155251597Y-104730370D01*
X155203851Y-104883591D01*
X155197800Y-104950184D01*
X155197800Y-105057015D01*
X155203851Y-105123607D01*
X155250907Y-105274616D01*
X155251599Y-105276834D01*
X155297966Y-105353534D01*
X155334628Y-105414182D01*
X155351081Y-105430635D01*
X155361947Y-105456869D01*
X155353433Y-105480517D01*
X155273670Y-105576933D01*
X155273669Y-105576934D01*
X155205734Y-105721304D01*
X155205733Y-105721307D01*
X155175837Y-105878032D01*
X155093199Y-105878032D01*
X155093199Y-105779619D01*
X154894218Y-105978599D01*
X154623350Y-105978599D01*
X154634216Y-105952366D01*
X154751100Y-105835482D01*
X155093199Y-105493381D01*
X155093199Y-105437970D01*
X155093198Y-105437962D01*
X155081455Y-105378927D01*
X155036723Y-105311979D01*
X155036720Y-105311976D01*
X154969773Y-105267245D01*
X154969770Y-105267243D01*
X154910734Y-105255500D01*
X154591470Y-105255500D01*
X154591462Y-105255501D01*
X154532427Y-105267244D01*
X154472624Y-105307202D01*
X154444775Y-105312741D01*
X154405858Y-105305000D01*
X154096346Y-105305000D01*
X154096337Y-105305001D01*
X154051742Y-105313872D01*
X154021710Y-105333938D01*
X153993862Y-105339477D01*
X153980488Y-105333937D01*
X153950460Y-105313872D01*
X153905858Y-105305000D01*
X153596346Y-105305000D01*
X153596337Y-105305001D01*
X153551740Y-105313872D01*
X153537911Y-105323113D01*
X153510061Y-105328652D01*
X153486452Y-105312876D01*
X153480200Y-105292265D01*
X153480200Y-104714934D01*
X153491066Y-104688700D01*
X153517300Y-104677834D01*
X153537911Y-104684086D01*
X153551742Y-104693328D01*
X153596343Y-104702200D01*
X153905856Y-104702199D01*
X153905859Y-104702198D01*
X153905862Y-104702198D01*
X153916932Y-104699996D01*
X153950458Y-104693328D01*
X153980489Y-104673261D01*
X154008336Y-104667722D01*
X154021711Y-104673262D01*
X154051739Y-104693327D01*
X154051741Y-104693327D01*
X154051742Y-104693328D01*
X154096343Y-104702200D01*
X154405856Y-104702199D01*
X154444777Y-104694457D01*
X154472624Y-104699996D01*
X154472625Y-104699997D01*
X154532424Y-104739954D01*
X154532429Y-104739956D01*
X154591465Y-104751699D01*
X154910729Y-104751699D01*
X154910737Y-104751698D01*
X154969772Y-104739955D01*
X155036720Y-104695223D01*
X155036723Y-104695220D01*
X155081454Y-104628273D01*
X155081456Y-104628270D01*
X155093199Y-104569238D01*
X155093199Y-104513817D01*
X154634216Y-104054834D01*
X154623350Y-104028600D01*
X154623350Y-104028599D01*
X154894218Y-104028599D01*
X155093199Y-104227580D01*
X155093199Y-103829619D01*
X154894218Y-104028599D01*
X154623350Y-104028599D01*
X154634216Y-104002366D01*
X154751100Y-103885482D01*
X155093199Y-103543381D01*
X155093199Y-103487970D01*
X155093198Y-103487962D01*
X155081455Y-103428927D01*
X155036723Y-103361979D01*
X155036720Y-103361976D01*
X154969773Y-103317245D01*
X154969770Y-103317243D01*
X154910734Y-103305500D01*
X154591470Y-103305500D01*
X154591462Y-103305501D01*
X154532427Y-103317244D01*
X154531491Y-103317632D01*
X154530479Y-103317631D01*
X154528845Y-103317957D01*
X154528780Y-103317631D01*
X154503096Y-103317626D01*
X154483021Y-103297544D01*
X154480200Y-103283353D01*
X154480200Y-103153863D01*
X154491065Y-103127630D01*
X155338045Y-102280649D01*
X155364278Y-102269784D01*
X155390512Y-102280650D01*
X155393711Y-102284299D01*
X155462313Y-102373702D01*
X155466084Y-102378616D01*
X155466088Y-102378619D01*
X155466089Y-102378620D01*
X155587634Y-102471885D01*
X155587636Y-102471885D01*
X155587639Y-102471888D01*
X155729194Y-102530522D01*
X155881100Y-102550521D01*
X156033006Y-102530522D01*
X156174561Y-102471888D01*
X156296116Y-102378616D01*
X156389388Y-102257061D01*
X156448022Y-102115506D01*
X156468021Y-101963600D01*
X156448022Y-101811694D01*
X156389388Y-101670140D01*
X156389385Y-101670137D01*
X156389385Y-101670135D01*
X156306706Y-101562385D01*
X156299356Y-101534957D01*
X156313554Y-101510367D01*
X156336139Y-101502700D01*
X160049107Y-101502700D01*
X160075341Y-101513566D01*
G37*
%TD.AperFunction*%
%TA.AperFunction,Conductor*%
G36*
X166486807Y-107617587D02*
G01*
X166491857Y-107617018D01*
X166519143Y-107624879D01*
X166532794Y-107649041D01*
X166544178Y-107735506D01*
X166544178Y-107735508D01*
X166544179Y-107735509D01*
X166559792Y-107773202D01*
X166559792Y-107801598D01*
X166539714Y-107821676D01*
X166525516Y-107824500D01*
X166370939Y-107824500D01*
X166344705Y-107813634D01*
X166333839Y-107787400D01*
X166343236Y-107764712D01*
X166343687Y-107760707D01*
X166058190Y-107475209D01*
X166110134Y-107447099D01*
X166190513Y-107359784D01*
X166202248Y-107333028D01*
X166486807Y-107617587D01*
G37*
%TD.AperFunction*%
%TA.AperFunction,Conductor*%
G36*
X143856027Y-100694365D02*
G01*
X144803354Y-101641693D01*
X145736617Y-102574956D01*
X145743592Y-102584650D01*
X145743864Y-102585196D01*
X145743865Y-102585197D01*
X145743866Y-102585199D01*
X145774782Y-102613383D01*
X145777416Y-102615784D01*
X145778036Y-102616375D01*
X145791518Y-102629857D01*
X145791522Y-102629860D01*
X145795828Y-102632810D01*
X145797839Y-102634402D01*
X145806894Y-102642657D01*
X145821197Y-102655697D01*
X145821198Y-102655697D01*
X145821199Y-102655698D01*
X145835694Y-102661313D01*
X145843255Y-102665298D01*
X145856084Y-102674086D01*
X145868389Y-102676980D01*
X145886846Y-102681321D01*
X145889303Y-102682081D01*
X145918778Y-102693500D01*
X145934326Y-102693500D01*
X145942819Y-102694485D01*
X145950393Y-102696265D01*
X145957949Y-102698043D01*
X145989246Y-102693677D01*
X145991807Y-102693500D01*
X147834110Y-102693500D01*
X147860344Y-102704366D01*
X147863543Y-102708015D01*
X147956079Y-102828610D01*
X147956084Y-102828616D01*
X147956088Y-102828619D01*
X147956089Y-102828620D01*
X148077634Y-102921885D01*
X148077636Y-102921885D01*
X148077639Y-102921888D01*
X148219194Y-102980522D01*
X148371100Y-103000521D01*
X148523006Y-102980522D01*
X148664561Y-102921888D01*
X148786116Y-102828616D01*
X148841761Y-102756098D01*
X148867171Y-102722983D01*
X148891761Y-102708785D01*
X148919189Y-102716135D01*
X148922838Y-102719334D01*
X149446923Y-103243419D01*
X149457789Y-103269653D01*
X149446923Y-103295887D01*
X149420689Y-103306753D01*
X149413453Y-103306041D01*
X149410732Y-103305500D01*
X149091470Y-103305500D01*
X149091462Y-103305501D01*
X149032427Y-103317244D01*
X148965479Y-103361976D01*
X148965476Y-103361979D01*
X148920745Y-103428926D01*
X148920743Y-103428929D01*
X148909000Y-103487961D01*
X148909000Y-103543381D01*
X149251100Y-103885482D01*
X149367984Y-104002366D01*
X149378850Y-104028600D01*
X149367984Y-104054834D01*
X148909000Y-104513817D01*
X148909000Y-104569229D01*
X148909001Y-104569237D01*
X148920744Y-104628272D01*
X148965476Y-104695220D01*
X148965479Y-104695223D01*
X149032426Y-104739954D01*
X149032429Y-104739956D01*
X149091465Y-104751699D01*
X149410729Y-104751699D01*
X149410737Y-104751698D01*
X149469773Y-104739955D01*
X149529573Y-104699998D01*
X149557423Y-104694458D01*
X149596343Y-104702200D01*
X149905856Y-104702199D01*
X149905859Y-104702198D01*
X149905862Y-104702198D01*
X149916932Y-104699996D01*
X149950458Y-104693328D01*
X149980489Y-104673261D01*
X150008336Y-104667722D01*
X150021711Y-104673262D01*
X150051739Y-104693327D01*
X150051741Y-104693327D01*
X150051742Y-104693328D01*
X150096343Y-104702200D01*
X150405856Y-104702199D01*
X150405859Y-104702198D01*
X150405862Y-104702198D01*
X150416932Y-104699996D01*
X150450458Y-104693328D01*
X150480489Y-104673261D01*
X150508336Y-104667722D01*
X150521711Y-104673262D01*
X150551739Y-104693327D01*
X150551741Y-104693327D01*
X150551742Y-104693328D01*
X150596343Y-104702200D01*
X150905856Y-104702199D01*
X150905859Y-104702198D01*
X150905862Y-104702198D01*
X150916932Y-104699996D01*
X150950458Y-104693328D01*
X150980489Y-104673261D01*
X151008336Y-104667722D01*
X151021711Y-104673262D01*
X151051739Y-104693327D01*
X151051741Y-104693327D01*
X151051742Y-104693328D01*
X151096343Y-104702200D01*
X151405856Y-104702199D01*
X151405859Y-104702198D01*
X151405862Y-104702198D01*
X151416932Y-104699996D01*
X151450458Y-104693328D01*
X151480489Y-104673261D01*
X151508336Y-104667722D01*
X151521711Y-104673262D01*
X151551739Y-104693327D01*
X151551741Y-104693327D01*
X151551742Y-104693328D01*
X151596343Y-104702200D01*
X151778935Y-104702199D01*
X151805169Y-104713065D01*
X151816035Y-104739299D01*
X151805169Y-104765533D01*
X151593665Y-104977035D01*
X151592961Y-104977703D01*
X151561614Y-105005929D01*
X151561613Y-105005930D01*
X151550328Y-105031275D01*
X151547552Y-105036386D01*
X151532440Y-105059660D01*
X151532439Y-105059663D01*
X151530302Y-105073148D01*
X151527553Y-105082428D01*
X151522000Y-105094903D01*
X151522000Y-105122652D01*
X151521542Y-105128456D01*
X151517203Y-105155858D01*
X151518625Y-105161163D01*
X151520736Y-105169043D01*
X151522000Y-105178645D01*
X151522000Y-105292265D01*
X151511134Y-105318499D01*
X151484900Y-105329365D01*
X151464288Y-105323112D01*
X151450460Y-105313872D01*
X151405858Y-105305000D01*
X151096346Y-105305000D01*
X151096337Y-105305001D01*
X151051742Y-105313872D01*
X151021710Y-105333938D01*
X150993862Y-105339477D01*
X150980488Y-105333937D01*
X150950460Y-105313872D01*
X150905858Y-105305000D01*
X150596346Y-105305000D01*
X150596337Y-105305001D01*
X150551742Y-105313872D01*
X150521710Y-105333938D01*
X150493862Y-105339477D01*
X150480488Y-105333937D01*
X150450460Y-105313872D01*
X150405858Y-105305000D01*
X150096346Y-105305000D01*
X150096337Y-105305001D01*
X150051742Y-105313872D01*
X150021710Y-105333938D01*
X149993862Y-105339477D01*
X149980488Y-105333937D01*
X149950460Y-105313872D01*
X149905858Y-105305000D01*
X149596346Y-105305000D01*
X149596335Y-105305002D01*
X149557422Y-105312741D01*
X149529573Y-105307202D01*
X149469771Y-105267244D01*
X149469770Y-105267243D01*
X149410734Y-105255500D01*
X149091470Y-105255500D01*
X149091462Y-105255501D01*
X149032427Y-105267244D01*
X148965479Y-105311976D01*
X148965476Y-105311979D01*
X148920745Y-105378926D01*
X148920743Y-105378929D01*
X148909000Y-105437961D01*
X148909000Y-105493381D01*
X149251100Y-105835482D01*
X149367984Y-105952366D01*
X149378850Y-105978600D01*
X149367984Y-106004834D01*
X148909000Y-106463817D01*
X148909000Y-106519229D01*
X148909001Y-106519237D01*
X148920744Y-106578272D01*
X148925900Y-106585989D01*
X148931439Y-106613838D01*
X148915663Y-106637448D01*
X148895052Y-106643700D01*
X146652406Y-106643700D01*
X146626172Y-106632834D01*
X145772957Y-105779619D01*
X148909000Y-105779619D01*
X148909000Y-106177579D01*
X149107980Y-105978599D01*
X148909000Y-105779619D01*
X145772957Y-105779619D01*
X145050353Y-105057015D01*
X147177800Y-105057015D01*
X147183851Y-105123607D01*
X147230907Y-105274616D01*
X147231599Y-105276834D01*
X147277966Y-105353534D01*
X147314323Y-105413678D01*
X147314629Y-105414183D01*
X147428117Y-105527671D01*
X147565466Y-105610701D01*
X147718691Y-105658448D01*
X147718694Y-105658449D01*
X147785283Y-105664500D01*
X148196916Y-105664499D01*
X148263506Y-105658449D01*
X148416734Y-105610701D01*
X148554083Y-105527671D01*
X148667571Y-105414183D01*
X148750601Y-105276834D01*
X148798349Y-105123606D01*
X148804400Y-105057017D01*
X148804399Y-104950184D01*
X148798349Y-104883594D01*
X148750601Y-104730366D01*
X148667571Y-104593017D01*
X148651118Y-104576564D01*
X148640252Y-104550330D01*
X148648766Y-104526681D01*
X148728531Y-104430264D01*
X148796466Y-104285895D01*
X148826363Y-104129167D01*
X148816344Y-103969928D01*
X148816343Y-103969925D01*
X148816343Y-103969923D01*
X148816342Y-103969921D01*
X148770756Y-103829619D01*
X148909000Y-103829619D01*
X148909000Y-104227578D01*
X149107980Y-104028599D01*
X148909000Y-103829619D01*
X148770756Y-103829619D01*
X148767040Y-103818183D01*
X148767038Y-103818179D01*
X148681550Y-103683473D01*
X148681547Y-103683469D01*
X148619494Y-103625197D01*
X148565236Y-103574245D01*
X148425418Y-103497380D01*
X148425417Y-103497379D01*
X148425416Y-103497379D01*
X148270883Y-103457701D01*
X148270879Y-103457700D01*
X148270877Y-103457700D01*
X148151370Y-103457700D01*
X148151363Y-103457700D01*
X148032808Y-103472676D01*
X147884454Y-103531414D01*
X147755373Y-103625197D01*
X147653669Y-103748136D01*
X147585734Y-103892504D01*
X147585733Y-103892507D01*
X147555837Y-104049232D01*
X147565856Y-104208476D01*
X147565857Y-104208478D01*
X147609691Y-104343389D01*
X147607463Y-104371696D01*
X147585871Y-104390137D01*
X147585490Y-104390258D01*
X147565466Y-104396499D01*
X147540190Y-104411779D01*
X147428117Y-104479528D01*
X147314628Y-104593017D01*
X147250379Y-104699300D01*
X147233311Y-104727535D01*
X147231601Y-104730363D01*
X147231597Y-104730370D01*
X147183851Y-104883591D01*
X147177800Y-104950184D01*
X147177800Y-105057015D01*
X145050353Y-105057015D01*
X144965583Y-104972245D01*
X144958604Y-104962544D01*
X144958333Y-104961999D01*
X144939930Y-104945223D01*
X144924748Y-104931383D01*
X144924149Y-104930811D01*
X144910680Y-104917342D01*
X144906371Y-104914390D01*
X144904360Y-104912797D01*
X144881732Y-104892168D01*
X144881000Y-104891501D01*
X144866502Y-104885885D01*
X144858937Y-104881897D01*
X144846116Y-104873114D01*
X144815348Y-104865877D01*
X144812892Y-104865116D01*
X144783423Y-104853700D01*
X144783422Y-104853700D01*
X144767877Y-104853700D01*
X144759383Y-104852715D01*
X144744252Y-104849156D01*
X144744249Y-104849156D01*
X144731515Y-104850932D01*
X144712948Y-104853522D01*
X144710388Y-104853700D01*
X141932406Y-104853700D01*
X141906172Y-104842834D01*
X141308105Y-104244767D01*
X141297239Y-104218533D01*
X141308103Y-104192302D01*
X141332664Y-104167742D01*
X141357928Y-104129931D01*
X141366799Y-104085336D01*
X141975399Y-104085336D01*
X141981363Y-104115314D01*
X141984271Y-104129932D01*
X142009535Y-104167742D01*
X142506958Y-104665164D01*
X142544769Y-104690428D01*
X142567374Y-104694924D01*
X142589364Y-104699299D01*
X142589366Y-104699299D01*
X142589370Y-104699300D01*
X143292832Y-104699301D01*
X143337432Y-104690429D01*
X143375242Y-104665165D01*
X143872664Y-104167742D01*
X143897928Y-104129931D01*
X143906800Y-104085330D01*
X143906801Y-103381868D01*
X143897929Y-103337268D01*
X143872665Y-103299458D01*
X143375242Y-102802036D01*
X143337431Y-102776772D01*
X143337430Y-102776771D01*
X143337429Y-102776771D01*
X143292835Y-102767900D01*
X143292827Y-102767899D01*
X142589363Y-102767899D01*
X142544771Y-102776770D01*
X142544768Y-102776771D01*
X142506958Y-102802035D01*
X142009536Y-103299457D01*
X141984273Y-103337267D01*
X141984271Y-103337270D01*
X141975400Y-103381864D01*
X141975399Y-103381872D01*
X141975399Y-104085336D01*
X141366799Y-104085336D01*
X141366800Y-104085330D01*
X141366801Y-103381868D01*
X141357929Y-103337268D01*
X141332665Y-103299458D01*
X140835242Y-102802036D01*
X140797431Y-102776772D01*
X140788510Y-102774997D01*
X140752834Y-102767900D01*
X140752828Y-102767899D01*
X140667300Y-102767899D01*
X140641066Y-102757032D01*
X140630200Y-102730799D01*
X140630200Y-101543864D01*
X140641066Y-101517630D01*
X141155131Y-101003566D01*
X141181365Y-100992700D01*
X141918957Y-100992700D01*
X141945191Y-101003566D01*
X141956057Y-101029800D01*
X141954792Y-101039405D01*
X141954178Y-101041692D01*
X141942738Y-101128589D01*
X141934179Y-101193600D01*
X141954178Y-101345506D01*
X142011591Y-101484114D01*
X142012814Y-101487065D01*
X142106079Y-101608610D01*
X142106084Y-101608616D01*
X142106088Y-101608619D01*
X142106089Y-101608620D01*
X142227634Y-101701885D01*
X142227636Y-101701885D01*
X142227639Y-101701888D01*
X142369194Y-101760522D01*
X142521100Y-101780521D01*
X142673006Y-101760522D01*
X142814561Y-101701888D01*
X142936116Y-101608616D01*
X143029388Y-101487061D01*
X143088022Y-101345506D01*
X143108021Y-101193600D01*
X143088022Y-101041694D01*
X143029388Y-100900140D01*
X143029385Y-100900137D01*
X143029385Y-100900135D01*
X142936120Y-100778589D01*
X142936119Y-100778588D01*
X142936116Y-100778584D01*
X142936111Y-100778580D01*
X142936110Y-100778579D01*
X142898908Y-100750033D01*
X142884710Y-100725442D01*
X142892060Y-100698015D01*
X142916651Y-100683817D01*
X142921493Y-100683500D01*
X143829794Y-100683500D01*
X143856027Y-100694365D01*
G37*
%TD.AperFunction*%
%TA.AperFunction,Conductor*%
G36*
X177501700Y-100029140D02*
G01*
X177757612Y-100045913D01*
X177760019Y-100046229D01*
X178010955Y-100096143D01*
X178013285Y-100096768D01*
X178255565Y-100179012D01*
X178257796Y-100179936D01*
X178487260Y-100293095D01*
X178489358Y-100294307D01*
X178702090Y-100436450D01*
X178704016Y-100437928D01*
X178896379Y-100606626D01*
X178898073Y-100608320D01*
X179056396Y-100788853D01*
X179066770Y-100800682D01*
X179068249Y-100802609D01*
X179210392Y-101015341D01*
X179211607Y-101017445D01*
X179324762Y-101246902D01*
X179325690Y-101249142D01*
X179358402Y-101345506D01*
X179407929Y-101491408D01*
X179408558Y-101493754D01*
X179458469Y-101744678D01*
X179458786Y-101747087D01*
X179475560Y-102002999D01*
X179475600Y-102004213D01*
X179475600Y-108002986D01*
X179475560Y-108004200D01*
X179458786Y-108260112D01*
X179458469Y-108262521D01*
X179408558Y-108513445D01*
X179407929Y-108515791D01*
X179325692Y-108758053D01*
X179324762Y-108760297D01*
X179211607Y-108989754D01*
X179210392Y-108991858D01*
X179068249Y-109204590D01*
X179066770Y-109206517D01*
X179030832Y-109247497D01*
X178898080Y-109398871D01*
X178896371Y-109400580D01*
X178839880Y-109450122D01*
X178704017Y-109569270D01*
X178702090Y-109570749D01*
X178489358Y-109712892D01*
X178487254Y-109714107D01*
X178257797Y-109827262D01*
X178255553Y-109828192D01*
X178013291Y-109910429D01*
X178010945Y-109911058D01*
X177760021Y-109960969D01*
X177757612Y-109961286D01*
X177501700Y-109978060D01*
X177500486Y-109978100D01*
X119501714Y-109978100D01*
X119500500Y-109978060D01*
X119244587Y-109961286D01*
X119242178Y-109960969D01*
X118991254Y-109911058D01*
X118988908Y-109910429D01*
X118867776Y-109869310D01*
X118746642Y-109828190D01*
X118744402Y-109827262D01*
X118514945Y-109714107D01*
X118512841Y-109712892D01*
X118300109Y-109570749D01*
X118298182Y-109569270D01*
X118267040Y-109541959D01*
X118105820Y-109400573D01*
X118104126Y-109398879D01*
X117935428Y-109206516D01*
X117933950Y-109204590D01*
X117791807Y-108991858D01*
X117790595Y-108989760D01*
X117677436Y-108760296D01*
X117676512Y-108758065D01*
X117594268Y-108515785D01*
X117593643Y-108513455D01*
X117543729Y-108262519D01*
X117543413Y-108260112D01*
X117526640Y-108004200D01*
X117526600Y-108002986D01*
X117526600Y-106630213D01*
X119065900Y-106630213D01*
X119077644Y-106689243D01*
X119077644Y-106689244D01*
X119111086Y-106739294D01*
X119291686Y-106919894D01*
X119657495Y-106554084D01*
X119693231Y-106609690D01*
X119797648Y-106700168D01*
X119434804Y-107063013D01*
X119615406Y-107243615D01*
X119665453Y-107277054D01*
X119665456Y-107277056D01*
X119724488Y-107288799D01*
X119724497Y-107288800D01*
X120437708Y-107288800D01*
X120437713Y-107288799D01*
X120496744Y-107277055D01*
X120546794Y-107243613D01*
X120727394Y-107063013D01*
X120364550Y-106700169D01*
X120468969Y-106609690D01*
X120504704Y-106554085D01*
X120870513Y-106919894D01*
X121051115Y-106739293D01*
X121084554Y-106689246D01*
X121084556Y-106689243D01*
X121096299Y-106630213D01*
X121605900Y-106630213D01*
X121617644Y-106689243D01*
X121617644Y-106689244D01*
X121651086Y-106739294D01*
X121831686Y-106919894D01*
X122197495Y-106554084D01*
X122233231Y-106609690D01*
X122337648Y-106700168D01*
X121974804Y-107063013D01*
X122155406Y-107243615D01*
X122205453Y-107277054D01*
X122205456Y-107277056D01*
X122264488Y-107288799D01*
X122264497Y-107288800D01*
X122977708Y-107288800D01*
X122977713Y-107288799D01*
X123036744Y-107277055D01*
X123086794Y-107243613D01*
X123267394Y-107063013D01*
X122904550Y-106700169D01*
X123008969Y-106609690D01*
X123044704Y-106554085D01*
X123410513Y-106919894D01*
X123591115Y-106739293D01*
X123624554Y-106689246D01*
X123624556Y-106689243D01*
X123636299Y-106630213D01*
X124145900Y-106630213D01*
X124157644Y-106689243D01*
X124157644Y-106689244D01*
X124191086Y-106739294D01*
X124371686Y-106919894D01*
X124737495Y-106554084D01*
X124773231Y-106609690D01*
X124877648Y-106700168D01*
X124514804Y-107063013D01*
X124695406Y-107243615D01*
X124745453Y-107277054D01*
X124745456Y-107277056D01*
X124804488Y-107288799D01*
X124804497Y-107288800D01*
X125517708Y-107288800D01*
X125517713Y-107288799D01*
X125576744Y-107277055D01*
X125626794Y-107243613D01*
X125807394Y-107063013D01*
X125444550Y-106700169D01*
X125548969Y-106609690D01*
X125584704Y-106554085D01*
X125950513Y-106919894D01*
X126131115Y-106739293D01*
X126164554Y-106689246D01*
X126164556Y-106689243D01*
X126176299Y-106630213D01*
X126685900Y-106630213D01*
X126697644Y-106689243D01*
X126697644Y-106689244D01*
X126731086Y-106739294D01*
X126911686Y-106919894D01*
X127277495Y-106554084D01*
X127313231Y-106609690D01*
X127417648Y-106700168D01*
X127054804Y-107063013D01*
X127235406Y-107243615D01*
X127285453Y-107277054D01*
X127285456Y-107277056D01*
X127344488Y-107288799D01*
X127344497Y-107288800D01*
X128057708Y-107288800D01*
X128057713Y-107288799D01*
X128116744Y-107277055D01*
X128166794Y-107243613D01*
X128347394Y-107063013D01*
X127984550Y-106700169D01*
X128088969Y-106609690D01*
X128124704Y-106554085D01*
X128490513Y-106919894D01*
X128671115Y-106739293D01*
X128704554Y-106689246D01*
X128704556Y-106689243D01*
X128716299Y-106630213D01*
X129225900Y-106630213D01*
X129237644Y-106689243D01*
X129237644Y-106689244D01*
X129271086Y-106739294D01*
X129451686Y-106919894D01*
X129817495Y-106554084D01*
X129853231Y-106609690D01*
X129957648Y-106700168D01*
X129594804Y-107063013D01*
X129775406Y-107243615D01*
X129825453Y-107277054D01*
X129825456Y-107277056D01*
X129884488Y-107288799D01*
X129884497Y-107288800D01*
X130597708Y-107288800D01*
X130597713Y-107288799D01*
X130656744Y-107277055D01*
X130706794Y-107243613D01*
X130887394Y-107063013D01*
X130524550Y-106700169D01*
X130628969Y-106609690D01*
X130664704Y-106554085D01*
X131030513Y-106919894D01*
X131211115Y-106739293D01*
X131244554Y-106689246D01*
X131244556Y-106689243D01*
X131256299Y-106630213D01*
X131765900Y-106630213D01*
X131777644Y-106689243D01*
X131777644Y-106689244D01*
X131811086Y-106739294D01*
X131991686Y-106919894D01*
X132357495Y-106554084D01*
X132393231Y-106609690D01*
X132497648Y-106700168D01*
X132134804Y-107063013D01*
X132315406Y-107243615D01*
X132365453Y-107277054D01*
X132365456Y-107277056D01*
X132424488Y-107288799D01*
X132424497Y-107288800D01*
X133137708Y-107288800D01*
X133137713Y-107288799D01*
X133196744Y-107277055D01*
X133246794Y-107243613D01*
X133427394Y-107063013D01*
X133064550Y-106700169D01*
X133168969Y-106609690D01*
X133204704Y-106554085D01*
X133570513Y-106919894D01*
X133751115Y-106739293D01*
X133784554Y-106689246D01*
X133784556Y-106689243D01*
X133796299Y-106630213D01*
X134305900Y-106630213D01*
X134317644Y-106689243D01*
X134317644Y-106689244D01*
X134351086Y-106739294D01*
X134531686Y-106919894D01*
X134897495Y-106554084D01*
X134933231Y-106609690D01*
X135037648Y-106700168D01*
X134674804Y-107063013D01*
X134855406Y-107243615D01*
X134905453Y-107277054D01*
X134905456Y-107277056D01*
X134964488Y-107288799D01*
X134964497Y-107288800D01*
X135677708Y-107288800D01*
X135677713Y-107288799D01*
X135736744Y-107277055D01*
X135786794Y-107243613D01*
X135967394Y-107063013D01*
X135604550Y-106700169D01*
X135708969Y-106609690D01*
X135744704Y-106554085D01*
X136110513Y-106919894D01*
X136291115Y-106739293D01*
X136324554Y-106689246D01*
X136324556Y-106689243D01*
X136336299Y-106630213D01*
X136845900Y-106630213D01*
X136857644Y-106689243D01*
X136857644Y-106689244D01*
X136891086Y-106739294D01*
X137071686Y-106919894D01*
X137437495Y-106554084D01*
X137473231Y-106609690D01*
X137577648Y-106700168D01*
X137214804Y-107063013D01*
X137395406Y-107243615D01*
X137445453Y-107277054D01*
X137445456Y-107277056D01*
X137504488Y-107288799D01*
X137504497Y-107288800D01*
X138217708Y-107288800D01*
X138217713Y-107288799D01*
X138276744Y-107277055D01*
X138326794Y-107243613D01*
X138507394Y-107063013D01*
X138144550Y-106700169D01*
X138248969Y-106609690D01*
X138284704Y-106554085D01*
X138650513Y-106919894D01*
X138831115Y-106739293D01*
X138864554Y-106689246D01*
X138864556Y-106689243D01*
X138876299Y-106630213D01*
X139385900Y-106630213D01*
X139397644Y-106689243D01*
X139397644Y-106689244D01*
X139431086Y-106739294D01*
X139611686Y-106919894D01*
X139977495Y-106554084D01*
X140013231Y-106609690D01*
X140117648Y-106700168D01*
X139754804Y-107063013D01*
X139935406Y-107243615D01*
X139985453Y-107277054D01*
X139985456Y-107277056D01*
X140044488Y-107288799D01*
X140044497Y-107288800D01*
X140757708Y-107288800D01*
X140757713Y-107288799D01*
X140816744Y-107277055D01*
X140866794Y-107243613D01*
X141047394Y-107063013D01*
X140684550Y-106700169D01*
X140788969Y-106609690D01*
X140824704Y-106554085D01*
X141190513Y-106919894D01*
X141371115Y-106739293D01*
X141404554Y-106689246D01*
X141404556Y-106689243D01*
X141416299Y-106630211D01*
X141416300Y-106630203D01*
X141416300Y-105916992D01*
X141416299Y-105916986D01*
X141404555Y-105857955D01*
X141371113Y-105807905D01*
X141190513Y-105627305D01*
X140824703Y-105993113D01*
X140788969Y-105937510D01*
X140684549Y-105847029D01*
X141047394Y-105484185D01*
X140866793Y-105303584D01*
X140816746Y-105270145D01*
X140816743Y-105270143D01*
X140757711Y-105258400D01*
X140044486Y-105258400D01*
X139985455Y-105270144D01*
X139935402Y-105303588D01*
X139754805Y-105484185D01*
X140117649Y-105847030D01*
X140013231Y-105937510D01*
X139977495Y-105993114D01*
X139611685Y-105627304D01*
X139431086Y-105807903D01*
X139397645Y-105857953D01*
X139397643Y-105857956D01*
X139385900Y-105916988D01*
X139385900Y-106630213D01*
X138876299Y-106630213D01*
X138876299Y-106630211D01*
X138876300Y-106630203D01*
X138876300Y-105916992D01*
X138876299Y-105916986D01*
X138864555Y-105857955D01*
X138831113Y-105807905D01*
X138650513Y-105627305D01*
X138284703Y-105993113D01*
X138248969Y-105937510D01*
X138144549Y-105847029D01*
X138507394Y-105484185D01*
X138326793Y-105303584D01*
X138276746Y-105270145D01*
X138276743Y-105270143D01*
X138217711Y-105258400D01*
X137504486Y-105258400D01*
X137445455Y-105270144D01*
X137395402Y-105303588D01*
X137214805Y-105484186D01*
X137577649Y-105847030D01*
X137473231Y-105937510D01*
X137437495Y-105993114D01*
X137071685Y-105627304D01*
X136891086Y-105807903D01*
X136857645Y-105857953D01*
X136857643Y-105857956D01*
X136845900Y-105916988D01*
X136845900Y-106630213D01*
X136336299Y-106630213D01*
X136336299Y-106630211D01*
X136336300Y-106630203D01*
X136336300Y-105916992D01*
X136336299Y-105916986D01*
X136324555Y-105857955D01*
X136291113Y-105807905D01*
X136110513Y-105627305D01*
X135744703Y-105993113D01*
X135708969Y-105937510D01*
X135604549Y-105847029D01*
X135967394Y-105484185D01*
X135786793Y-105303584D01*
X135736746Y-105270145D01*
X135736743Y-105270143D01*
X135677711Y-105258400D01*
X134964486Y-105258400D01*
X134905455Y-105270144D01*
X134855402Y-105303588D01*
X134674805Y-105484186D01*
X135037649Y-105847030D01*
X134933231Y-105937510D01*
X134897495Y-105993114D01*
X134531685Y-105627304D01*
X134351086Y-105807903D01*
X134317645Y-105857953D01*
X134317643Y-105857956D01*
X134305900Y-105916988D01*
X134305900Y-106630213D01*
X133796299Y-106630213D01*
X133796299Y-106630211D01*
X133796300Y-106630203D01*
X133796300Y-105916992D01*
X133796299Y-105916986D01*
X133784555Y-105857955D01*
X133751113Y-105807905D01*
X133570512Y-105627305D01*
X133204703Y-105993113D01*
X133168969Y-105937510D01*
X133064549Y-105847029D01*
X133427394Y-105484185D01*
X133246793Y-105303584D01*
X133196746Y-105270145D01*
X133196743Y-105270143D01*
X133137711Y-105258400D01*
X132424486Y-105258400D01*
X132365455Y-105270144D01*
X132315402Y-105303588D01*
X132134804Y-105484186D01*
X132497649Y-105847030D01*
X132393231Y-105937510D01*
X132357495Y-105993114D01*
X131991685Y-105627304D01*
X131811086Y-105807903D01*
X131777645Y-105857953D01*
X131777643Y-105857956D01*
X131765900Y-105916988D01*
X131765900Y-106630213D01*
X131256299Y-106630213D01*
X131256299Y-106630211D01*
X131256300Y-106630203D01*
X131256300Y-105916992D01*
X131256299Y-105916986D01*
X131244555Y-105857955D01*
X131211113Y-105807905D01*
X131030513Y-105627305D01*
X130664703Y-105993113D01*
X130628969Y-105937510D01*
X130524549Y-105847029D01*
X130887394Y-105484185D01*
X130706793Y-105303584D01*
X130656746Y-105270145D01*
X130656743Y-105270143D01*
X130597711Y-105258400D01*
X129884486Y-105258400D01*
X129825455Y-105270144D01*
X129775402Y-105303588D01*
X129594804Y-105484186D01*
X129957649Y-105847030D01*
X129853231Y-105937510D01*
X129817495Y-105993114D01*
X129451685Y-105627304D01*
X129271086Y-105807903D01*
X129237645Y-105857953D01*
X129237643Y-105857956D01*
X129225900Y-105916988D01*
X129225900Y-106630213D01*
X128716299Y-106630213D01*
X128716299Y-106630211D01*
X128716300Y-106630203D01*
X128716300Y-105916992D01*
X128716299Y-105916986D01*
X128704555Y-105857955D01*
X128671113Y-105807905D01*
X128490512Y-105627304D01*
X128124703Y-105993113D01*
X128088969Y-105937510D01*
X127984549Y-105847029D01*
X128347394Y-105484185D01*
X128166793Y-105303584D01*
X128116746Y-105270145D01*
X128116743Y-105270143D01*
X128057711Y-105258400D01*
X127344486Y-105258400D01*
X127285455Y-105270144D01*
X127235402Y-105303588D01*
X127054805Y-105484186D01*
X127417649Y-105847030D01*
X127313231Y-105937510D01*
X127277495Y-105993114D01*
X126911685Y-105627304D01*
X126731086Y-105807903D01*
X126697645Y-105857953D01*
X126697643Y-105857956D01*
X126685900Y-105916988D01*
X126685900Y-106630213D01*
X126176299Y-106630213D01*
X126176299Y-106630211D01*
X126176300Y-106630203D01*
X126176300Y-105916992D01*
X126176299Y-105916986D01*
X126164555Y-105857955D01*
X126131113Y-105807905D01*
X125950513Y-105627305D01*
X125584703Y-105993113D01*
X125548969Y-105937510D01*
X125444549Y-105847029D01*
X125807394Y-105484185D01*
X125626793Y-105303584D01*
X125576746Y-105270145D01*
X125576743Y-105270143D01*
X125517711Y-105258400D01*
X124804486Y-105258400D01*
X124745455Y-105270144D01*
X124695402Y-105303588D01*
X124514805Y-105484186D01*
X124877649Y-105847030D01*
X124773231Y-105937510D01*
X124737495Y-105993114D01*
X124371685Y-105627304D01*
X124191086Y-105807903D01*
X124157645Y-105857953D01*
X124157643Y-105857956D01*
X124145900Y-105916988D01*
X124145900Y-106630213D01*
X123636299Y-106630213D01*
X123636299Y-106630211D01*
X123636300Y-106630203D01*
X123636300Y-105916992D01*
X123636299Y-105916986D01*
X123624555Y-105857955D01*
X123591113Y-105807905D01*
X123410513Y-105627305D01*
X123044703Y-105993113D01*
X123008969Y-105937510D01*
X122904549Y-105847029D01*
X123267394Y-105484185D01*
X123086793Y-105303584D01*
X123036746Y-105270145D01*
X123036743Y-105270143D01*
X122977711Y-105258400D01*
X122264486Y-105258400D01*
X122205455Y-105270144D01*
X122155402Y-105303588D01*
X121974804Y-105484186D01*
X122337649Y-105847030D01*
X122233231Y-105937510D01*
X122197495Y-105993114D01*
X121831685Y-105627304D01*
X121651086Y-105807903D01*
X121617645Y-105857953D01*
X121617643Y-105857956D01*
X121605900Y-105916988D01*
X121605900Y-106630213D01*
X121096299Y-106630213D01*
X121096299Y-106630211D01*
X121096300Y-106630203D01*
X121096300Y-105916992D01*
X121096299Y-105916986D01*
X121084555Y-105857955D01*
X121051113Y-105807905D01*
X120870513Y-105627305D01*
X120504703Y-105993113D01*
X120468969Y-105937510D01*
X120364549Y-105847029D01*
X120727394Y-105484185D01*
X120546793Y-105303584D01*
X120496746Y-105270145D01*
X120496743Y-105270143D01*
X120437711Y-105258400D01*
X119724486Y-105258400D01*
X119665455Y-105270144D01*
X119615402Y-105303588D01*
X119434804Y-105484186D01*
X119797649Y-105847030D01*
X119693231Y-105937510D01*
X119657495Y-105993114D01*
X119291685Y-105627304D01*
X119111086Y-105807903D01*
X119077645Y-105857953D01*
X119077643Y-105857956D01*
X119065900Y-105916988D01*
X119065900Y-106630213D01*
X117526600Y-106630213D01*
X117526600Y-104085336D01*
X119115399Y-104085336D01*
X119121363Y-104115314D01*
X119124271Y-104129932D01*
X119149535Y-104167742D01*
X119646958Y-104665164D01*
X119684769Y-104690428D01*
X119707374Y-104694924D01*
X119729364Y-104699299D01*
X119729366Y-104699299D01*
X119729370Y-104699300D01*
X120432832Y-104699301D01*
X120477432Y-104690429D01*
X120515242Y-104665165D01*
X121012664Y-104167742D01*
X121037928Y-104129931D01*
X121046799Y-104085336D01*
X121655399Y-104085336D01*
X121661363Y-104115314D01*
X121664271Y-104129932D01*
X121689535Y-104167742D01*
X122186958Y-104665164D01*
X122224769Y-104690428D01*
X122247374Y-104694924D01*
X122269364Y-104699299D01*
X122269366Y-104699299D01*
X122269370Y-104699300D01*
X122972832Y-104699301D01*
X123017432Y-104690429D01*
X123055242Y-104665165D01*
X123552664Y-104167742D01*
X123577928Y-104129931D01*
X123586799Y-104085336D01*
X124195399Y-104085336D01*
X124201363Y-104115314D01*
X124204271Y-104129932D01*
X124229535Y-104167742D01*
X124726958Y-104665164D01*
X124764769Y-104690428D01*
X124787374Y-104694924D01*
X124809364Y-104699299D01*
X124809366Y-104699299D01*
X124809370Y-104699300D01*
X125512832Y-104699301D01*
X125557432Y-104690429D01*
X125595242Y-104665165D01*
X126092664Y-104167742D01*
X126117928Y-104129931D01*
X126126799Y-104085336D01*
X126735399Y-104085336D01*
X126741363Y-104115314D01*
X126744271Y-104129932D01*
X126769535Y-104167742D01*
X127266958Y-104665164D01*
X127304769Y-104690428D01*
X127327374Y-104694924D01*
X127349364Y-104699299D01*
X127349366Y-104699299D01*
X127349370Y-104699300D01*
X128052832Y-104699301D01*
X128097432Y-104690429D01*
X128135242Y-104665165D01*
X128632664Y-104167742D01*
X128657928Y-104129931D01*
X128666799Y-104085336D01*
X129275399Y-104085336D01*
X129281363Y-104115314D01*
X129284271Y-104129932D01*
X129309535Y-104167742D01*
X129806958Y-104665164D01*
X129844769Y-104690428D01*
X129867374Y-104694924D01*
X129889364Y-104699299D01*
X129889366Y-104699299D01*
X129889370Y-104699300D01*
X130592832Y-104699301D01*
X130637432Y-104690429D01*
X130675242Y-104665165D01*
X131172664Y-104167742D01*
X131197928Y-104129931D01*
X131206799Y-104085336D01*
X131815399Y-104085336D01*
X131821363Y-104115314D01*
X131824271Y-104129932D01*
X131849535Y-104167742D01*
X132346958Y-104665164D01*
X132384769Y-104690428D01*
X132407374Y-104694924D01*
X132429364Y-104699299D01*
X132429366Y-104699299D01*
X132429370Y-104699300D01*
X133132832Y-104699301D01*
X133177432Y-104690429D01*
X133215242Y-104665165D01*
X133712664Y-104167742D01*
X133737928Y-104129931D01*
X133746799Y-104085336D01*
X134355399Y-104085336D01*
X134361363Y-104115314D01*
X134364271Y-104129932D01*
X134389535Y-104167742D01*
X134886958Y-104665164D01*
X134924769Y-104690428D01*
X134947374Y-104694924D01*
X134969364Y-104699299D01*
X134969366Y-104699299D01*
X134969370Y-104699300D01*
X135672832Y-104699301D01*
X135717432Y-104690429D01*
X135755242Y-104665165D01*
X136252664Y-104167742D01*
X136277928Y-104129931D01*
X136286799Y-104085336D01*
X136895399Y-104085336D01*
X136901363Y-104115314D01*
X136904271Y-104129932D01*
X136929535Y-104167742D01*
X137426958Y-104665164D01*
X137464769Y-104690428D01*
X137487374Y-104694924D01*
X137509364Y-104699299D01*
X137509366Y-104699299D01*
X137509370Y-104699300D01*
X138212832Y-104699301D01*
X138257432Y-104690429D01*
X138295242Y-104665165D01*
X138792664Y-104167742D01*
X138817928Y-104129931D01*
X138826800Y-104085330D01*
X138826801Y-103381868D01*
X138817929Y-103337268D01*
X138792665Y-103299458D01*
X138295242Y-102802036D01*
X138257431Y-102776772D01*
X138257430Y-102776771D01*
X138257429Y-102776771D01*
X138212835Y-102767900D01*
X138212827Y-102767899D01*
X137509363Y-102767899D01*
X137464771Y-102776770D01*
X137464768Y-102776771D01*
X137426958Y-102802035D01*
X136929536Y-103299457D01*
X136904273Y-103337267D01*
X136904271Y-103337270D01*
X136895400Y-103381864D01*
X136895399Y-103381872D01*
X136895399Y-104085336D01*
X136286799Y-104085336D01*
X136286800Y-104085330D01*
X136286801Y-103381868D01*
X136277929Y-103337268D01*
X136252665Y-103299458D01*
X135755242Y-102802036D01*
X135717431Y-102776772D01*
X135717430Y-102776771D01*
X135717429Y-102776771D01*
X135672835Y-102767900D01*
X135672827Y-102767899D01*
X134969363Y-102767899D01*
X134924771Y-102776770D01*
X134924768Y-102776771D01*
X134886958Y-102802035D01*
X134389536Y-103299457D01*
X134364273Y-103337267D01*
X134364271Y-103337270D01*
X134355400Y-103381864D01*
X134355399Y-103381872D01*
X134355399Y-104085336D01*
X133746799Y-104085336D01*
X133746800Y-104085330D01*
X133746801Y-103381868D01*
X133737929Y-103337268D01*
X133712665Y-103299458D01*
X133215242Y-102802036D01*
X133177431Y-102776772D01*
X133177430Y-102776771D01*
X133177429Y-102776771D01*
X133132835Y-102767900D01*
X133132827Y-102767899D01*
X132429363Y-102767899D01*
X132384771Y-102776770D01*
X132384768Y-102776771D01*
X132346958Y-102802035D01*
X131849536Y-103299457D01*
X131824273Y-103337267D01*
X131824271Y-103337270D01*
X131815400Y-103381864D01*
X131815399Y-103381872D01*
X131815399Y-104085336D01*
X131206799Y-104085336D01*
X131206800Y-104085330D01*
X131206801Y-103381868D01*
X131197929Y-103337268D01*
X131172665Y-103299458D01*
X131148104Y-103274897D01*
X131137239Y-103248665D01*
X131148104Y-103222432D01*
X133676171Y-100694366D01*
X133702406Y-100683500D01*
X140737636Y-100683500D01*
X140763870Y-100694366D01*
X140774736Y-100720600D01*
X140763870Y-100746834D01*
X140243665Y-101267035D01*
X140242961Y-101267703D01*
X140211614Y-101295929D01*
X140211613Y-101295930D01*
X140200328Y-101321275D01*
X140197552Y-101326386D01*
X140182440Y-101349660D01*
X140182439Y-101349663D01*
X140180302Y-101363148D01*
X140177553Y-101372428D01*
X140172000Y-101384903D01*
X140172000Y-101412652D01*
X140171543Y-101418456D01*
X140167203Y-101445857D01*
X140170736Y-101459043D01*
X140172000Y-101468645D01*
X140172000Y-102730799D01*
X140161134Y-102757033D01*
X140134900Y-102767899D01*
X140049363Y-102767899D01*
X140004771Y-102776770D01*
X140004768Y-102776771D01*
X139966958Y-102802035D01*
X139469536Y-103299457D01*
X139444273Y-103337267D01*
X139444271Y-103337270D01*
X139435400Y-103381864D01*
X139435399Y-103381872D01*
X139435399Y-104085336D01*
X139441363Y-104115314D01*
X139444271Y-104129932D01*
X139469535Y-104167742D01*
X139966958Y-104665164D01*
X140004769Y-104690428D01*
X140027374Y-104694924D01*
X140049364Y-104699299D01*
X140049366Y-104699299D01*
X140049370Y-104699300D01*
X140752832Y-104699301D01*
X140797432Y-104690429D01*
X140835242Y-104665165D01*
X140859802Y-104640604D01*
X140886032Y-104629739D01*
X140912266Y-104640604D01*
X141566616Y-105294954D01*
X141573591Y-105304648D01*
X141573865Y-105305198D01*
X141573866Y-105305199D01*
X141607451Y-105335816D01*
X141608048Y-105336387D01*
X141614783Y-105343121D01*
X141621520Y-105349858D01*
X141624019Y-105351570D01*
X141625823Y-105352806D01*
X141627839Y-105354403D01*
X141647018Y-105371886D01*
X141651199Y-105375698D01*
X141665282Y-105381153D01*
X141665692Y-105381312D01*
X141673258Y-105385300D01*
X141686083Y-105394086D01*
X141716846Y-105401321D01*
X141719304Y-105402082D01*
X141735155Y-105408222D01*
X141748778Y-105413500D01*
X141764323Y-105413500D01*
X141772816Y-105414484D01*
X141787949Y-105418044D01*
X141819251Y-105413677D01*
X141821812Y-105413500D01*
X142275922Y-105413500D01*
X142302156Y-105424366D01*
X142313022Y-105450600D01*
X142302156Y-105476834D01*
X142294804Y-105484185D01*
X142657649Y-105847030D01*
X142553231Y-105937510D01*
X142517495Y-105993114D01*
X142151685Y-105627304D01*
X141971086Y-105807903D01*
X141937645Y-105857953D01*
X141937643Y-105857956D01*
X141925900Y-105916988D01*
X141925900Y-106630213D01*
X141937644Y-106689243D01*
X141937644Y-106689244D01*
X141971086Y-106739294D01*
X142151686Y-106919894D01*
X142517495Y-106554084D01*
X142553231Y-106609690D01*
X142657648Y-106700168D01*
X142294804Y-107063013D01*
X142475406Y-107243615D01*
X142525453Y-107277054D01*
X142525456Y-107277056D01*
X142584488Y-107288799D01*
X142584497Y-107288800D01*
X143297708Y-107288800D01*
X143297713Y-107288799D01*
X143356744Y-107277055D01*
X143406794Y-107243613D01*
X143587394Y-107063013D01*
X143224550Y-106700169D01*
X143328969Y-106609690D01*
X143364704Y-106554085D01*
X143730513Y-106919894D01*
X143911115Y-106739293D01*
X143944554Y-106689246D01*
X143944556Y-106689243D01*
X143956299Y-106630211D01*
X143956300Y-106630203D01*
X143956300Y-105916992D01*
X143956299Y-105916986D01*
X143944555Y-105857955D01*
X143911113Y-105807905D01*
X143730513Y-105627305D01*
X143364703Y-105993113D01*
X143328969Y-105937510D01*
X143224549Y-105847029D01*
X143587394Y-105484186D01*
X143580042Y-105476834D01*
X143569176Y-105450600D01*
X143580042Y-105424366D01*
X143606276Y-105413500D01*
X144599794Y-105413500D01*
X144626028Y-105424366D01*
X146286617Y-107084956D01*
X146293592Y-107094650D01*
X146293864Y-107095196D01*
X146293865Y-107095197D01*
X146293866Y-107095199D01*
X146320569Y-107119542D01*
X146327416Y-107125784D01*
X146328036Y-107126375D01*
X146341518Y-107139857D01*
X146341522Y-107139860D01*
X146345828Y-107142810D01*
X146347839Y-107144402D01*
X146354322Y-107150312D01*
X146371197Y-107165697D01*
X146371198Y-107165697D01*
X146371199Y-107165698D01*
X146385694Y-107171313D01*
X146393255Y-107175298D01*
X146406084Y-107184086D01*
X146422611Y-107187973D01*
X146436846Y-107191321D01*
X146439303Y-107192081D01*
X146468778Y-107203500D01*
X146484326Y-107203500D01*
X146492819Y-107204485D01*
X146500393Y-107206265D01*
X146507949Y-107208043D01*
X146539246Y-107203677D01*
X146541807Y-107203500D01*
X149388696Y-107203500D01*
X149414930Y-107214366D01*
X149425796Y-107240600D01*
X149414930Y-107266834D01*
X149407889Y-107272349D01*
X149396017Y-107279525D01*
X149282525Y-107393017D01*
X149249832Y-107447099D01*
X149200195Y-107529211D01*
X149199497Y-107530365D01*
X149199494Y-107530370D01*
X149151748Y-107683591D01*
X149145697Y-107750184D01*
X149145697Y-107857015D01*
X149151748Y-107923607D01*
X149192970Y-108055894D01*
X149199496Y-108076834D01*
X149244536Y-108151340D01*
X149280646Y-108211074D01*
X149282526Y-108214183D01*
X149396014Y-108327671D01*
X149533363Y-108410701D01*
X149686588Y-108458448D01*
X149686591Y-108458449D01*
X149753180Y-108464500D01*
X150749013Y-108464499D01*
X150815603Y-108458449D01*
X150968831Y-108410701D01*
X151106180Y-108327671D01*
X151219668Y-108214183D01*
X151233149Y-108191881D01*
X151256021Y-108175052D01*
X151284093Y-108179324D01*
X151300922Y-108202195D01*
X151302000Y-108211074D01*
X151302000Y-108373335D01*
X151291134Y-108399569D01*
X151127069Y-108563634D01*
X151100835Y-108574500D01*
X148450992Y-108574500D01*
X148424758Y-108563634D01*
X148413892Y-108537400D01*
X148414209Y-108532558D01*
X148416416Y-108515791D01*
X148418021Y-108503600D01*
X148398022Y-108351694D01*
X148339388Y-108210140D01*
X148339385Y-108210137D01*
X148339385Y-108210135D01*
X148246120Y-108088589D01*
X148246119Y-108088588D01*
X148246116Y-108088584D01*
X148246111Y-108088580D01*
X148246110Y-108088579D01*
X148124565Y-107995314D01*
X148124561Y-107995312D01*
X147983006Y-107936678D01*
X147831100Y-107916679D01*
X147679194Y-107936678D01*
X147679193Y-107936678D01*
X147537635Y-107995314D01*
X147416089Y-108088579D01*
X147416079Y-108088589D01*
X147322814Y-108210135D01*
X147264178Y-108351693D01*
X147264178Y-108351694D01*
X147255056Y-108420978D01*
X147240858Y-108445569D01*
X147213430Y-108452918D01*
X147188840Y-108438720D01*
X147165716Y-108408584D01*
X147165711Y-108408580D01*
X147165710Y-108408579D01*
X147044165Y-108315314D01*
X147044161Y-108315312D01*
X146902606Y-108256678D01*
X146750700Y-108236679D01*
X146750699Y-108236679D01*
X146598794Y-108256678D01*
X146598793Y-108256678D01*
X146457235Y-108315314D01*
X146335689Y-108408579D01*
X146335679Y-108408589D01*
X146242414Y-108530135D01*
X146183778Y-108671693D01*
X146183778Y-108671694D01*
X146164930Y-108814861D01*
X146163779Y-108823600D01*
X146183778Y-108975506D01*
X146228574Y-109083654D01*
X146242414Y-109117065D01*
X146335679Y-109238610D01*
X146335684Y-109238616D01*
X146335688Y-109238619D01*
X146335689Y-109238620D01*
X146457234Y-109331885D01*
X146457236Y-109331885D01*
X146457239Y-109331888D01*
X146598794Y-109390522D01*
X146750700Y-109410521D01*
X146902606Y-109390522D01*
X146971263Y-109362083D01*
X146999655Y-109362083D01*
X147013027Y-109371533D01*
X147023430Y-109383086D01*
X147048776Y-109394371D01*
X147053885Y-109397144D01*
X147077164Y-109412261D01*
X147090644Y-109414396D01*
X147099930Y-109417146D01*
X147112403Y-109422700D01*
X147140153Y-109422700D01*
X147145957Y-109423157D01*
X147173357Y-109427497D01*
X147173357Y-109427496D01*
X147173358Y-109427497D01*
X147186543Y-109423964D01*
X147196146Y-109422700D01*
X151454628Y-109422700D01*
X151455577Y-109422724D01*
X151497739Y-109424934D01*
X151523645Y-109414988D01*
X151529214Y-109413339D01*
X151556365Y-109407569D01*
X151567410Y-109399543D01*
X151575915Y-109394925D01*
X151588664Y-109390032D01*
X151608289Y-109370405D01*
X151612702Y-109366636D01*
X151635158Y-109350322D01*
X151641981Y-109338501D01*
X151647873Y-109330821D01*
X152030530Y-108948165D01*
X152031216Y-108947514D01*
X152062586Y-108919270D01*
X152065006Y-108913833D01*
X152085603Y-108894286D01*
X152113988Y-108895028D01*
X152125134Y-108902687D01*
X152378268Y-109155823D01*
X152378936Y-109156527D01*
X152391357Y-109170321D01*
X152407173Y-109187886D01*
X152432518Y-109199170D01*
X152437633Y-109201947D01*
X152460907Y-109217062D01*
X152474396Y-109219198D01*
X152483671Y-109221945D01*
X152496146Y-109227500D01*
X152498843Y-109227500D01*
X152513182Y-109231747D01*
X152513522Y-109230863D01*
X152517164Y-109232261D01*
X152530644Y-109234396D01*
X152539930Y-109237146D01*
X152552403Y-109242700D01*
X152580153Y-109242700D01*
X152585957Y-109243157D01*
X152613357Y-109247497D01*
X152613357Y-109247496D01*
X152613358Y-109247497D01*
X152626543Y-109243964D01*
X152636146Y-109242700D01*
X155684628Y-109242700D01*
X155685577Y-109242724D01*
X155727739Y-109244934D01*
X155753645Y-109234988D01*
X155759214Y-109233339D01*
X155786365Y-109227569D01*
X155797410Y-109219543D01*
X155805915Y-109214925D01*
X155818664Y-109210032D01*
X155838289Y-109190405D01*
X155842702Y-109186636D01*
X155865158Y-109170322D01*
X155871981Y-109158501D01*
X155877873Y-109150821D01*
X156315129Y-108713566D01*
X156341364Y-108702700D01*
X157100836Y-108702700D01*
X157127070Y-108713566D01*
X157879164Y-109465662D01*
X157879830Y-109466363D01*
X157894680Y-109482885D01*
X157905891Y-109495359D01*
X157907984Y-109497687D01*
X157929485Y-109507282D01*
X157933432Y-109509044D01*
X157938518Y-109511809D01*
X157961879Y-109526980D01*
X157961884Y-109526983D01*
X157975248Y-109529099D01*
X157984555Y-109531860D01*
X157996922Y-109537379D01*
X158024799Y-109537403D01*
X158030559Y-109537859D01*
X158058079Y-109542218D01*
X158071149Y-109538715D01*
X158080778Y-109537452D01*
X163133265Y-109541905D01*
X163143023Y-109543222D01*
X163155590Y-109546664D01*
X163183640Y-109542379D01*
X163189262Y-109541955D01*
X163193011Y-109541959D01*
X163209652Y-109538436D01*
X163210697Y-109538246D01*
X163213224Y-109537860D01*
X163251866Y-109531958D01*
X163251871Y-109531954D01*
X163251951Y-109531925D01*
X163264135Y-109526923D01*
X163264203Y-109526892D01*
X163264210Y-109526891D01*
X163297955Y-109502417D01*
X163298751Y-109501874D01*
X163301780Y-109499931D01*
X163329726Y-109494913D01*
X163344395Y-109501726D01*
X163357634Y-109511885D01*
X163357636Y-109511885D01*
X163357639Y-109511888D01*
X163499194Y-109570522D01*
X163651100Y-109590521D01*
X163803006Y-109570522D01*
X163944561Y-109511888D01*
X164066116Y-109418616D01*
X164159388Y-109297061D01*
X164218022Y-109155506D01*
X164238021Y-109003600D01*
X164238020Y-109003598D01*
X164238338Y-109001189D01*
X164239174Y-109001299D01*
X164248887Y-108977851D01*
X164275121Y-108966985D01*
X164301355Y-108977851D01*
X164774316Y-109450813D01*
X164774984Y-109451517D01*
X164803229Y-109482885D01*
X164803230Y-109482886D01*
X164828575Y-109494170D01*
X164833689Y-109496947D01*
X164856959Y-109512059D01*
X164856960Y-109512059D01*
X164856963Y-109512061D01*
X164870453Y-109514197D01*
X164879726Y-109516944D01*
X164892203Y-109522500D01*
X164919952Y-109522500D01*
X164925756Y-109522957D01*
X164953158Y-109527297D01*
X164966343Y-109523764D01*
X164975946Y-109522500D01*
X170214828Y-109522500D01*
X170215777Y-109522524D01*
X170257939Y-109524734D01*
X170283845Y-109514788D01*
X170289414Y-109513139D01*
X170316565Y-109507369D01*
X170327610Y-109499343D01*
X170336115Y-109494725D01*
X170348864Y-109489832D01*
X170368489Y-109470205D01*
X170372902Y-109466436D01*
X170395358Y-109450122D01*
X170402181Y-109438301D01*
X170408073Y-109430621D01*
X173338520Y-106500173D01*
X173339206Y-106499523D01*
X173370586Y-106471270D01*
X173381874Y-106445915D01*
X173384645Y-106440811D01*
X173399761Y-106417537D01*
X173401897Y-106404047D01*
X173404644Y-106394773D01*
X173410200Y-106382297D01*
X173410200Y-106354545D01*
X173410657Y-106348742D01*
X173414997Y-106321342D01*
X173411464Y-106308156D01*
X173410200Y-106298554D01*
X173410200Y-105170910D01*
X173421066Y-105144676D01*
X173433102Y-105136634D01*
X173444561Y-105131888D01*
X173444561Y-105131887D01*
X173444563Y-105131887D01*
X173524905Y-105070238D01*
X173566116Y-105038616D01*
X173659388Y-104917061D01*
X173718022Y-104775506D01*
X173738021Y-104623600D01*
X173718022Y-104471694D01*
X173659388Y-104330140D01*
X173659385Y-104330137D01*
X173659385Y-104330135D01*
X173566120Y-104208589D01*
X173566119Y-104208588D01*
X173566116Y-104208584D01*
X173566111Y-104208580D01*
X173566110Y-104208579D01*
X173444565Y-104115314D01*
X173444561Y-104115312D01*
X173303006Y-104056678D01*
X173151100Y-104036679D01*
X172999194Y-104056678D01*
X172999193Y-104056678D01*
X172857635Y-104115314D01*
X172736089Y-104208579D01*
X172736079Y-104208589D01*
X172642814Y-104330135D01*
X172584178Y-104471693D01*
X172584178Y-104471694D01*
X172567567Y-104597869D01*
X172564179Y-104623600D01*
X172584178Y-104775506D01*
X172641405Y-104913665D01*
X172642814Y-104917065D01*
X172736079Y-105038610D01*
X172736084Y-105038616D01*
X172736088Y-105038619D01*
X172736089Y-105038620D01*
X172857635Y-105131886D01*
X172857638Y-105131887D01*
X172857639Y-105131888D01*
X172929097Y-105161486D01*
X172949176Y-105181564D01*
X172952000Y-105195762D01*
X172952000Y-106223334D01*
X172941134Y-106249568D01*
X170137269Y-109053434D01*
X170111035Y-109064300D01*
X170103964Y-109064300D01*
X170077730Y-109053434D01*
X170066864Y-109027200D01*
X170077730Y-109000966D01*
X172038521Y-107040174D01*
X172039206Y-107039523D01*
X172070586Y-107011270D01*
X172081873Y-106985917D01*
X172084644Y-106980813D01*
X172099762Y-106957536D01*
X172101897Y-106944047D01*
X172104645Y-106934770D01*
X172110200Y-106922297D01*
X172110200Y-106894547D01*
X172110657Y-106888743D01*
X172111513Y-106883336D01*
X172114997Y-106861341D01*
X172111464Y-106848155D01*
X172110200Y-106838553D01*
X172110200Y-105423336D01*
X172121066Y-105397102D01*
X172133101Y-105389060D01*
X172174561Y-105371888D01*
X172210042Y-105344663D01*
X172221208Y-105336095D01*
X172296116Y-105278616D01*
X172389388Y-105157061D01*
X172448022Y-105015506D01*
X172468021Y-104863600D01*
X172448022Y-104711694D01*
X172389388Y-104570140D01*
X172389385Y-104570137D01*
X172389385Y-104570135D01*
X172296120Y-104448589D01*
X172296119Y-104448588D01*
X172296116Y-104448584D01*
X172296111Y-104448580D01*
X172296110Y-104448579D01*
X172174565Y-104355314D01*
X172174561Y-104355312D01*
X172033006Y-104296678D01*
X171881100Y-104276679D01*
X171729194Y-104296678D01*
X171729193Y-104296678D01*
X171587635Y-104355314D01*
X171466089Y-104448579D01*
X171466079Y-104448589D01*
X171372814Y-104570135D01*
X171318111Y-104702200D01*
X171314178Y-104711694D01*
X171294179Y-104863600D01*
X171314178Y-105015506D01*
X171372313Y-105155857D01*
X171372814Y-105157065D01*
X171466079Y-105278610D01*
X171466084Y-105278616D01*
X171466088Y-105278619D01*
X171466089Y-105278620D01*
X171587635Y-105371886D01*
X171587638Y-105371887D01*
X171587639Y-105371888D01*
X171629097Y-105389060D01*
X171649176Y-105409138D01*
X171652000Y-105423336D01*
X171652000Y-106763334D01*
X171641134Y-106789568D01*
X169687069Y-108743634D01*
X169660835Y-108754500D01*
X168423764Y-108754500D01*
X168397530Y-108743634D01*
X168386664Y-108717400D01*
X168397530Y-108691166D01*
X168828584Y-108260112D01*
X169264886Y-107823809D01*
X169291119Y-107812944D01*
X169295957Y-107813260D01*
X169351100Y-107820521D01*
X169503006Y-107800522D01*
X169644561Y-107741888D01*
X169650284Y-107737497D01*
X169667360Y-107724394D01*
X169766116Y-107648616D01*
X169859388Y-107527061D01*
X169918022Y-107385506D01*
X169938021Y-107233600D01*
X169918022Y-107081694D01*
X169859388Y-106940140D01*
X169859385Y-106940137D01*
X169859385Y-106940135D01*
X169766120Y-106818589D01*
X169766119Y-106818588D01*
X169766116Y-106818584D01*
X169766111Y-106818580D01*
X169766110Y-106818579D01*
X169644565Y-106725314D01*
X169644561Y-106725312D01*
X169503006Y-106666678D01*
X169351100Y-106646679D01*
X169351099Y-106646679D01*
X169199194Y-106666678D01*
X169199193Y-106666678D01*
X169057635Y-106725314D01*
X168936089Y-106818579D01*
X168936079Y-106818589D01*
X168842814Y-106940135D01*
X168785887Y-107077569D01*
X168784178Y-107081694D01*
X168764179Y-107233600D01*
X168784178Y-107385506D01*
X168842812Y-107527061D01*
X168842813Y-107527062D01*
X168853757Y-107541325D01*
X168861106Y-107568753D01*
X168850557Y-107590144D01*
X168001869Y-108438834D01*
X167975635Y-108449700D01*
X167898563Y-108449700D01*
X167872329Y-108438834D01*
X167861463Y-108412600D01*
X167872329Y-108386367D01*
X167928530Y-108330165D01*
X167929195Y-108329532D01*
X167960586Y-108301270D01*
X167960586Y-108301269D01*
X167960587Y-108301269D01*
X167971869Y-108275926D01*
X167974643Y-108270814D01*
X167989762Y-108247536D01*
X167991897Y-108234047D01*
X167994645Y-108224770D01*
X168000200Y-108212297D01*
X168000200Y-108184547D01*
X168000657Y-108178743D01*
X168004997Y-108151341D01*
X168001464Y-108138155D01*
X168000200Y-108128553D01*
X168000200Y-107300070D01*
X168000224Y-107299122D01*
X168002434Y-107256960D01*
X167992489Y-107231052D01*
X167990839Y-107225485D01*
X167985069Y-107198335D01*
X167983736Y-107196500D01*
X167977043Y-107187287D01*
X167972422Y-107178776D01*
X167967532Y-107166036D01*
X167960012Y-107158516D01*
X167947910Y-107146413D01*
X167944130Y-107141987D01*
X167927822Y-107119542D01*
X167916000Y-107112716D01*
X167908317Y-107106821D01*
X165765129Y-104963632D01*
X166625037Y-104963632D01*
X166635056Y-105122876D01*
X166635057Y-105122878D01*
X166684359Y-105274616D01*
X166684361Y-105274620D01*
X166769849Y-105409326D01*
X166769852Y-105409330D01*
X166769853Y-105409331D01*
X166769854Y-105409332D01*
X166886164Y-105518555D01*
X167025982Y-105595420D01*
X167180523Y-105635100D01*
X167180526Y-105635100D01*
X167300037Y-105635100D01*
X167300036Y-105635099D01*
X167347045Y-105629160D01*
X167418591Y-105620123D01*
X167418592Y-105620122D01*
X167418596Y-105620122D01*
X167566945Y-105561386D01*
X167696027Y-105467602D01*
X167797731Y-105344664D01*
X167865666Y-105200295D01*
X167895563Y-105043567D01*
X167885544Y-104884328D01*
X167885543Y-104884325D01*
X167885543Y-104884323D01*
X167885542Y-104884321D01*
X167836240Y-104732583D01*
X167836238Y-104732579D01*
X167750750Y-104597873D01*
X167750747Y-104597869D01*
X167728444Y-104576925D01*
X167634436Y-104488645D01*
X167494618Y-104411780D01*
X167494617Y-104411779D01*
X167494616Y-104411779D01*
X167340083Y-104372101D01*
X167340079Y-104372100D01*
X167340077Y-104372100D01*
X167220570Y-104372100D01*
X167220563Y-104372100D01*
X167102008Y-104387076D01*
X166953654Y-104445814D01*
X166824573Y-104539597D01*
X166722869Y-104662536D01*
X166654934Y-104806904D01*
X166654933Y-104806907D01*
X166625037Y-104963632D01*
X165765129Y-104963632D01*
X165111066Y-104309569D01*
X165100200Y-104283335D01*
X165100200Y-103683468D01*
X165100200Y-103075813D01*
X165111065Y-103049582D01*
X165137299Y-103038716D01*
X165163533Y-103049582D01*
X165172317Y-103063562D01*
X165210057Y-103171415D01*
X165290591Y-103299586D01*
X165575228Y-103014949D01*
X165623459Y-103088772D01*
X165715785Y-103160632D01*
X165433711Y-103442707D01*
X165561885Y-103523243D01*
X165721080Y-103578948D01*
X165721090Y-103578950D01*
X165888700Y-103597835D01*
X166056309Y-103578950D01*
X166056319Y-103578948D01*
X166215518Y-103523241D01*
X166343687Y-103442707D01*
X166058189Y-103157209D01*
X166110134Y-103129099D01*
X166190513Y-103041784D01*
X166202248Y-103015028D01*
X166486807Y-103299587D01*
X166567341Y-103171418D01*
X166623048Y-103012219D01*
X166623050Y-103012209D01*
X166641935Y-102844599D01*
X166623050Y-102676990D01*
X166623048Y-102676980D01*
X166567343Y-102517785D01*
X166486806Y-102389611D01*
X166202169Y-102674247D01*
X166153941Y-102600428D01*
X166061611Y-102528566D01*
X166343687Y-102246491D01*
X166215514Y-102165956D01*
X166056319Y-102110251D01*
X166056309Y-102110249D01*
X165888700Y-102091364D01*
X165721090Y-102110249D01*
X165721080Y-102110251D01*
X165561885Y-102165956D01*
X165433712Y-102246492D01*
X165719210Y-102531990D01*
X165667266Y-102560101D01*
X165586887Y-102647416D01*
X165575151Y-102674171D01*
X165290592Y-102389612D01*
X165210057Y-102517784D01*
X165172317Y-102625637D01*
X165153396Y-102646809D01*
X165125045Y-102648401D01*
X165103873Y-102629480D01*
X165100200Y-102613387D01*
X165100200Y-102353335D01*
X165111066Y-102327102D01*
X165123101Y-102319060D01*
X165164561Y-102301888D01*
X165286116Y-102208616D01*
X165379388Y-102087061D01*
X165438022Y-101945506D01*
X165458021Y-101793600D01*
X165438022Y-101641694D01*
X165379388Y-101500140D01*
X165379385Y-101500137D01*
X165379385Y-101500135D01*
X165286120Y-101378589D01*
X165286119Y-101378588D01*
X165286116Y-101378584D01*
X165286111Y-101378580D01*
X165286110Y-101378579D01*
X165164565Y-101285314D01*
X165164561Y-101285312D01*
X165023006Y-101226678D01*
X164871100Y-101206679D01*
X164871099Y-101206679D01*
X164719194Y-101226678D01*
X164719193Y-101226678D01*
X164577635Y-101285314D01*
X164456089Y-101378579D01*
X164456079Y-101378589D01*
X164362814Y-101500135D01*
X164307531Y-101633600D01*
X164304178Y-101641694D01*
X164284179Y-101793600D01*
X164304178Y-101945506D01*
X164358935Y-102077702D01*
X164362814Y-102087065D01*
X164449873Y-102200522D01*
X164456084Y-102208616D01*
X164456088Y-102208619D01*
X164456089Y-102208620D01*
X164577635Y-102301886D01*
X164577638Y-102301887D01*
X164577639Y-102301888D01*
X164619097Y-102319060D01*
X164639176Y-102339138D01*
X164642000Y-102353336D01*
X164642000Y-104387127D01*
X164641975Y-104388076D01*
X164639766Y-104430239D01*
X164646806Y-104448579D01*
X164649708Y-104456139D01*
X164651361Y-104461721D01*
X164657129Y-104488863D01*
X164660184Y-104493068D01*
X164665156Y-104499911D01*
X164669776Y-104508420D01*
X164674667Y-104521163D01*
X164694291Y-104540787D01*
X164698071Y-104545214D01*
X164714377Y-104567657D01*
X164714378Y-104567658D01*
X164726198Y-104574482D01*
X164733882Y-104580378D01*
X167092439Y-106938935D01*
X167103305Y-106965169D01*
X167092439Y-106991403D01*
X167071048Y-107001952D01*
X166959194Y-107016678D01*
X166959193Y-107016678D01*
X166904097Y-107039500D01*
X166825231Y-107072168D01*
X166817638Y-107075313D01*
X166698964Y-107166374D01*
X166671536Y-107173723D01*
X166646945Y-107159525D01*
X166639512Y-107141094D01*
X166623050Y-106994990D01*
X166623048Y-106994980D01*
X166567343Y-106835785D01*
X166486806Y-106707611D01*
X166202169Y-106992247D01*
X166153941Y-106918428D01*
X166061611Y-106846566D01*
X166343687Y-106564491D01*
X166215514Y-106483956D01*
X166056319Y-106428251D01*
X166056309Y-106428249D01*
X165888700Y-106409364D01*
X165721090Y-106428249D01*
X165721080Y-106428251D01*
X165561885Y-106483956D01*
X165433712Y-106564492D01*
X165719210Y-106849990D01*
X165667266Y-106878101D01*
X165586887Y-106965416D01*
X165575151Y-106992170D01*
X165290591Y-106707611D01*
X165210056Y-106835785D01*
X165154351Y-106994980D01*
X165154349Y-106994990D01*
X165135464Y-107162600D01*
X165154242Y-107329256D01*
X165146381Y-107356541D01*
X165121529Y-107370277D01*
X165094244Y-107362416D01*
X165091141Y-107359644D01*
X162681066Y-104949569D01*
X162670200Y-104923335D01*
X162670200Y-102430078D01*
X162670224Y-102429131D01*
X162672434Y-102386961D01*
X162662490Y-102361055D01*
X162660838Y-102355480D01*
X162655069Y-102328335D01*
X162655068Y-102328333D01*
X162647043Y-102317287D01*
X162642422Y-102308776D01*
X162639778Y-102301888D01*
X162637532Y-102296036D01*
X162637530Y-102296034D01*
X162617910Y-102276413D01*
X162614130Y-102271987D01*
X162597822Y-102249542D01*
X162586000Y-102242716D01*
X162578317Y-102236821D01*
X161817673Y-101476175D01*
X161817004Y-101475471D01*
X161788772Y-101444115D01*
X161788768Y-101444113D01*
X161763419Y-101432826D01*
X161758309Y-101430052D01*
X161735036Y-101414939D01*
X161735035Y-101414938D01*
X161735036Y-101414938D01*
X161721554Y-101412803D01*
X161712272Y-101410053D01*
X161699797Y-101404500D01*
X161699796Y-101404500D01*
X161672047Y-101404500D01*
X161666243Y-101404043D01*
X161638842Y-101399702D01*
X161625656Y-101403236D01*
X161616054Y-101404500D01*
X161220836Y-101404500D01*
X161194602Y-101393634D01*
X161186561Y-101381600D01*
X161169388Y-101340140D01*
X161169385Y-101340137D01*
X161169385Y-101340135D01*
X161102052Y-101252385D01*
X161094702Y-101224957D01*
X161108900Y-101200367D01*
X161131485Y-101192700D01*
X162390836Y-101192700D01*
X162417070Y-101203566D01*
X162523308Y-101309804D01*
X162534174Y-101336038D01*
X162531350Y-101350235D01*
X162514179Y-101391689D01*
X162514178Y-101391692D01*
X162514178Y-101391694D01*
X162494179Y-101543600D01*
X162514178Y-101695506D01*
X162566958Y-101822929D01*
X162572814Y-101837065D01*
X162656024Y-101945506D01*
X162666084Y-101958616D01*
X162666088Y-101958619D01*
X162666089Y-101958620D01*
X162787634Y-102051885D01*
X162787636Y-102051885D01*
X162787639Y-102051888D01*
X162929194Y-102110522D01*
X163081100Y-102130521D01*
X163233006Y-102110522D01*
X163374561Y-102051888D01*
X163496116Y-101958616D01*
X163589388Y-101837061D01*
X163648022Y-101695506D01*
X163668021Y-101543600D01*
X163648022Y-101391694D01*
X163589388Y-101250140D01*
X163589385Y-101250137D01*
X163589385Y-101250135D01*
X163496120Y-101128589D01*
X163496119Y-101128588D01*
X163496116Y-101128584D01*
X163496111Y-101128580D01*
X163496110Y-101128579D01*
X163374565Y-101035314D01*
X163374561Y-101035312D01*
X163233006Y-100976678D01*
X163081100Y-100956679D01*
X162929194Y-100976678D01*
X162929192Y-100976678D01*
X162929189Y-100976679D01*
X162887735Y-100993850D01*
X162859340Y-100993850D01*
X162847304Y-100985808D01*
X162667673Y-100806175D01*
X162667004Y-100805471D01*
X162638772Y-100774115D01*
X162638768Y-100774113D01*
X162613419Y-100762826D01*
X162608309Y-100760052D01*
X162585036Y-100744939D01*
X162585035Y-100744938D01*
X162585036Y-100744938D01*
X162571554Y-100742803D01*
X162562272Y-100740053D01*
X162549797Y-100734500D01*
X162549796Y-100734500D01*
X162522047Y-100734500D01*
X162516243Y-100734043D01*
X162488842Y-100729702D01*
X162475656Y-100733236D01*
X162466054Y-100734500D01*
X155127580Y-100734500D01*
X155126631Y-100734475D01*
X155091016Y-100732609D01*
X155084463Y-100732266D01*
X155084462Y-100732266D01*
X155084461Y-100732266D01*
X155058557Y-100742209D01*
X155052978Y-100743861D01*
X155025834Y-100749631D01*
X155014788Y-100757656D01*
X155006280Y-100762275D01*
X154993539Y-100767166D01*
X154993533Y-100767169D01*
X154973915Y-100786787D01*
X154969492Y-100790565D01*
X154947043Y-100806876D01*
X154947041Y-100806879D01*
X154940216Y-100818699D01*
X154934322Y-100826380D01*
X153349675Y-102411026D01*
X153323441Y-102421892D01*
X153297207Y-102411026D01*
X153286341Y-102384792D01*
X153288019Y-102373761D01*
X153303649Y-102323606D01*
X153309700Y-102257017D01*
X153309699Y-102150184D01*
X153303649Y-102083594D01*
X153255901Y-101930366D01*
X153172871Y-101793017D01*
X153059383Y-101679529D01*
X153059383Y-101679528D01*
X153059382Y-101679528D01*
X152996794Y-101641693D01*
X152922034Y-101596499D01*
X152922030Y-101596497D01*
X152922029Y-101596497D01*
X152768807Y-101548751D01*
X152768809Y-101548751D01*
X152723588Y-101544642D01*
X152702217Y-101542700D01*
X152702215Y-101542700D01*
X151299984Y-101542700D01*
X151233392Y-101548751D01*
X151080170Y-101596497D01*
X151080167Y-101596498D01*
X151080166Y-101596499D01*
X151058215Y-101609769D01*
X150942817Y-101679528D01*
X150829325Y-101793020D01*
X150759045Y-101909279D01*
X150736175Y-101926108D01*
X150708103Y-101921835D01*
X150691274Y-101898965D01*
X150690196Y-101890090D01*
X150690195Y-101601206D01*
X150701061Y-101574973D01*
X150704710Y-101571774D01*
X150765022Y-101525495D01*
X150826116Y-101478616D01*
X150919388Y-101357061D01*
X150978022Y-101215506D01*
X150998021Y-101063600D01*
X150978022Y-100911694D01*
X150919388Y-100770140D01*
X150919385Y-100770137D01*
X150919385Y-100770135D01*
X150826120Y-100648589D01*
X150826119Y-100648588D01*
X150826116Y-100648584D01*
X150826111Y-100648580D01*
X150826110Y-100648579D01*
X150704565Y-100555314D01*
X150704561Y-100555312D01*
X150563006Y-100496678D01*
X150411100Y-100476679D01*
X150259194Y-100496678D01*
X150259193Y-100496678D01*
X150117635Y-100555314D01*
X149996089Y-100648579D01*
X149996079Y-100648589D01*
X149902814Y-100770135D01*
X149848964Y-100900140D01*
X149844178Y-100911694D01*
X149824179Y-101063600D01*
X149844178Y-101215506D01*
X149900353Y-101351125D01*
X149902814Y-101357065D01*
X149993949Y-101475834D01*
X149996084Y-101478616D01*
X149996088Y-101478619D01*
X149996089Y-101478620D01*
X150117634Y-101571885D01*
X150117636Y-101571885D01*
X150117639Y-101571888D01*
X150209094Y-101609770D01*
X150229171Y-101629848D01*
X150231995Y-101644045D01*
X150231998Y-102462130D01*
X150231973Y-102463100D01*
X150229765Y-102505237D01*
X150229766Y-102505239D01*
X150239706Y-102531137D01*
X150241359Y-102536716D01*
X150247131Y-102563866D01*
X150253303Y-102572361D01*
X150255156Y-102574912D01*
X150259775Y-102583419D01*
X150264668Y-102596164D01*
X150284292Y-102615788D01*
X150288072Y-102620215D01*
X150304377Y-102642657D01*
X150304379Y-102642659D01*
X150316201Y-102649484D01*
X150323881Y-102655377D01*
X150966235Y-103297731D01*
X150977101Y-103323965D01*
X150966235Y-103350199D01*
X150940001Y-103361065D01*
X150932763Y-103360352D01*
X150905858Y-103355000D01*
X150596346Y-103355000D01*
X150596337Y-103355001D01*
X150555593Y-103363106D01*
X150551742Y-103363872D01*
X150521710Y-103383938D01*
X150493862Y-103389477D01*
X150480489Y-103383938D01*
X150477385Y-103381864D01*
X150476688Y-103381398D01*
X150460913Y-103357789D01*
X150460200Y-103350551D01*
X150460200Y-103230071D01*
X150460224Y-103229123D01*
X150462434Y-103186961D01*
X150452490Y-103161055D01*
X150450838Y-103155480D01*
X150445069Y-103128335D01*
X150445068Y-103128333D01*
X150437043Y-103117287D01*
X150432422Y-103108776D01*
X150427532Y-103096036D01*
X150420268Y-103088772D01*
X150407910Y-103076413D01*
X150404130Y-103071987D01*
X150387822Y-103049542D01*
X150376000Y-103042716D01*
X150368317Y-103036821D01*
X148847673Y-101516175D01*
X148847004Y-101515471D01*
X148818772Y-101484115D01*
X148818768Y-101484113D01*
X148793419Y-101472826D01*
X148788309Y-101470052D01*
X148765036Y-101454939D01*
X148765035Y-101454938D01*
X148765036Y-101454938D01*
X148751554Y-101452803D01*
X148742272Y-101450053D01*
X148729797Y-101444500D01*
X148729796Y-101444500D01*
X148702047Y-101444500D01*
X148696243Y-101444043D01*
X148668842Y-101439702D01*
X148655656Y-101443236D01*
X148646054Y-101444500D01*
X147798410Y-101444500D01*
X147772176Y-101433634D01*
X147764134Y-101421597D01*
X147759389Y-101410141D01*
X147759387Y-101410137D01*
X147666120Y-101288589D01*
X147666119Y-101288588D01*
X147666116Y-101288584D01*
X147666111Y-101288580D01*
X147666110Y-101288579D01*
X147544565Y-101195314D01*
X147544561Y-101195312D01*
X147403006Y-101136678D01*
X147251100Y-101116679D01*
X147099194Y-101136678D01*
X147099193Y-101136678D01*
X146957635Y-101195314D01*
X146836089Y-101288579D01*
X146836079Y-101288589D01*
X146742814Y-101410135D01*
X146684178Y-101551693D01*
X146684178Y-101551694D01*
X146665245Y-101695506D01*
X146664179Y-101703600D01*
X146684178Y-101855506D01*
X146731285Y-101969233D01*
X146742814Y-101997065D01*
X146801860Y-102074015D01*
X146809210Y-102101443D01*
X146795012Y-102126033D01*
X146772427Y-102133700D01*
X146102406Y-102133700D01*
X146076172Y-102122834D01*
X144195583Y-100242245D01*
X144188604Y-100232544D01*
X144188333Y-100231999D01*
X144169930Y-100215223D01*
X144154748Y-100201383D01*
X144154149Y-100200811D01*
X144140680Y-100187342D01*
X144136371Y-100184390D01*
X144134360Y-100182797D01*
X144111001Y-100161502D01*
X144111000Y-100161501D01*
X144096502Y-100155885D01*
X144088937Y-100151897D01*
X144076116Y-100143114D01*
X144045348Y-100135877D01*
X144042892Y-100135116D01*
X144013423Y-100123700D01*
X144013422Y-100123700D01*
X143997877Y-100123700D01*
X143989383Y-100122715D01*
X143974252Y-100119156D01*
X143974249Y-100119156D01*
X143961515Y-100120932D01*
X143942948Y-100123522D01*
X143940388Y-100123700D01*
X133622809Y-100123700D01*
X133611022Y-100121778D01*
X133610440Y-100121583D01*
X133610438Y-100121582D01*
X133572104Y-100123355D01*
X133565070Y-100123680D01*
X133564222Y-100123700D01*
X133545162Y-100123700D01*
X133540029Y-100124659D01*
X133537476Y-100124955D01*
X133505907Y-100126414D01*
X133491679Y-100132695D01*
X133483517Y-100135223D01*
X133468236Y-100138080D01*
X133441365Y-100154717D01*
X133439091Y-100155916D01*
X133410179Y-100168683D01*
X133399181Y-100179680D01*
X133392481Y-100184986D01*
X133379270Y-100193166D01*
X133379267Y-100193169D01*
X133360221Y-100218387D01*
X133358534Y-100220326D01*
X130752267Y-102826593D01*
X130726033Y-102837459D01*
X130699799Y-102826593D01*
X130675242Y-102802036D01*
X130637432Y-102776773D01*
X130637431Y-102776772D01*
X130637430Y-102776771D01*
X130637429Y-102776771D01*
X130592835Y-102767900D01*
X130592827Y-102767899D01*
X129889363Y-102767899D01*
X129844771Y-102776770D01*
X129844768Y-102776771D01*
X129806958Y-102802035D01*
X129309536Y-103299457D01*
X129284273Y-103337267D01*
X129284271Y-103337270D01*
X129275400Y-103381864D01*
X129275399Y-103381872D01*
X129275399Y-104085336D01*
X128666799Y-104085336D01*
X128666800Y-104085330D01*
X128666801Y-103381868D01*
X128657929Y-103337268D01*
X128632665Y-103299458D01*
X128135242Y-102802036D01*
X128097431Y-102776772D01*
X128097430Y-102776771D01*
X128097429Y-102776771D01*
X128052835Y-102767900D01*
X128052827Y-102767899D01*
X127349363Y-102767899D01*
X127304771Y-102776770D01*
X127304768Y-102776771D01*
X127266958Y-102802035D01*
X126769536Y-103299457D01*
X126744273Y-103337267D01*
X126744271Y-103337270D01*
X126735400Y-103381864D01*
X126735399Y-103381872D01*
X126735399Y-104085336D01*
X126126799Y-104085336D01*
X126126800Y-104085330D01*
X126126801Y-103381868D01*
X126117929Y-103337268D01*
X126092665Y-103299458D01*
X125595242Y-102802036D01*
X125557431Y-102776772D01*
X125557430Y-102776771D01*
X125557429Y-102776771D01*
X125512835Y-102767900D01*
X125512827Y-102767899D01*
X124809363Y-102767899D01*
X124764771Y-102776770D01*
X124764768Y-102776771D01*
X124726958Y-102802035D01*
X124229536Y-103299457D01*
X124204273Y-103337267D01*
X124204271Y-103337270D01*
X124195400Y-103381864D01*
X124195399Y-103381872D01*
X124195399Y-104085336D01*
X123586799Y-104085336D01*
X123586800Y-104085330D01*
X123586801Y-103381868D01*
X123577929Y-103337268D01*
X123552665Y-103299458D01*
X123055242Y-102802036D01*
X123017431Y-102776772D01*
X123017430Y-102776771D01*
X123017429Y-102776771D01*
X122972835Y-102767900D01*
X122972827Y-102767899D01*
X122269363Y-102767899D01*
X122224771Y-102776770D01*
X122224768Y-102776771D01*
X122186958Y-102802035D01*
X121689536Y-103299457D01*
X121664273Y-103337267D01*
X121664271Y-103337270D01*
X121655400Y-103381864D01*
X121655399Y-103381872D01*
X121655399Y-104085336D01*
X121046799Y-104085336D01*
X121046800Y-104085330D01*
X121046801Y-103381868D01*
X121037929Y-103337268D01*
X121012665Y-103299458D01*
X120515242Y-102802036D01*
X120477431Y-102776772D01*
X120477430Y-102776771D01*
X120477429Y-102776771D01*
X120432835Y-102767900D01*
X120432827Y-102767899D01*
X119729363Y-102767899D01*
X119684771Y-102776770D01*
X119684768Y-102776771D01*
X119646958Y-102802035D01*
X119149536Y-103299457D01*
X119124273Y-103337267D01*
X119124271Y-103337270D01*
X119115400Y-103381864D01*
X119115399Y-103381872D01*
X119115399Y-104085336D01*
X117526600Y-104085336D01*
X117526600Y-102004213D01*
X117526640Y-102002999D01*
X117543413Y-101747087D01*
X117543730Y-101744678D01*
X117593644Y-101493741D01*
X117594267Y-101491418D01*
X117676514Y-101249129D01*
X117677434Y-101246908D01*
X117790598Y-101017433D01*
X117791807Y-101015341D01*
X117806935Y-100992700D01*
X117933953Y-100802604D01*
X117935422Y-100800690D01*
X118104133Y-100608312D01*
X118105812Y-100606633D01*
X118298190Y-100437922D01*
X118300104Y-100436453D01*
X118512843Y-100294305D01*
X118514933Y-100293098D01*
X118744408Y-100179934D01*
X118746629Y-100179014D01*
X118988918Y-100096767D01*
X118991241Y-100096144D01*
X119242182Y-100046229D01*
X119244587Y-100045913D01*
X119500500Y-100029140D01*
X119501714Y-100029100D01*
X119509385Y-100029100D01*
X177492815Y-100029100D01*
X177500486Y-100029100D01*
X177501700Y-100029140D01*
G37*
%TD.AperFunction*%
%TD*%
M02*
