%TF.GenerationSoftware,KiCad,Pcbnew,7.0.5*%
%TF.CreationDate,2024-11-14T06:30:08+05:30*%
%TF.ProjectId,pc_healthypi_move_program_adapter_v7,70635f68-6561-46c7-9468-7970695f6d6f,rev?*%
%TF.SameCoordinates,Original*%
%TF.FileFunction,Soldermask,Top*%
%TF.FilePolarity,Negative*%
%FSLAX46Y46*%
G04 Gerber Fmt 4.6, Leading zero omitted, Abs format (unit mm)*
G04 Created by KiCad (PCBNEW 7.0.5) date 2024-11-14 06:30:08*
%MOMM*%
%LPD*%
G01*
G04 APERTURE LIST*
G04 Aperture macros list*
%AMRoundRect*
0 Rectangle with rounded corners*
0 $1 Rounding radius*
0 $2 $3 $4 $5 $6 $7 $8 $9 X,Y pos of 4 corners*
0 Add a 4 corners polygon primitive as box body*
4,1,4,$2,$3,$4,$5,$6,$7,$8,$9,$2,$3,0*
0 Add four circle primitives for the rounded corners*
1,1,$1+$1,$2,$3*
1,1,$1+$1,$4,$5*
1,1,$1+$1,$6,$7*
1,1,$1+$1,$8,$9*
0 Add four rect primitives between the rounded corners*
20,1,$1+$1,$2,$3,$4,$5,0*
20,1,$1+$1,$4,$5,$6,$7,0*
20,1,$1+$1,$6,$7,$8,$9,0*
20,1,$1+$1,$8,$9,$2,$3,0*%
%AMFreePoly0*
4,1,25,0.396392,0.894996,0.408515,0.884642,0.884642,0.408515,0.913149,0.352567,0.914400,0.336673,0.914400,-0.336673,0.894996,-0.396392,0.884642,-0.408515,0.408515,-0.884642,0.352567,-0.913149,0.336673,-0.914400,-0.336673,-0.914400,-0.396392,-0.894996,-0.408515,-0.884642,-0.884642,-0.408515,-0.913149,-0.352567,-0.914400,-0.336673,-0.914400,0.336673,-0.894996,0.396392,-0.884642,0.408515,
-0.408515,0.884642,-0.352567,0.913149,-0.336673,0.914400,0.336673,0.914400,0.396392,0.894996,0.396392,0.894996,$1*%
G04 Aperture macros list end*
%ADD10RoundRect,0.176600X-0.600000X-0.225000X0.600000X-0.225000X0.600000X0.225000X-0.600000X0.225000X0*%
%ADD11RoundRect,0.140000X-0.170000X0.140000X-0.170000X-0.140000X0.170000X-0.140000X0.170000X0.140000X0*%
%ADD12RoundRect,0.101600X-0.370000X-0.925000X0.370000X-0.925000X0.370000X0.925000X-0.370000X0.925000X0*%
%ADD13RoundRect,0.651600X0.000000X0.000000X0.000000X0.000000X0.000000X0.000000X0.000000X0.000000X0*%
%ADD14FreePoly0,0.000000*%
%ADD15C,1.295400*%
%ADD16C,0.965200*%
%ADD17C,0.787400*%
%ADD18RoundRect,0.101600X0.152400X0.419100X-0.152400X0.419100X-0.152400X-0.419100X0.152400X-0.419100X0*%
%ADD19RoundRect,0.101600X0.415000X-0.315000X0.415000X0.315000X-0.415000X0.315000X-0.415000X-0.315000X0*%
%ADD20RoundRect,0.140000X0.170000X-0.140000X0.170000X0.140000X-0.170000X0.140000X-0.170000X-0.140000X0*%
%ADD21C,0.711200*%
G04 APERTURE END LIST*
D10*
%TO.C,U$6*%
X150876100Y-104053600D03*
X150876100Y-105003600D03*
X150876100Y-105953600D03*
X153246100Y-105953600D03*
X153246100Y-104053600D03*
%TD*%
D11*
%TO.C,C2*%
X154700000Y-103820000D03*
X154700000Y-104780000D03*
%TD*%
%TO.C,C3*%
X170400000Y-107220000D03*
X170400000Y-108180000D03*
%TD*%
D12*
%TO.C,CON_JTAG1*%
X171981100Y-107128600D03*
X171981100Y-102878600D03*
X173251100Y-107128600D03*
X173251100Y-102878600D03*
X174521100Y-107128600D03*
X174521100Y-102878600D03*
X175791100Y-107128600D03*
X175791100Y-102878600D03*
X177061100Y-107128600D03*
X177061100Y-102878600D03*
%TD*%
D13*
%TO.C,SWIO1*%
X147051100Y-106503600D03*
%TD*%
D14*
%TO.C,SV3*%
X120081100Y-106273600D03*
X120081100Y-103733600D03*
X122621100Y-106273600D03*
X122621100Y-103733600D03*
X125161100Y-106273600D03*
X125161100Y-103733600D03*
X127701100Y-106273600D03*
X127701100Y-103733600D03*
X130241100Y-106273600D03*
X130241100Y-103733600D03*
X132781100Y-106273600D03*
X132781100Y-103733600D03*
X135321100Y-106273600D03*
X135321100Y-103733600D03*
X137861100Y-106273600D03*
X137861100Y-103733600D03*
X140401100Y-106273600D03*
X140401100Y-103733600D03*
X142941100Y-106273600D03*
X142941100Y-103733600D03*
%TD*%
D15*
%TO.C,U2*%
X165888700Y-107162600D03*
X161113500Y-107162600D03*
X165888700Y-102844600D03*
X161113500Y-102844600D03*
D16*
X167260300Y-105003600D03*
D17*
X159538700Y-105003600D03*
X159970500Y-105003600D03*
X159741900Y-105003600D03*
D18*
X166251100Y-105838600D03*
X165751100Y-105838600D03*
X165251100Y-105838600D03*
X164751100Y-105838600D03*
X164251100Y-105838600D03*
X163751100Y-105838600D03*
X163251100Y-105838600D03*
X162751100Y-105838600D03*
X162251100Y-105838600D03*
X161751100Y-105838600D03*
X161251100Y-105838600D03*
X160751100Y-105838600D03*
X160751100Y-104168600D03*
X161251100Y-104168600D03*
X161751100Y-104168600D03*
X162251100Y-104168600D03*
X162751100Y-104168600D03*
X163251100Y-104168600D03*
X163751100Y-104168600D03*
X164251100Y-104168600D03*
X164751100Y-104168600D03*
X165251100Y-104168600D03*
X165751100Y-104168600D03*
X166251100Y-104168600D03*
%TD*%
D19*
%TO.C,D2*%
X146071100Y-103203600D03*
X146071100Y-105503600D03*
%TD*%
D20*
%TO.C,C1*%
X149300000Y-106180000D03*
X149300000Y-105220000D03*
%TD*%
D13*
%TO.C,SWIO5*%
X157251100Y-103783600D03*
%TD*%
D16*
%TO.C,J3*%
X148191100Y-104089200D03*
X155811100Y-105918000D03*
D21*
X150705700Y-107797600D03*
X149816700Y-107797600D03*
X154185500Y-107797600D03*
X153296500Y-107797600D03*
X150070700Y-107797600D03*
X150324700Y-107797600D03*
X150451700Y-107797600D03*
X151547100Y-102203600D03*
X151801100Y-102203600D03*
X152101100Y-102203600D03*
X152407500Y-102209600D03*
X152661500Y-102209600D03*
X153550500Y-107797600D03*
X153804500Y-107797600D03*
X154058500Y-107797600D03*
X151340700Y-102209600D03*
X148140300Y-105003600D03*
X147835500Y-105003600D03*
X156166700Y-105003600D03*
X155861900Y-105003600D03*
%TD*%
M02*
