M48
; DRILL file {KiCad 7.0.5} date Thu Nov 14 06:30:13 2024
; FORMAT={-:-/ absolute / inch / decimal}
; #@! TF.CreationDate,2024-11-14T06:30:13+05:30
; #@! TF.GenerationSoftware,Kicad,Pcbnew,7.0.5
; #@! TF.FileFunction,Plated,1,4,PTH
FMAT,2
INCH
; #@! TA.AperFunction,Plated,PTH,ViaDrill
T1C0.0138
; #@! TA.AperFunction,Plated,PTH,ComponentDrill
T2C0.0200
; #@! TA.AperFunction,Plated,PTH,ComponentDrill
T3C0.0230
; #@! TA.AperFunction,Plated,PTH,ComponentDrill
T4C0.0280
; #@! TA.AperFunction,Plated,PTH,ComponentDrill
T5C0.0300
; #@! TA.AperFunction,Plated,PTH,ComponentDrill
T6C0.0400
%
G90
G05
T1
X5.5682Y-3.9931
X5.6111Y-3.984
X5.7323Y-3.9647
X5.7516Y-4.1155
X5.7776Y-4.2844
X5.7973Y-4.0041
X5.8201Y-4.2718
X5.8414Y-4.032
X5.9217Y-3.9789
X6.0485Y-3.9899
X6.1209Y-4.2601
X6.1371Y-4.0143
X6.1678Y-4.2324
X6.193Y-4.0328
X6.2083Y-4.186
X6.2825Y-4.2385
X6.3252Y-4.0013
X6.4205Y-3.9978
X6.443Y-4.2915
X6.491Y-4.0076
X6.5792Y-4.2356
X6.6674Y-4.2218
X6.767Y-4.1285
X6.817Y-4.119
X6.8276Y-4.2958
T2
X5.8203Y-4.134
X5.8323Y-4.134
X5.8983Y-4.244
X5.9083Y-4.244
X5.9183Y-4.244
X5.9233Y-4.244
X5.9333Y-4.244
X5.9583Y-4.024
X5.9664Y-4.0238
X5.9764Y-4.0238
X5.9882Y-4.0238
X6.0003Y-4.024
X6.0103Y-4.024
X6.0353Y-4.244
X6.0453Y-4.244
X6.0553Y-4.244
X6.0653Y-4.244
X6.0703Y-4.244
X6.1363Y-4.134
X6.1483Y-4.134
T3
X6.2811Y-4.134
X6.2891Y-4.134
X6.2981Y-4.134
T4
X6.3431Y-4.049
X6.3431Y-4.219
X6.5311Y-4.049
X6.5311Y-4.219
T5
X5.8343Y-4.098
X6.1343Y-4.17
X6.5851Y-4.134
T6
X4.7276Y-4.084
X4.7276Y-4.184
X4.8276Y-4.084
X4.8276Y-4.184
X4.9276Y-4.084
X4.9276Y-4.184
X5.0276Y-4.084
X5.0276Y-4.184
X5.1276Y-4.084
X5.1276Y-4.184
X5.2276Y-4.084
X5.2276Y-4.184
X5.3276Y-4.084
X5.3276Y-4.184
X5.4276Y-4.084
X5.4276Y-4.184
X5.5276Y-4.084
X5.5276Y-4.184
X5.6276Y-4.084
X5.6276Y-4.184
T0
M30
