%TF.GenerationSoftware,KiCad,Pcbnew,8.0.6*%
%TF.CreationDate,2024-12-14T20:52:41+05:30*%
%TF.ProjectId,pc_healthypi_move_bottom_pcb_v12,70635f68-6561-46c7-9468-7970695f6d6f,rev?*%
%TF.SameCoordinates,Original*%
%TF.FileFunction,Drillmap*%
%TF.FilePolarity,Positive*%
%FSLAX45Y45*%
G04 Gerber Fmt 4.5, Leading zero omitted, Abs format (unit mm)*
G04 Created by KiCad (PCBNEW 8.0.6) date 2024-12-14 20:52:41*
%MOMM*%
%LPD*%
G01*
G04 APERTURE LIST*
%ADD10C,0.001000*%
%ADD11C,0.050000*%
%ADD12C,0.200000*%
%ADD13C,0.100000*%
%ADD14C,0.320000*%
G04 APERTURE END LIST*
D10*
X16250110Y-11000360D02*
G75*
G02*
X16050110Y-11200360I-200000J0D01*
G01*
D11*
X15030000Y-10050000D02*
G75*
G02*
X15130000Y-10150000I0J-100000D01*
G01*
X15350110Y-8900360D02*
G75*
G02*
X15550110Y-9100360I0J-200000D01*
G01*
X14600000Y-10150000D02*
G75*
G02*
X14700000Y-10050000I100000J0D01*
G01*
D10*
X13650110Y-11200360D02*
G75*
G02*
X13450110Y-11000360I0J200000D01*
G01*
D11*
X14700000Y-10050000D02*
X15030000Y-10050000D01*
D10*
X14150110Y-9700360D02*
G75*
G02*
X14050110Y-9800360I-100000J0D01*
G01*
X13450110Y-10000360D02*
G75*
G02*
X13650110Y-9800360I200000J0D01*
G01*
X15550110Y-9300360D02*
X15550110Y-9700360D01*
X15550110Y-11300360D02*
G75*
G02*
X15650110Y-11200360I100000J0D01*
G01*
D11*
X14150110Y-9300360D02*
X14150110Y-9100360D01*
D10*
X15350110Y-8900360D02*
X14350110Y-8900360D01*
X16050110Y-9800360D02*
G75*
G02*
X16250110Y-10000360I0J-200000D01*
G01*
X14050110Y-9800360D02*
X13650110Y-9800360D01*
X15650110Y-11200360D02*
X16050110Y-11200360D01*
X15650110Y-9800360D02*
G75*
G02*
X15550110Y-9700360I0J100000D01*
G01*
D11*
X14600000Y-10835000D02*
X14600000Y-10150000D01*
X15130000Y-10835000D02*
X15130000Y-10150000D01*
D10*
X14150110Y-11700360D02*
X14150110Y-11300360D01*
D11*
X15030000Y-10935000D02*
X14700000Y-10935000D01*
X15550110Y-11700360D02*
X15550110Y-11900360D01*
D10*
X15650110Y-9800360D02*
X16050110Y-9800360D01*
D11*
X14700000Y-10935000D02*
G75*
G02*
X14600000Y-10835000I0J100000D01*
G01*
D10*
X14150110Y-9300360D02*
X14150110Y-9700360D01*
D11*
X14150110Y-9100360D02*
G75*
G02*
X14350110Y-8900360I200000J0D01*
G01*
X15130000Y-10835000D02*
G75*
G02*
X15030000Y-10935000I-100000J0D01*
G01*
X14350110Y-12100360D02*
G75*
G02*
X14150110Y-11900360I0J200000D01*
G01*
X15550110Y-11700360D02*
X15550110Y-11300360D01*
D10*
X14050110Y-11200360D02*
G75*
G02*
X14150110Y-11300360I0J-100000D01*
G01*
D11*
X14150110Y-11700360D02*
X14150110Y-11900360D01*
D10*
X13450110Y-10000360D02*
X13450110Y-11000360D01*
D11*
X15550110Y-11900360D02*
G75*
G02*
X15350110Y-12100360I-200000J0D01*
G01*
X14350110Y-12100360D02*
X15350110Y-12100360D01*
X15550110Y-9300360D02*
X15550110Y-9100360D01*
D10*
X14050110Y-11200360D02*
X13650110Y-11200360D01*
X16250110Y-10000360D02*
X16250110Y-11000360D01*
D12*
D13*
X13622610Y-10472860D02*
X13657610Y-10507860D01*
X13657610Y-10472860D02*
X13622610Y-10507860D01*
X14832610Y-11692860D02*
X14867610Y-11727860D01*
X14867610Y-11692860D02*
X14832610Y-11727860D01*
X14842610Y-9202860D02*
X14877610Y-9237860D01*
X14877610Y-9202860D02*
X14842610Y-9237860D01*
X16052610Y-10492860D02*
X16087610Y-10527860D01*
X16087610Y-10492860D02*
X16052610Y-10527860D01*
D14*
X15025000Y-11190000D02*
G75*
G02*
X14705000Y-11190000I-160000J0D01*
G01*
X14705000Y-11190000D02*
G75*
G02*
X15025000Y-11190000I160000J0D01*
G01*
D12*
X13710837Y-12414344D02*
X13710837Y-12214344D01*
X13710837Y-12214344D02*
X13758456Y-12214344D01*
X13758456Y-12214344D02*
X13787027Y-12223868D01*
X13787027Y-12223868D02*
X13806075Y-12242915D01*
X13806075Y-12242915D02*
X13815599Y-12261963D01*
X13815599Y-12261963D02*
X13825122Y-12300058D01*
X13825122Y-12300058D02*
X13825122Y-12328629D01*
X13825122Y-12328629D02*
X13815599Y-12366725D01*
X13815599Y-12366725D02*
X13806075Y-12385772D01*
X13806075Y-12385772D02*
X13787027Y-12404820D01*
X13787027Y-12404820D02*
X13758456Y-12414344D01*
X13758456Y-12414344D02*
X13710837Y-12414344D01*
X13910837Y-12414344D02*
X13910837Y-12281010D01*
X13910837Y-12319106D02*
X13920361Y-12300058D01*
X13920361Y-12300058D02*
X13929884Y-12290534D01*
X13929884Y-12290534D02*
X13948932Y-12281010D01*
X13948932Y-12281010D02*
X13967980Y-12281010D01*
X14034646Y-12414344D02*
X14034646Y-12281010D01*
X14034646Y-12214344D02*
X14025122Y-12223868D01*
X14025122Y-12223868D02*
X14034646Y-12233391D01*
X14034646Y-12233391D02*
X14044170Y-12223868D01*
X14044170Y-12223868D02*
X14034646Y-12214344D01*
X14034646Y-12214344D02*
X14034646Y-12233391D01*
X14158456Y-12414344D02*
X14139408Y-12404820D01*
X14139408Y-12404820D02*
X14129884Y-12385772D01*
X14129884Y-12385772D02*
X14129884Y-12214344D01*
X14263218Y-12414344D02*
X14244170Y-12404820D01*
X14244170Y-12404820D02*
X14234646Y-12385772D01*
X14234646Y-12385772D02*
X14234646Y-12214344D01*
X14491789Y-12414344D02*
X14491789Y-12214344D01*
X14491789Y-12214344D02*
X14558456Y-12357201D01*
X14558456Y-12357201D02*
X14625122Y-12214344D01*
X14625122Y-12214344D02*
X14625122Y-12414344D01*
X14806075Y-12414344D02*
X14806075Y-12309582D01*
X14806075Y-12309582D02*
X14796551Y-12290534D01*
X14796551Y-12290534D02*
X14777503Y-12281010D01*
X14777503Y-12281010D02*
X14739408Y-12281010D01*
X14739408Y-12281010D02*
X14720361Y-12290534D01*
X14806075Y-12404820D02*
X14787027Y-12414344D01*
X14787027Y-12414344D02*
X14739408Y-12414344D01*
X14739408Y-12414344D02*
X14720361Y-12404820D01*
X14720361Y-12404820D02*
X14710837Y-12385772D01*
X14710837Y-12385772D02*
X14710837Y-12366725D01*
X14710837Y-12366725D02*
X14720361Y-12347677D01*
X14720361Y-12347677D02*
X14739408Y-12338153D01*
X14739408Y-12338153D02*
X14787027Y-12338153D01*
X14787027Y-12338153D02*
X14806075Y-12328629D01*
X14901313Y-12281010D02*
X14901313Y-12481010D01*
X14901313Y-12290534D02*
X14920361Y-12281010D01*
X14920361Y-12281010D02*
X14958456Y-12281010D01*
X14958456Y-12281010D02*
X14977503Y-12290534D01*
X14977503Y-12290534D02*
X14987027Y-12300058D01*
X14987027Y-12300058D02*
X14996551Y-12319106D01*
X14996551Y-12319106D02*
X14996551Y-12376248D01*
X14996551Y-12376248D02*
X14987027Y-12395296D01*
X14987027Y-12395296D02*
X14977503Y-12404820D01*
X14977503Y-12404820D02*
X14958456Y-12414344D01*
X14958456Y-12414344D02*
X14920361Y-12414344D01*
X14920361Y-12414344D02*
X14901313Y-12404820D01*
X15082265Y-12395296D02*
X15091789Y-12404820D01*
X15091789Y-12404820D02*
X15082265Y-12414344D01*
X15082265Y-12414344D02*
X15072742Y-12404820D01*
X15072742Y-12404820D02*
X15082265Y-12395296D01*
X15082265Y-12395296D02*
X15082265Y-12414344D01*
X15082265Y-12290534D02*
X15091789Y-12300058D01*
X15091789Y-12300058D02*
X15082265Y-12309582D01*
X15082265Y-12309582D02*
X15072742Y-12300058D01*
X15072742Y-12300058D02*
X15082265Y-12290534D01*
X15082265Y-12290534D02*
X15082265Y-12309582D01*
D13*
X13415060Y-12725360D02*
X13450060Y-12760360D01*
X13450060Y-12725360D02*
X13415060Y-12760360D01*
D12*
X13748932Y-12634344D02*
X13767980Y-12634344D01*
X13767980Y-12634344D02*
X13787027Y-12643868D01*
X13787027Y-12643868D02*
X13796551Y-12653391D01*
X13796551Y-12653391D02*
X13806075Y-12672439D01*
X13806075Y-12672439D02*
X13815599Y-12710534D01*
X13815599Y-12710534D02*
X13815599Y-12758153D01*
X13815599Y-12758153D02*
X13806075Y-12796248D01*
X13806075Y-12796248D02*
X13796551Y-12815296D01*
X13796551Y-12815296D02*
X13787027Y-12824820D01*
X13787027Y-12824820D02*
X13767980Y-12834344D01*
X13767980Y-12834344D02*
X13748932Y-12834344D01*
X13748932Y-12834344D02*
X13729884Y-12824820D01*
X13729884Y-12824820D02*
X13720361Y-12815296D01*
X13720361Y-12815296D02*
X13710837Y-12796248D01*
X13710837Y-12796248D02*
X13701313Y-12758153D01*
X13701313Y-12758153D02*
X13701313Y-12710534D01*
X13701313Y-12710534D02*
X13710837Y-12672439D01*
X13710837Y-12672439D02*
X13720361Y-12653391D01*
X13720361Y-12653391D02*
X13729884Y-12643868D01*
X13729884Y-12643868D02*
X13748932Y-12634344D01*
X13901313Y-12815296D02*
X13910837Y-12824820D01*
X13910837Y-12824820D02*
X13901313Y-12834344D01*
X13901313Y-12834344D02*
X13891789Y-12824820D01*
X13891789Y-12824820D02*
X13901313Y-12815296D01*
X13901313Y-12815296D02*
X13901313Y-12834344D01*
X13977503Y-12634344D02*
X14101313Y-12634344D01*
X14101313Y-12634344D02*
X14034646Y-12710534D01*
X14034646Y-12710534D02*
X14063218Y-12710534D01*
X14063218Y-12710534D02*
X14082265Y-12720058D01*
X14082265Y-12720058D02*
X14091789Y-12729582D01*
X14091789Y-12729582D02*
X14101313Y-12748629D01*
X14101313Y-12748629D02*
X14101313Y-12796248D01*
X14101313Y-12796248D02*
X14091789Y-12815296D01*
X14091789Y-12815296D02*
X14082265Y-12824820D01*
X14082265Y-12824820D02*
X14063218Y-12834344D01*
X14063218Y-12834344D02*
X14006075Y-12834344D01*
X14006075Y-12834344D02*
X13987027Y-12824820D01*
X13987027Y-12824820D02*
X13977503Y-12815296D01*
X14282265Y-12634344D02*
X14187027Y-12634344D01*
X14187027Y-12634344D02*
X14177503Y-12729582D01*
X14177503Y-12729582D02*
X14187027Y-12720058D01*
X14187027Y-12720058D02*
X14206075Y-12710534D01*
X14206075Y-12710534D02*
X14253694Y-12710534D01*
X14253694Y-12710534D02*
X14272742Y-12720058D01*
X14272742Y-12720058D02*
X14282265Y-12729582D01*
X14282265Y-12729582D02*
X14291789Y-12748629D01*
X14291789Y-12748629D02*
X14291789Y-12796248D01*
X14291789Y-12796248D02*
X14282265Y-12815296D01*
X14282265Y-12815296D02*
X14272742Y-12824820D01*
X14272742Y-12824820D02*
X14253694Y-12834344D01*
X14253694Y-12834344D02*
X14206075Y-12834344D01*
X14206075Y-12834344D02*
X14187027Y-12824820D01*
X14187027Y-12824820D02*
X14177503Y-12815296D01*
X14415599Y-12634344D02*
X14434646Y-12634344D01*
X14434646Y-12634344D02*
X14453694Y-12643868D01*
X14453694Y-12643868D02*
X14463218Y-12653391D01*
X14463218Y-12653391D02*
X14472742Y-12672439D01*
X14472742Y-12672439D02*
X14482265Y-12710534D01*
X14482265Y-12710534D02*
X14482265Y-12758153D01*
X14482265Y-12758153D02*
X14472742Y-12796248D01*
X14472742Y-12796248D02*
X14463218Y-12815296D01*
X14463218Y-12815296D02*
X14453694Y-12824820D01*
X14453694Y-12824820D02*
X14434646Y-12834344D01*
X14434646Y-12834344D02*
X14415599Y-12834344D01*
X14415599Y-12834344D02*
X14396551Y-12824820D01*
X14396551Y-12824820D02*
X14387027Y-12815296D01*
X14387027Y-12815296D02*
X14377503Y-12796248D01*
X14377503Y-12796248D02*
X14367980Y-12758153D01*
X14367980Y-12758153D02*
X14367980Y-12710534D01*
X14367980Y-12710534D02*
X14377503Y-12672439D01*
X14377503Y-12672439D02*
X14387027Y-12653391D01*
X14387027Y-12653391D02*
X14396551Y-12643868D01*
X14396551Y-12643868D02*
X14415599Y-12634344D01*
X14567980Y-12834344D02*
X14567980Y-12701010D01*
X14567980Y-12720058D02*
X14577503Y-12710534D01*
X14577503Y-12710534D02*
X14596551Y-12701010D01*
X14596551Y-12701010D02*
X14625123Y-12701010D01*
X14625123Y-12701010D02*
X14644170Y-12710534D01*
X14644170Y-12710534D02*
X14653694Y-12729582D01*
X14653694Y-12729582D02*
X14653694Y-12834344D01*
X14653694Y-12729582D02*
X14663218Y-12710534D01*
X14663218Y-12710534D02*
X14682265Y-12701010D01*
X14682265Y-12701010D02*
X14710837Y-12701010D01*
X14710837Y-12701010D02*
X14729884Y-12710534D01*
X14729884Y-12710534D02*
X14739408Y-12729582D01*
X14739408Y-12729582D02*
X14739408Y-12834344D01*
X14834646Y-12834344D02*
X14834646Y-12701010D01*
X14834646Y-12720058D02*
X14844170Y-12710534D01*
X14844170Y-12710534D02*
X14863218Y-12701010D01*
X14863218Y-12701010D02*
X14891789Y-12701010D01*
X14891789Y-12701010D02*
X14910837Y-12710534D01*
X14910837Y-12710534D02*
X14920361Y-12729582D01*
X14920361Y-12729582D02*
X14920361Y-12834344D01*
X14920361Y-12729582D02*
X14929884Y-12710534D01*
X14929884Y-12710534D02*
X14948932Y-12701010D01*
X14948932Y-12701010D02*
X14977503Y-12701010D01*
X14977503Y-12701010D02*
X14996551Y-12710534D01*
X14996551Y-12710534D02*
X15006075Y-12729582D01*
X15006075Y-12729582D02*
X15006075Y-12834344D01*
X15396551Y-12624820D02*
X15225123Y-12881963D01*
X15653694Y-12634344D02*
X15672742Y-12634344D01*
X15672742Y-12634344D02*
X15691789Y-12643868D01*
X15691789Y-12643868D02*
X15701313Y-12653391D01*
X15701313Y-12653391D02*
X15710837Y-12672439D01*
X15710837Y-12672439D02*
X15720361Y-12710534D01*
X15720361Y-12710534D02*
X15720361Y-12758153D01*
X15720361Y-12758153D02*
X15710837Y-12796248D01*
X15710837Y-12796248D02*
X15701313Y-12815296D01*
X15701313Y-12815296D02*
X15691789Y-12824820D01*
X15691789Y-12824820D02*
X15672742Y-12834344D01*
X15672742Y-12834344D02*
X15653694Y-12834344D01*
X15653694Y-12834344D02*
X15634646Y-12824820D01*
X15634646Y-12824820D02*
X15625123Y-12815296D01*
X15625123Y-12815296D02*
X15615599Y-12796248D01*
X15615599Y-12796248D02*
X15606075Y-12758153D01*
X15606075Y-12758153D02*
X15606075Y-12710534D01*
X15606075Y-12710534D02*
X15615599Y-12672439D01*
X15615599Y-12672439D02*
X15625123Y-12653391D01*
X15625123Y-12653391D02*
X15634646Y-12643868D01*
X15634646Y-12643868D02*
X15653694Y-12634344D01*
X15806075Y-12815296D02*
X15815599Y-12824820D01*
X15815599Y-12824820D02*
X15806075Y-12834344D01*
X15806075Y-12834344D02*
X15796551Y-12824820D01*
X15796551Y-12824820D02*
X15806075Y-12815296D01*
X15806075Y-12815296D02*
X15806075Y-12834344D01*
X15939408Y-12634344D02*
X15958456Y-12634344D01*
X15958456Y-12634344D02*
X15977504Y-12643868D01*
X15977504Y-12643868D02*
X15987027Y-12653391D01*
X15987027Y-12653391D02*
X15996551Y-12672439D01*
X15996551Y-12672439D02*
X16006075Y-12710534D01*
X16006075Y-12710534D02*
X16006075Y-12758153D01*
X16006075Y-12758153D02*
X15996551Y-12796248D01*
X15996551Y-12796248D02*
X15987027Y-12815296D01*
X15987027Y-12815296D02*
X15977504Y-12824820D01*
X15977504Y-12824820D02*
X15958456Y-12834344D01*
X15958456Y-12834344D02*
X15939408Y-12834344D01*
X15939408Y-12834344D02*
X15920361Y-12824820D01*
X15920361Y-12824820D02*
X15910837Y-12815296D01*
X15910837Y-12815296D02*
X15901313Y-12796248D01*
X15901313Y-12796248D02*
X15891789Y-12758153D01*
X15891789Y-12758153D02*
X15891789Y-12710534D01*
X15891789Y-12710534D02*
X15901313Y-12672439D01*
X15901313Y-12672439D02*
X15910837Y-12653391D01*
X15910837Y-12653391D02*
X15920361Y-12643868D01*
X15920361Y-12643868D02*
X15939408Y-12634344D01*
X16196551Y-12834344D02*
X16082266Y-12834344D01*
X16139408Y-12834344D02*
X16139408Y-12634344D01*
X16139408Y-12634344D02*
X16120361Y-12662915D01*
X16120361Y-12662915D02*
X16101313Y-12681963D01*
X16101313Y-12681963D02*
X16082266Y-12691487D01*
X16263218Y-12634344D02*
X16387027Y-12634344D01*
X16387027Y-12634344D02*
X16320361Y-12710534D01*
X16320361Y-12710534D02*
X16348932Y-12710534D01*
X16348932Y-12710534D02*
X16367980Y-12720058D01*
X16367980Y-12720058D02*
X16377504Y-12729582D01*
X16377504Y-12729582D02*
X16387027Y-12748629D01*
X16387027Y-12748629D02*
X16387027Y-12796248D01*
X16387027Y-12796248D02*
X16377504Y-12815296D01*
X16377504Y-12815296D02*
X16367980Y-12824820D01*
X16367980Y-12824820D02*
X16348932Y-12834344D01*
X16348932Y-12834344D02*
X16291789Y-12834344D01*
X16291789Y-12834344D02*
X16272742Y-12824820D01*
X16272742Y-12824820D02*
X16263218Y-12815296D01*
X16501313Y-12720058D02*
X16482266Y-12710534D01*
X16482266Y-12710534D02*
X16472742Y-12701010D01*
X16472742Y-12701010D02*
X16463218Y-12681963D01*
X16463218Y-12681963D02*
X16463218Y-12672439D01*
X16463218Y-12672439D02*
X16472742Y-12653391D01*
X16472742Y-12653391D02*
X16482266Y-12643868D01*
X16482266Y-12643868D02*
X16501313Y-12634344D01*
X16501313Y-12634344D02*
X16539408Y-12634344D01*
X16539408Y-12634344D02*
X16558456Y-12643868D01*
X16558456Y-12643868D02*
X16567980Y-12653391D01*
X16567980Y-12653391D02*
X16577504Y-12672439D01*
X16577504Y-12672439D02*
X16577504Y-12681963D01*
X16577504Y-12681963D02*
X16567980Y-12701010D01*
X16567980Y-12701010D02*
X16558456Y-12710534D01*
X16558456Y-12710534D02*
X16539408Y-12720058D01*
X16539408Y-12720058D02*
X16501313Y-12720058D01*
X16501313Y-12720058D02*
X16482266Y-12729582D01*
X16482266Y-12729582D02*
X16472742Y-12739106D01*
X16472742Y-12739106D02*
X16463218Y-12758153D01*
X16463218Y-12758153D02*
X16463218Y-12796248D01*
X16463218Y-12796248D02*
X16472742Y-12815296D01*
X16472742Y-12815296D02*
X16482266Y-12824820D01*
X16482266Y-12824820D02*
X16501313Y-12834344D01*
X16501313Y-12834344D02*
X16539408Y-12834344D01*
X16539408Y-12834344D02*
X16558456Y-12824820D01*
X16558456Y-12824820D02*
X16567980Y-12815296D01*
X16567980Y-12815296D02*
X16577504Y-12796248D01*
X16577504Y-12796248D02*
X16577504Y-12758153D01*
X16577504Y-12758153D02*
X16567980Y-12739106D01*
X16567980Y-12739106D02*
X16558456Y-12729582D01*
X16558456Y-12729582D02*
X16539408Y-12720058D01*
X16653694Y-12634344D02*
X16653694Y-12672439D01*
X16729885Y-12634344D02*
X16729885Y-12672439D01*
X17025123Y-12910534D02*
X17015599Y-12901010D01*
X17015599Y-12901010D02*
X16996551Y-12872439D01*
X16996551Y-12872439D02*
X16987028Y-12853391D01*
X16987028Y-12853391D02*
X16977504Y-12824820D01*
X16977504Y-12824820D02*
X16967980Y-12777201D01*
X16967980Y-12777201D02*
X16967980Y-12739106D01*
X16967980Y-12739106D02*
X16977504Y-12691487D01*
X16977504Y-12691487D02*
X16987028Y-12662915D01*
X16987028Y-12662915D02*
X16996551Y-12643868D01*
X16996551Y-12643868D02*
X17015599Y-12615296D01*
X17015599Y-12615296D02*
X17025123Y-12605772D01*
X17187028Y-12701010D02*
X17187028Y-12834344D01*
X17139409Y-12624820D02*
X17091790Y-12767677D01*
X17091790Y-12767677D02*
X17215599Y-12767677D01*
X17444171Y-12834344D02*
X17444171Y-12634344D01*
X17529885Y-12834344D02*
X17529885Y-12729582D01*
X17529885Y-12729582D02*
X17520361Y-12710534D01*
X17520361Y-12710534D02*
X17501313Y-12701010D01*
X17501313Y-12701010D02*
X17472742Y-12701010D01*
X17472742Y-12701010D02*
X17453694Y-12710534D01*
X17453694Y-12710534D02*
X17444171Y-12720058D01*
X17653694Y-12834344D02*
X17634647Y-12824820D01*
X17634647Y-12824820D02*
X17625123Y-12815296D01*
X17625123Y-12815296D02*
X17615599Y-12796248D01*
X17615599Y-12796248D02*
X17615599Y-12739106D01*
X17615599Y-12739106D02*
X17625123Y-12720058D01*
X17625123Y-12720058D02*
X17634647Y-12710534D01*
X17634647Y-12710534D02*
X17653694Y-12701010D01*
X17653694Y-12701010D02*
X17682266Y-12701010D01*
X17682266Y-12701010D02*
X17701313Y-12710534D01*
X17701313Y-12710534D02*
X17710837Y-12720058D01*
X17710837Y-12720058D02*
X17720361Y-12739106D01*
X17720361Y-12739106D02*
X17720361Y-12796248D01*
X17720361Y-12796248D02*
X17710837Y-12815296D01*
X17710837Y-12815296D02*
X17701313Y-12824820D01*
X17701313Y-12824820D02*
X17682266Y-12834344D01*
X17682266Y-12834344D02*
X17653694Y-12834344D01*
X17834647Y-12834344D02*
X17815599Y-12824820D01*
X17815599Y-12824820D02*
X17806075Y-12805772D01*
X17806075Y-12805772D02*
X17806075Y-12634344D01*
X17987028Y-12824820D02*
X17967980Y-12834344D01*
X17967980Y-12834344D02*
X17929885Y-12834344D01*
X17929885Y-12834344D02*
X17910837Y-12824820D01*
X17910837Y-12824820D02*
X17901313Y-12805772D01*
X17901313Y-12805772D02*
X17901313Y-12729582D01*
X17901313Y-12729582D02*
X17910837Y-12710534D01*
X17910837Y-12710534D02*
X17929885Y-12701010D01*
X17929885Y-12701010D02*
X17967980Y-12701010D01*
X17967980Y-12701010D02*
X17987028Y-12710534D01*
X17987028Y-12710534D02*
X17996552Y-12729582D01*
X17996552Y-12729582D02*
X17996552Y-12748629D01*
X17996552Y-12748629D02*
X17901313Y-12767677D01*
X18072742Y-12824820D02*
X18091790Y-12834344D01*
X18091790Y-12834344D02*
X18129885Y-12834344D01*
X18129885Y-12834344D02*
X18148933Y-12824820D01*
X18148933Y-12824820D02*
X18158456Y-12805772D01*
X18158456Y-12805772D02*
X18158456Y-12796248D01*
X18158456Y-12796248D02*
X18148933Y-12777201D01*
X18148933Y-12777201D02*
X18129885Y-12767677D01*
X18129885Y-12767677D02*
X18101313Y-12767677D01*
X18101313Y-12767677D02*
X18082266Y-12758153D01*
X18082266Y-12758153D02*
X18072742Y-12739106D01*
X18072742Y-12739106D02*
X18072742Y-12729582D01*
X18072742Y-12729582D02*
X18082266Y-12710534D01*
X18082266Y-12710534D02*
X18101313Y-12701010D01*
X18101313Y-12701010D02*
X18129885Y-12701010D01*
X18129885Y-12701010D02*
X18148933Y-12710534D01*
X18225123Y-12910534D02*
X18234647Y-12901010D01*
X18234647Y-12901010D02*
X18253694Y-12872439D01*
X18253694Y-12872439D02*
X18263218Y-12853391D01*
X18263218Y-12853391D02*
X18272742Y-12824820D01*
X18272742Y-12824820D02*
X18282266Y-12777201D01*
X18282266Y-12777201D02*
X18282266Y-12739106D01*
X18282266Y-12739106D02*
X18272742Y-12691487D01*
X18272742Y-12691487D02*
X18263218Y-12662915D01*
X18263218Y-12662915D02*
X18253694Y-12643868D01*
X18253694Y-12643868D02*
X18234647Y-12615296D01*
X18234647Y-12615296D02*
X18225123Y-12605772D01*
X13450060Y-13006860D02*
G75*
G02*
X13250060Y-13006860I-100000J0D01*
G01*
X13250060Y-13006860D02*
G75*
G02*
X13450060Y-13006860I100000J0D01*
G01*
X13691789Y-12898344D02*
X13815599Y-12898344D01*
X13815599Y-12898344D02*
X13748932Y-12974534D01*
X13748932Y-12974534D02*
X13777503Y-12974534D01*
X13777503Y-12974534D02*
X13796551Y-12984058D01*
X13796551Y-12984058D02*
X13806075Y-12993582D01*
X13806075Y-12993582D02*
X13815599Y-13012629D01*
X13815599Y-13012629D02*
X13815599Y-13060248D01*
X13815599Y-13060248D02*
X13806075Y-13079296D01*
X13806075Y-13079296D02*
X13796551Y-13088820D01*
X13796551Y-13088820D02*
X13777503Y-13098344D01*
X13777503Y-13098344D02*
X13720361Y-13098344D01*
X13720361Y-13098344D02*
X13701313Y-13088820D01*
X13701313Y-13088820D02*
X13691789Y-13079296D01*
X13901313Y-13079296D02*
X13910837Y-13088820D01*
X13910837Y-13088820D02*
X13901313Y-13098344D01*
X13901313Y-13098344D02*
X13891789Y-13088820D01*
X13891789Y-13088820D02*
X13901313Y-13079296D01*
X13901313Y-13079296D02*
X13901313Y-13098344D01*
X13987027Y-12917391D02*
X13996551Y-12907868D01*
X13996551Y-12907868D02*
X14015599Y-12898344D01*
X14015599Y-12898344D02*
X14063218Y-12898344D01*
X14063218Y-12898344D02*
X14082265Y-12907868D01*
X14082265Y-12907868D02*
X14091789Y-12917391D01*
X14091789Y-12917391D02*
X14101313Y-12936439D01*
X14101313Y-12936439D02*
X14101313Y-12955487D01*
X14101313Y-12955487D02*
X14091789Y-12984058D01*
X14091789Y-12984058D02*
X13977503Y-13098344D01*
X13977503Y-13098344D02*
X14101313Y-13098344D01*
X14225122Y-12898344D02*
X14244170Y-12898344D01*
X14244170Y-12898344D02*
X14263218Y-12907868D01*
X14263218Y-12907868D02*
X14272742Y-12917391D01*
X14272742Y-12917391D02*
X14282265Y-12936439D01*
X14282265Y-12936439D02*
X14291789Y-12974534D01*
X14291789Y-12974534D02*
X14291789Y-13022153D01*
X14291789Y-13022153D02*
X14282265Y-13060248D01*
X14282265Y-13060248D02*
X14272742Y-13079296D01*
X14272742Y-13079296D02*
X14263218Y-13088820D01*
X14263218Y-13088820D02*
X14244170Y-13098344D01*
X14244170Y-13098344D02*
X14225122Y-13098344D01*
X14225122Y-13098344D02*
X14206075Y-13088820D01*
X14206075Y-13088820D02*
X14196551Y-13079296D01*
X14196551Y-13079296D02*
X14187027Y-13060248D01*
X14187027Y-13060248D02*
X14177503Y-13022153D01*
X14177503Y-13022153D02*
X14177503Y-12974534D01*
X14177503Y-12974534D02*
X14187027Y-12936439D01*
X14187027Y-12936439D02*
X14196551Y-12917391D01*
X14196551Y-12917391D02*
X14206075Y-12907868D01*
X14206075Y-12907868D02*
X14225122Y-12898344D01*
X14415599Y-12898344D02*
X14434646Y-12898344D01*
X14434646Y-12898344D02*
X14453694Y-12907868D01*
X14453694Y-12907868D02*
X14463218Y-12917391D01*
X14463218Y-12917391D02*
X14472742Y-12936439D01*
X14472742Y-12936439D02*
X14482265Y-12974534D01*
X14482265Y-12974534D02*
X14482265Y-13022153D01*
X14482265Y-13022153D02*
X14472742Y-13060248D01*
X14472742Y-13060248D02*
X14463218Y-13079296D01*
X14463218Y-13079296D02*
X14453694Y-13088820D01*
X14453694Y-13088820D02*
X14434646Y-13098344D01*
X14434646Y-13098344D02*
X14415599Y-13098344D01*
X14415599Y-13098344D02*
X14396551Y-13088820D01*
X14396551Y-13088820D02*
X14387027Y-13079296D01*
X14387027Y-13079296D02*
X14377503Y-13060248D01*
X14377503Y-13060248D02*
X14367980Y-13022153D01*
X14367980Y-13022153D02*
X14367980Y-12974534D01*
X14367980Y-12974534D02*
X14377503Y-12936439D01*
X14377503Y-12936439D02*
X14387027Y-12917391D01*
X14387027Y-12917391D02*
X14396551Y-12907868D01*
X14396551Y-12907868D02*
X14415599Y-12898344D01*
X14567980Y-13098344D02*
X14567980Y-12965010D01*
X14567980Y-12984058D02*
X14577503Y-12974534D01*
X14577503Y-12974534D02*
X14596551Y-12965010D01*
X14596551Y-12965010D02*
X14625123Y-12965010D01*
X14625123Y-12965010D02*
X14644170Y-12974534D01*
X14644170Y-12974534D02*
X14653694Y-12993582D01*
X14653694Y-12993582D02*
X14653694Y-13098344D01*
X14653694Y-12993582D02*
X14663218Y-12974534D01*
X14663218Y-12974534D02*
X14682265Y-12965010D01*
X14682265Y-12965010D02*
X14710837Y-12965010D01*
X14710837Y-12965010D02*
X14729884Y-12974534D01*
X14729884Y-12974534D02*
X14739408Y-12993582D01*
X14739408Y-12993582D02*
X14739408Y-13098344D01*
X14834646Y-13098344D02*
X14834646Y-12965010D01*
X14834646Y-12984058D02*
X14844170Y-12974534D01*
X14844170Y-12974534D02*
X14863218Y-12965010D01*
X14863218Y-12965010D02*
X14891789Y-12965010D01*
X14891789Y-12965010D02*
X14910837Y-12974534D01*
X14910837Y-12974534D02*
X14920361Y-12993582D01*
X14920361Y-12993582D02*
X14920361Y-13098344D01*
X14920361Y-12993582D02*
X14929884Y-12974534D01*
X14929884Y-12974534D02*
X14948932Y-12965010D01*
X14948932Y-12965010D02*
X14977503Y-12965010D01*
X14977503Y-12965010D02*
X14996551Y-12974534D01*
X14996551Y-12974534D02*
X15006075Y-12993582D01*
X15006075Y-12993582D02*
X15006075Y-13098344D01*
X15396551Y-12888820D02*
X15225123Y-13145963D01*
X15653694Y-12898344D02*
X15672742Y-12898344D01*
X15672742Y-12898344D02*
X15691789Y-12907868D01*
X15691789Y-12907868D02*
X15701313Y-12917391D01*
X15701313Y-12917391D02*
X15710837Y-12936439D01*
X15710837Y-12936439D02*
X15720361Y-12974534D01*
X15720361Y-12974534D02*
X15720361Y-13022153D01*
X15720361Y-13022153D02*
X15710837Y-13060248D01*
X15710837Y-13060248D02*
X15701313Y-13079296D01*
X15701313Y-13079296D02*
X15691789Y-13088820D01*
X15691789Y-13088820D02*
X15672742Y-13098344D01*
X15672742Y-13098344D02*
X15653694Y-13098344D01*
X15653694Y-13098344D02*
X15634646Y-13088820D01*
X15634646Y-13088820D02*
X15625123Y-13079296D01*
X15625123Y-13079296D02*
X15615599Y-13060248D01*
X15615599Y-13060248D02*
X15606075Y-13022153D01*
X15606075Y-13022153D02*
X15606075Y-12974534D01*
X15606075Y-12974534D02*
X15615599Y-12936439D01*
X15615599Y-12936439D02*
X15625123Y-12917391D01*
X15625123Y-12917391D02*
X15634646Y-12907868D01*
X15634646Y-12907868D02*
X15653694Y-12898344D01*
X15806075Y-13079296D02*
X15815599Y-13088820D01*
X15815599Y-13088820D02*
X15806075Y-13098344D01*
X15806075Y-13098344D02*
X15796551Y-13088820D01*
X15796551Y-13088820D02*
X15806075Y-13079296D01*
X15806075Y-13079296D02*
X15806075Y-13098344D01*
X16006075Y-13098344D02*
X15891789Y-13098344D01*
X15948932Y-13098344D02*
X15948932Y-12898344D01*
X15948932Y-12898344D02*
X15929885Y-12926915D01*
X15929885Y-12926915D02*
X15910837Y-12945963D01*
X15910837Y-12945963D02*
X15891789Y-12955487D01*
X16082266Y-12917391D02*
X16091789Y-12907868D01*
X16091789Y-12907868D02*
X16110837Y-12898344D01*
X16110837Y-12898344D02*
X16158456Y-12898344D01*
X16158456Y-12898344D02*
X16177504Y-12907868D01*
X16177504Y-12907868D02*
X16187027Y-12917391D01*
X16187027Y-12917391D02*
X16196551Y-12936439D01*
X16196551Y-12936439D02*
X16196551Y-12955487D01*
X16196551Y-12955487D02*
X16187027Y-12984058D01*
X16187027Y-12984058D02*
X16072742Y-13098344D01*
X16072742Y-13098344D02*
X16196551Y-13098344D01*
X16367980Y-12898344D02*
X16329885Y-12898344D01*
X16329885Y-12898344D02*
X16310837Y-12907868D01*
X16310837Y-12907868D02*
X16301313Y-12917391D01*
X16301313Y-12917391D02*
X16282266Y-12945963D01*
X16282266Y-12945963D02*
X16272742Y-12984058D01*
X16272742Y-12984058D02*
X16272742Y-13060248D01*
X16272742Y-13060248D02*
X16282266Y-13079296D01*
X16282266Y-13079296D02*
X16291789Y-13088820D01*
X16291789Y-13088820D02*
X16310837Y-13098344D01*
X16310837Y-13098344D02*
X16348932Y-13098344D01*
X16348932Y-13098344D02*
X16367980Y-13088820D01*
X16367980Y-13088820D02*
X16377504Y-13079296D01*
X16377504Y-13079296D02*
X16387027Y-13060248D01*
X16387027Y-13060248D02*
X16387027Y-13012629D01*
X16387027Y-13012629D02*
X16377504Y-12993582D01*
X16377504Y-12993582D02*
X16367980Y-12984058D01*
X16367980Y-12984058D02*
X16348932Y-12974534D01*
X16348932Y-12974534D02*
X16310837Y-12974534D01*
X16310837Y-12974534D02*
X16291789Y-12984058D01*
X16291789Y-12984058D02*
X16282266Y-12993582D01*
X16282266Y-12993582D02*
X16272742Y-13012629D01*
X16510837Y-12898344D02*
X16529885Y-12898344D01*
X16529885Y-12898344D02*
X16548932Y-12907868D01*
X16548932Y-12907868D02*
X16558456Y-12917391D01*
X16558456Y-12917391D02*
X16567980Y-12936439D01*
X16567980Y-12936439D02*
X16577504Y-12974534D01*
X16577504Y-12974534D02*
X16577504Y-13022153D01*
X16577504Y-13022153D02*
X16567980Y-13060248D01*
X16567980Y-13060248D02*
X16558456Y-13079296D01*
X16558456Y-13079296D02*
X16548932Y-13088820D01*
X16548932Y-13088820D02*
X16529885Y-13098344D01*
X16529885Y-13098344D02*
X16510837Y-13098344D01*
X16510837Y-13098344D02*
X16491789Y-13088820D01*
X16491789Y-13088820D02*
X16482266Y-13079296D01*
X16482266Y-13079296D02*
X16472742Y-13060248D01*
X16472742Y-13060248D02*
X16463218Y-13022153D01*
X16463218Y-13022153D02*
X16463218Y-12974534D01*
X16463218Y-12974534D02*
X16472742Y-12936439D01*
X16472742Y-12936439D02*
X16482266Y-12917391D01*
X16482266Y-12917391D02*
X16491789Y-12907868D01*
X16491789Y-12907868D02*
X16510837Y-12898344D01*
X16653694Y-12898344D02*
X16653694Y-12936439D01*
X16729885Y-12898344D02*
X16729885Y-12936439D01*
X17025123Y-13174534D02*
X17015599Y-13165010D01*
X17015599Y-13165010D02*
X16996551Y-13136439D01*
X16996551Y-13136439D02*
X16987028Y-13117391D01*
X16987028Y-13117391D02*
X16977504Y-13088820D01*
X16977504Y-13088820D02*
X16967980Y-13041201D01*
X16967980Y-13041201D02*
X16967980Y-13003106D01*
X16967980Y-13003106D02*
X16977504Y-12955487D01*
X16977504Y-12955487D02*
X16987028Y-12926915D01*
X16987028Y-12926915D02*
X16996551Y-12907868D01*
X16996551Y-12907868D02*
X17015599Y-12879296D01*
X17015599Y-12879296D02*
X17025123Y-12869772D01*
X17206075Y-13098344D02*
X17091790Y-13098344D01*
X17148932Y-13098344D02*
X17148932Y-12898344D01*
X17148932Y-12898344D02*
X17129885Y-12926915D01*
X17129885Y-12926915D02*
X17110837Y-12945963D01*
X17110837Y-12945963D02*
X17091790Y-12955487D01*
X17444171Y-13098344D02*
X17444171Y-12898344D01*
X17529885Y-13098344D02*
X17529885Y-12993582D01*
X17529885Y-12993582D02*
X17520361Y-12974534D01*
X17520361Y-12974534D02*
X17501313Y-12965010D01*
X17501313Y-12965010D02*
X17472742Y-12965010D01*
X17472742Y-12965010D02*
X17453694Y-12974534D01*
X17453694Y-12974534D02*
X17444171Y-12984058D01*
X17653694Y-13098344D02*
X17634647Y-13088820D01*
X17634647Y-13088820D02*
X17625123Y-13079296D01*
X17625123Y-13079296D02*
X17615599Y-13060248D01*
X17615599Y-13060248D02*
X17615599Y-13003106D01*
X17615599Y-13003106D02*
X17625123Y-12984058D01*
X17625123Y-12984058D02*
X17634647Y-12974534D01*
X17634647Y-12974534D02*
X17653694Y-12965010D01*
X17653694Y-12965010D02*
X17682266Y-12965010D01*
X17682266Y-12965010D02*
X17701313Y-12974534D01*
X17701313Y-12974534D02*
X17710837Y-12984058D01*
X17710837Y-12984058D02*
X17720361Y-13003106D01*
X17720361Y-13003106D02*
X17720361Y-13060248D01*
X17720361Y-13060248D02*
X17710837Y-13079296D01*
X17710837Y-13079296D02*
X17701313Y-13088820D01*
X17701313Y-13088820D02*
X17682266Y-13098344D01*
X17682266Y-13098344D02*
X17653694Y-13098344D01*
X17834647Y-13098344D02*
X17815599Y-13088820D01*
X17815599Y-13088820D02*
X17806075Y-13069772D01*
X17806075Y-13069772D02*
X17806075Y-12898344D01*
X17987028Y-13088820D02*
X17967980Y-13098344D01*
X17967980Y-13098344D02*
X17929885Y-13098344D01*
X17929885Y-13098344D02*
X17910837Y-13088820D01*
X17910837Y-13088820D02*
X17901313Y-13069772D01*
X17901313Y-13069772D02*
X17901313Y-12993582D01*
X17901313Y-12993582D02*
X17910837Y-12974534D01*
X17910837Y-12974534D02*
X17929885Y-12965010D01*
X17929885Y-12965010D02*
X17967980Y-12965010D01*
X17967980Y-12965010D02*
X17987028Y-12974534D01*
X17987028Y-12974534D02*
X17996552Y-12993582D01*
X17996552Y-12993582D02*
X17996552Y-13012629D01*
X17996552Y-13012629D02*
X17901313Y-13031677D01*
X18063218Y-13174534D02*
X18072742Y-13165010D01*
X18072742Y-13165010D02*
X18091790Y-13136439D01*
X18091790Y-13136439D02*
X18101313Y-13117391D01*
X18101313Y-13117391D02*
X18110837Y-13088820D01*
X18110837Y-13088820D02*
X18120361Y-13041201D01*
X18120361Y-13041201D02*
X18120361Y-13003106D01*
X18120361Y-13003106D02*
X18110837Y-12955487D01*
X18110837Y-12955487D02*
X18101313Y-12926915D01*
X18101313Y-12926915D02*
X18091790Y-12907868D01*
X18091790Y-12907868D02*
X18072742Y-12879296D01*
X18072742Y-12879296D02*
X18063218Y-12869772D01*
M02*
