%TF.GenerationSoftware,KiCad,Pcbnew,8.0.6*%
%TF.CreationDate,2024-12-14T20:52:32+05:30*%
%TF.ProjectId,pc_healthypi_move_bottom_pcb_v12,70635f68-6561-46c7-9468-7970695f6d6f,rev?*%
%TF.SameCoordinates,Original*%
%TF.FileFunction,Soldermask,Bot*%
%TF.FilePolarity,Negative*%
%FSLAX46Y46*%
G04 Gerber Fmt 4.6, Leading zero omitted, Abs format (unit mm)*
G04 Created by KiCad (PCBNEW 8.0.6) date 2024-12-14 20:52:32*
%MOMM*%
%LPD*%
G01*
G04 APERTURE LIST*
G04 APERTURE END LIST*
G36*
X153501435Y-89003606D02*
G01*
X153641641Y-89006106D01*
X153646260Y-89006478D01*
X153924147Y-89046432D01*
X153929319Y-89047557D01*
X154198374Y-89126559D01*
X154203334Y-89128409D01*
X154458408Y-89244897D01*
X154463054Y-89247434D01*
X154698955Y-89399039D01*
X154703192Y-89402211D01*
X154915114Y-89585842D01*
X154918857Y-89589585D01*
X155102488Y-89801507D01*
X155105660Y-89805744D01*
X155257265Y-90041645D01*
X155259802Y-90046291D01*
X155376290Y-90301365D01*
X155378140Y-90306325D01*
X155457142Y-90575380D01*
X155458267Y-90580552D01*
X155498221Y-90858439D01*
X155498593Y-90863057D01*
X155501094Y-91003263D01*
X155501100Y-91003925D01*
X155501100Y-97003594D01*
X155503506Y-97101847D01*
X155503508Y-97101858D01*
X155541842Y-97294581D01*
X155541843Y-97294583D01*
X155597314Y-97428502D01*
X155597314Y-97456898D01*
X155577236Y-97476976D01*
X155563038Y-97479800D01*
X141439162Y-97479800D01*
X141412928Y-97468934D01*
X141402062Y-97442700D01*
X141404886Y-97428502D01*
X141460356Y-97294583D01*
X141460357Y-97294581D01*
X141498691Y-97101858D01*
X141498693Y-97101847D01*
X141501100Y-97003594D01*
X141501100Y-91003925D01*
X141501106Y-91003264D01*
X141503606Y-90863058D01*
X141503978Y-90858439D01*
X141543932Y-90580552D01*
X141545057Y-90575380D01*
X141624059Y-90306325D01*
X141625909Y-90301365D01*
X141742397Y-90046291D01*
X141744934Y-90041645D01*
X141896539Y-89805744D01*
X141899711Y-89801507D01*
X142083342Y-89589585D01*
X142087085Y-89585842D01*
X142299007Y-89402211D01*
X142303244Y-89399039D01*
X142539145Y-89247434D01*
X142543791Y-89244897D01*
X142798865Y-89128409D01*
X142803825Y-89126559D01*
X143072880Y-89047557D01*
X143078052Y-89046432D01*
X143355939Y-89006478D01*
X143360558Y-89006106D01*
X143500765Y-89003606D01*
X143501426Y-89003600D01*
X153500774Y-89003600D01*
X153501435Y-89003606D01*
G37*
G36*
X156131332Y-97930224D02*
G01*
X156210112Y-97962855D01*
X156210118Y-97962857D01*
X156402841Y-98001191D01*
X156402852Y-98001193D01*
X156501106Y-98003600D01*
X160500774Y-98003600D01*
X160501435Y-98003606D01*
X160641641Y-98006106D01*
X160646260Y-98006478D01*
X160924147Y-98046432D01*
X160929319Y-98047557D01*
X161198374Y-98126559D01*
X161203334Y-98128409D01*
X161458408Y-98244897D01*
X161463054Y-98247434D01*
X161698955Y-98399039D01*
X161703192Y-98402211D01*
X161915114Y-98585842D01*
X161918857Y-98589585D01*
X162102488Y-98801507D01*
X162105660Y-98805744D01*
X162257265Y-99041645D01*
X162259802Y-99046291D01*
X162376290Y-99301365D01*
X162378140Y-99306325D01*
X162457142Y-99575380D01*
X162458267Y-99580552D01*
X162498221Y-99858439D01*
X162498593Y-99863057D01*
X162501094Y-100003263D01*
X162501100Y-100003925D01*
X162501100Y-110003274D01*
X162501094Y-110003936D01*
X162498593Y-110144142D01*
X162498221Y-110148760D01*
X162458267Y-110426647D01*
X162457142Y-110431819D01*
X162378140Y-110700874D01*
X162376290Y-110705834D01*
X162259802Y-110960908D01*
X162257265Y-110965554D01*
X162105660Y-111201455D01*
X162102488Y-111205692D01*
X161918857Y-111417614D01*
X161915114Y-111421357D01*
X161703192Y-111604988D01*
X161698955Y-111608160D01*
X161463054Y-111759765D01*
X161458408Y-111762302D01*
X161203334Y-111878790D01*
X161198374Y-111880640D01*
X160929319Y-111959642D01*
X160924147Y-111960767D01*
X160646260Y-112000721D01*
X160641642Y-112001093D01*
X160501436Y-112003594D01*
X160500774Y-112003600D01*
X156501106Y-112003600D01*
X156402852Y-112006006D01*
X156402841Y-112006008D01*
X156210118Y-112044342D01*
X156210112Y-112044344D01*
X156131332Y-112076976D01*
X156117135Y-112079800D01*
X151962000Y-112079800D01*
X151935766Y-112068934D01*
X151924900Y-112042700D01*
X151924900Y-97964500D01*
X151935766Y-97938266D01*
X151962000Y-97927400D01*
X156117135Y-97927400D01*
X156131332Y-97930224D01*
G37*
G36*
X145066434Y-97938266D02*
G01*
X145077300Y-97964500D01*
X145077300Y-112042700D01*
X145066434Y-112068934D01*
X145040200Y-112079800D01*
X140885065Y-112079800D01*
X140870868Y-112076976D01*
X140792087Y-112044344D01*
X140792081Y-112044342D01*
X140599358Y-112006008D01*
X140599347Y-112006006D01*
X140501094Y-112003600D01*
X136501426Y-112003600D01*
X136500764Y-112003594D01*
X136360557Y-112001093D01*
X136355939Y-112000721D01*
X136078052Y-111960767D01*
X136072880Y-111959642D01*
X135803825Y-111880640D01*
X135798865Y-111878790D01*
X135543791Y-111762302D01*
X135539145Y-111759765D01*
X135303244Y-111608160D01*
X135299007Y-111604988D01*
X135087085Y-111421357D01*
X135083342Y-111417614D01*
X134899711Y-111205692D01*
X134896539Y-111201455D01*
X134744934Y-110965554D01*
X134742397Y-110960908D01*
X134625909Y-110705834D01*
X134624059Y-110700874D01*
X134545057Y-110431819D01*
X134543932Y-110426647D01*
X134503978Y-110148760D01*
X134503606Y-110144141D01*
X134501106Y-110003935D01*
X134501100Y-110003274D01*
X134501100Y-100003925D01*
X134501106Y-100003264D01*
X134503606Y-99863058D01*
X134503978Y-99858439D01*
X134543932Y-99580552D01*
X134545057Y-99575380D01*
X134624059Y-99306325D01*
X134625909Y-99301365D01*
X134742397Y-99046291D01*
X134744934Y-99041645D01*
X134896539Y-98805744D01*
X134899711Y-98801507D01*
X135083342Y-98589585D01*
X135087085Y-98585842D01*
X135299007Y-98402211D01*
X135303244Y-98399039D01*
X135539145Y-98247434D01*
X135543791Y-98244897D01*
X135798865Y-98128409D01*
X135803825Y-98126559D01*
X136072880Y-98047557D01*
X136078052Y-98046432D01*
X136355939Y-98006478D01*
X136360558Y-98006106D01*
X136500765Y-98003606D01*
X136501426Y-98003600D01*
X140501094Y-98003600D01*
X140599347Y-98001193D01*
X140599358Y-98001191D01*
X140792081Y-97962857D01*
X140792087Y-97962855D01*
X140870868Y-97930224D01*
X140885065Y-97927400D01*
X145040200Y-97927400D01*
X145066434Y-97938266D01*
G37*
G36*
X155589272Y-112538266D02*
G01*
X155600138Y-112564500D01*
X155597314Y-112578698D01*
X155541843Y-112712616D01*
X155541842Y-112712618D01*
X155503508Y-112905341D01*
X155503506Y-112905352D01*
X155501100Y-113003605D01*
X155501100Y-119003274D01*
X155501094Y-119003936D01*
X155498593Y-119144142D01*
X155498221Y-119148760D01*
X155458267Y-119426647D01*
X155457142Y-119431819D01*
X155378140Y-119700874D01*
X155376290Y-119705834D01*
X155259802Y-119960908D01*
X155257265Y-119965554D01*
X155105660Y-120201455D01*
X155102488Y-120205692D01*
X154918857Y-120417614D01*
X154915114Y-120421357D01*
X154703192Y-120604988D01*
X154698955Y-120608160D01*
X154463054Y-120759765D01*
X154458408Y-120762302D01*
X154203334Y-120878790D01*
X154198374Y-120880640D01*
X153929319Y-120959642D01*
X153924147Y-120960767D01*
X153646260Y-121000721D01*
X153641642Y-121001093D01*
X153501436Y-121003594D01*
X153500774Y-121003600D01*
X143501426Y-121003600D01*
X143500764Y-121003594D01*
X143360557Y-121001093D01*
X143355939Y-121000721D01*
X143078052Y-120960767D01*
X143072880Y-120959642D01*
X142803825Y-120880640D01*
X142798865Y-120878790D01*
X142543791Y-120762302D01*
X142539145Y-120759765D01*
X142303244Y-120608160D01*
X142299007Y-120604988D01*
X142087085Y-120421357D01*
X142083342Y-120417614D01*
X141899711Y-120205692D01*
X141896539Y-120201455D01*
X141744934Y-119965554D01*
X141742397Y-119960908D01*
X141625909Y-119705834D01*
X141624059Y-119700874D01*
X141545057Y-119431819D01*
X141543932Y-119426647D01*
X141503978Y-119148760D01*
X141503606Y-119144141D01*
X141501106Y-119003935D01*
X141501100Y-119003274D01*
X141501100Y-113003605D01*
X141498693Y-112905352D01*
X141498691Y-112905341D01*
X141460357Y-112712618D01*
X141460356Y-112712616D01*
X141404886Y-112578698D01*
X141404886Y-112550302D01*
X141424964Y-112530224D01*
X141439162Y-112527400D01*
X155563038Y-112527400D01*
X155589272Y-112538266D01*
G37*
M02*
